{
  "accessors": [
    {
      "bufferView": 2,
      "componentType": 5126,
      "count": 65532,
      "max": [
        0.31771498918533325,
        0.16308200359344482,
        -0.9251629710197449
      ],
      "min": [
        -0.31571701169013977,
        -0.12527400255203247,
        -1.6589080095291138
      ],
      "type": "VEC3"
    },
    {
      "bufferView": 2,
      "byteOffset": 786384,
      "componentType": 5126,
      "count": 65532,
      "max": [
        0.9999971389770508,
        0.9999955892562866,
        0.999930739402771
      ],
      "min": [
        -0.9999938607215881,
        -1.0,
        -0.9999806880950928
      ],
      "type": "VEC3"
    },
    {
      "bufferView": 1,
      "componentType": 5126,
      "count": 65532,
      "max": [
        0.993573009967804,
        1.0041359663009644
      ],
      "min": [
        0.007834999822080135,
        0.00583200016990304
      ],
      "type": "VEC2"
    },
    {
      "bufferView": 0,
      "componentType": 5125,
      "count": 373443,
      "type": "SCALAR"
    },
    {
      "bufferView": 2,
      "byteOffset": 1572768,
      "componentType": 5126,
      "count": 3261,
      "max": [
        0.31912100315093994,
        0.12109699845314026,
        -1.3521080017089844
      ],
      "min": [
        0.04601199924945831,
        -0.10163500159978867,
        -1.5602589845657349
      ],
      "type": "VEC3"
    },
    {
      "bufferView": 2,
      "byteOffset": 1611900,
      "componentType": 5126,
      "count": 3261,
      "max": [
        0.9799206256866455,
        0.9999857544898987,
        0.9652645587921143
      ],
      "min": [
        -0.9910455346107483,
        -0.9999313950538635,
        -0.9990548491477966
      ],
      "type": "VEC3"
    },
    {
      "bufferView": 1,
      "byteOffset": 524256,
      "componentType": 5126,
      "count": 3261,
      "max": [
        0.9719439744949341,
        0.9913930296897888
      ],
      "min": [
        0.14446400105953217,
        0.1313749998807907
      ],
      "type": "VEC2"
    },
    {
      "bufferView": 0,
      "byteOffset": 1493772,
      "componentType": 5125,
      "count": 15315,
      "type": "SCALAR"
    },
    {
      "bufferView": 2,
      "byteOffset": 1651032,
      "componentType": 5126,
      "count": 8855,
      "max": [
        0.10482800006866455,
        0.14515499770641327,
        -1.1245009899139404
      ],
      "min": [
        -0.10063999891281128,
        0.04944299906492233,
        -1.5726330280303955
      ],
      "type": "VEC3"
    },
    {
      "bufferView": 2,
      "byteOffset": 1757292,
      "componentType": 5126,
      "count": 8855,
      "max": [
        0.9997848868370056,
        0.9999387860298157,
        0.9999197721481323
      ],
      "min": [
        -0.9996628165245056,
        -0.9999985098838806,
        -0.9996841549873352
      ],
      "type": "VEC3"
    },
    {
      "bufferView": 1,
      "byteOffset": 550344,
      "componentType": 5126,
      "count": 8855,
      "max": [
        0.09192600101232529,
        0.8023189902305603
      ],
      "min": [
        0.011342000216245651,
        0.7222830057144165
      ],
      "type": "VEC2"
    },
    {
      "bufferView": 0,
      "byteOffset": 1555032,
      "componentType": 5125,
      "count": 41406,
      "type": "SCALAR"
    }
  ],
  "asset": {
    "extras": {
      "author": "Shushilda (https://sketchfab.com/shushilda)",
      "license": "CC-BY-4.0 (http://creativecommons.org/licenses/by/4.0/)",
      "source": "https://sketchfab.com/3d-models/shirt-0a089aab28fb40a6b91430a1ff9683cd",
      "title": "Shirt"
    },
    "generator": "Sketchfab-15.47.0",
    "version": "2.0"
  },
  "bufferViews": [
    {
      "buffer": 0,
      "byteLength": 1720656,
      "name": "floatBufferViews",
      "target": 34963
    },
    {
      "buffer": 0,
      "byteLength": 621184,
      "byteOffset": 1720656,
      "byteStride": 8,
      "name": "floatBufferViews",
      "target": 34962
    },
    {
      "buffer": 0,
      "byteLength": 1863552,
      "byteOffset": 2341840,
      "byteStride": 12,
      "name": "floatBufferViews",
      "target": 34962
    }
  ],
  "buffers": [
    {
      "byteLength": 4205392,
      "uri": "scene.bin"
    }
  ],
  "extensionsUsed": [
    "KHR_materials_unlit"
  ],
  "images": [
    {
      "uri": "textures/Material_baseColor.jpeg"
    }
  ],
  "materials": [
    {
      "doubleSided": true,
      "extensions": {
        "KHR_materials_unlit": {}
      },
      "name": "Material",
      "pbrMetallicRoughness": {
        "baseColorTexture": {
          "index": 0
        },
        "metallicFactor": 0.0
      }
    },
    {
      "doubleSided": true,
      "extensions": {
        "KHR_materials_unlit": {}
      },
      "name": "Material.001",
      "pbrMetallicRoughness": {
        "baseColorTexture": {
          "index": 0
        },
        "metallicFactor": 0.0
      }
    }
  ],
  "meshes": [
    {
      "name": "Object_0",
      "primitives": [
        {
          "attributes": {
            "NORMAL": 1,
            "POSITION": 0,
            "TEXCOORD_0": 2
          },
          "indices": 3,
          "material": 0,
          "mode": 4
        }
      ]
    },
    {
      "name": "Object_1",
      "primitives": [
        {
          "attributes": {
            "NORMAL": 5,
            "POSITION": 4,
            "TEXCOORD_0": 6
          },
          "indices": 7,
          "material": 0,
          "mode": 4
        }
      ]
    },
    {
      "name": "Object_2",
      "primitives": [
        {
          "attributes": {
            "NORMAL": 9,
            "POSITION": 8,
            "TEXCOORD_0": 10
          },
          "indices": 11,
          "material": 1,
          "mode": 4
        }
      ]
    }
  ],
  "nodes": [
    {
      "children": [
        1
      ],
      "matrix": [
        1.0,
        0.0,
        0.0,
        0.0,
        0.0,
        2.220446049250313e-16,
        -1.0,
        0.0,
        0.0,
        1.0,
        2.220446049250313e-16,
        0.0,
        0.0,
        0.0,
        0.0,
        1.0
      ],
      "name": "Sketchfab_model"
    },
    {
      "children": [
        2
      ],
      "name": "root"
    },
    {
      "children": [
        3
      ],
      "matrix": [
        1.0,
        0.0,
        0.0,
        0.0,
        0.0,
        2.220446049250313e-16,
        1.0,
        0.0,
        0.0,
        -1.0,
        2.220446049250313e-16,
        0.0,
        0.0,
        0.0,
        0.0,
        1.0
      ],
      "name": "GLTF_SceneRootNode"
    },
    {
      "children": [
        4,
        5,
        6
      ],
      "matrix": [
        1.0,
        0.0,
        0.0,
        0.0,
        0.0,
        8.429369480200677e-08,
        0.9999999999999966,
        0.0,
        0.0,
        -0.9999999999999966,
        8.429369480200677e-08,
        0.0,
        0.0,
        0.0,
        0.0,
        1.0
      ],
      "name": "shirt_0"
    },
    {
      "mesh": 0,
      "name": "Object_4"
    },
    {
      "mesh": 1,
      "name": "Object_5"
    },
    {
      "mesh": 2,
      "name": "Object_6"
    }
  ],
  "samplers": [
    {
      "magFilter": 9729,
      "minFilter": 9987,
      "wrapS": 10497,
      "wrapT": 10497
    }
  ],
  "scene": 0,
  "scenes": [
    {
      "name": "Sketchfab_Scene",
      "nodes": [
        0
      ]
    }
  ],
  "textures": [
    {
      "sampler": 0,
      "source": 0
    }
  ]
}
