{
  "accessors": [
    {
      "bufferView": 2,
      "componentType": 5126,
      "count": 7524,
      "max": [
        316.8581848144531,
        81.0441665649414,
        18.916059494018555
      ],
      "min": [
        -217.00338745117188,
        -81.4786148071289,
        -12.119083404541016
      ],
      "type": "VEC3"
    },
    {
      "bufferView": 2,
      "byteOffset": 90288,
      "componentType": 5126,
      "count": 7524,
      "max": [
        0.999993085861206,
        0.9975124597549438,
        1.0
      ],
      "min": [
        -0.9999933838844299,
        -0.9991880059242249,
        -1.0
      ],
      "type": "VEC3"
    },
    {
      "bufferView": 3,
      "componentType": 5126,
      "count": 7524,
      "max": [
        1.0,
        0.9999929070472717,
        1.0,
        1.0
      ],
      "min": [
        -1.0,
        -0.9999933838844299,
        -0.9999997615814209,
        1.0
      ],
      "type": "VEC4"
    },
    {
      "bufferView": 1,
      "componentType": 5126,
      "count": 7524,
      "max": [
        0.9913619756698608,
        0.9913510084152222
      ],
      "min": [
        0.0057310000993311405,
        0.0057310000993311405
      ],
      "type": "VEC2"
    },
    {
      "bufferView": 0,
      "componentType": 5125,
      "count": 28818,
      "type": "SCALAR"
    }
  ],
  "asset": {
    "extras": {
      "author": "arsenif5690 (https://sketchfab.com/arsenif5690)",
      "license": "CC-BY-4.0 (http://creativecommons.org/licenses/by/4.0/)",
      "source": "https://sketchfab.com/3d-models/keyboard-mouse-b6644ed405f8489091be482d34cb7195",
      "title": "Keyboard Mouse"
    },
    "generator": "Sketchfab-12.65.0",
    "version": "2.0"
  },
  "bufferViews": [
    {
      "buffer": 0,
      "byteLength": 115272,
      "name": "floatBufferViews",
      "target": 34963
    },
    {
      "buffer": 0,
      "byteLength": 60192,
      "byteOffset": 115272,
      "byteStride": 8,
      "name": "floatBufferViews",
      "target": 34962
    },
    {
      "buffer": 0,
      "byteLength": 180576,
      "byteOffset": 175464,
      "byteStride": 12,
      "name": "floatBufferViews",
      "target": 34962
    },
    {
      "buffer": 0,
      "byteLength": 120384,
      "byteOffset": 356040,
      "byteStride": 16,
      "name": "floatBufferViews",
      "target": 34962
    }
  ],
  "buffers": [
    {
      "byteLength": 476424,
      "uri": "scene.bin"
    }
  ],
  "images": [
    {
      "uri": "textures/T_KM_baseColor.png"
    },
    {
      "uri": "textures/T_KM_metallicRoughness.png"
    },
    {
      "uri": "textures/T_KM_normal.png"
    }
  ],
  "materials": [
    {
      "doubleSided": true,
      "name": "T_KM",
      "normalTexture": {
        "index": 2
      },
      "occlusionTexture": {
        "index": 1
      },
      "pbrMetallicRoughness": {
        "baseColorTexture": {
          "index": 0
        },
        "metallicRoughnessTexture": {
          "index": 1
        }
      }
    }
  ],
  "meshes": [
    {
      "name": "SM_KM_LP_T_KM_0",
      "primitives": [
        {
          "attributes": {
            "NORMAL": 1,
            "POSITION": 0,
            "TANGENT": 2,
            "TEXCOORD_0": 3
          },
          "indices": 4,
          "material": 0,
          "mode": 4
        }
      ]
    }
  ],
  "nodes": [
    {
      "children": [
        1
      ],
      "matrix": [
        1.0,
        0.0,
        0.0,
        0.0,
        0.0,
        2.220446049250313e-16,
        -1.0,
        0.0,
        0.0,
        1.0,
        2.220446049250313e-16,
        0.0,
        0.0,
        0.0,
        0.0,
        1.0
      ],
      "name": "Sketchfab_model"
    },
    {
      "children": [
        2
      ],
      "matrix": [
        1.0,
        0.0,
        0.0,
        0.0,
        0.0,
        0.0,
        1.0,
        0.0,
        0.0,
        -1.0,
        0.0,
        0.0,
        0.0,
        0.0,
        0.0,
        1.0
      ],
      "name": "SM_KM_LP.FBX"
    },
    {
      "children": [
        3
      ],
      "name": "RootNode"
    },
    {
      "children": [
        4
      ],
      "matrix": [
        0.10000000149011612,
        0.0,
        0.0,
        0.0,
        0.0,
        2.2204460823375376e-17,
        -0.10000000149011612,
        0.0,
        0.0,
        0.10000000149011612,
        2.2204460823375376e-17,
        0.0,
        -0.0031610012520104647,
        0.0,
        0.013354229740798473,
        1.0
      ],
      "name": "SM_KM_LP"
    },
    {
      "mesh": 0,
      "name": "SM_KM_LP_T_KM_0"
    }
  ],
  "samplers": [
    {
      "magFilter": 9729,
      "minFilter": 9987,
      "wrapS": 10497,
      "wrapT": 10497
    }
  ],
  "scene": 0,
  "scenes": [
    {
      "name": "Sketchfab_Scene",
      "nodes": [
        0
      ]
    }
  ],
  "textures": [
    {
      "sampler": 0,
      "source": 0
    },
    {
      "sampler": 0,
      "source": 1
    },
    {
      "sampler": 0,
      "source": 2
    }
  ]
}
