{
  "accessors": [
    {
      "bufferView": 2,
      "componentType": 5126,
      "count": 4147,
      "max": [
        1.0,
        0.5243819952011108,
        0.2435069978237152
      ],
      "min": [
        -1.0,
        -0.5243819952011108,
        -0.2435069978237152
      ],
      "type": "VEC3"
    },
    {
      "bufferView": 2,
      "byteOffset": 49764,
      "componentType": 5126,
      "count": 4147,
      "max": [
        0.9999023675918579,
        0.969939649105072,
        0.9997722506523132
      ],
      "min": [
        -0.9999348521232605,
        -0.9981807470321655,
        -0.9999768733978271
      ],
      "type": "VEC3"
    },
    {
      "bufferView": 3,
      "componentType": 5126,
      "count": 4147,
      "max": [
        1.0,
        0.9492678642272949,
        0.9997527599334717,
        1.0
      ],
      "min": [
        -0.9999932646751404,
        -0.9603805541992188,
        -0.999968945980072,
        1.0
      ],
      "type": "VEC4"
    },
    {
      "bufferView": 1,
      "componentType": 5126,
      "count": 4147,
      "max": [
        0.993694007396698,
        0.9483789801597595
      ],
      "min": [
        0.004163969773799181,
        0.04636950045824051
      ],
      "type": "VEC2"
    },
    {
      "bufferView": 0,
      "componentType": 5125,
      "count": 23181,
      "type": "SCALAR"
    }
  ],
  "asset": {
    "extras": {
      "author": "Kodie Russell (https://sketchfab.com/KodieRussell)",
      "license": "CC-BY-4.0 (http://creativecommons.org/licenses/by/4.0/)",
      "source": "https://sketchfab.com/3d-models/dickies-long-sleeve-shirt-f6f27327fbaf423081ae9da8e5dc109e",
      "title": "Dickies Long Sleeve Shirt"
    },
    "generator": "Sketchfab-12.66.0",
    "version": "2.0"
  },
  "bufferViews": [
    {
      "buffer": 0,
      "byteLength": 92724,
      "name": "floatBufferViews",
      "target": 34963
    },
    {
      "buffer": 0,
      "byteLength": 33176,
      "byteOffset": 92724,
      "byteStride": 8,
      "name": "floatBufferViews",
      "target": 34962
    },
    {
      "buffer": 0,
      "byteLength": 99528,
      "byteOffset": 125900,
      "byteStride": 12,
      "name": "floatBufferViews",
      "target": 34962
    },
    {
      "buffer": 0,
      "byteLength": 66352,
      "byteOffset": 225428,
      "byteStride": 16,
      "name": "floatBufferViews",
      "target": 34962
    }
  ],
  "buffers": [
    {
      "byteLength": 291780,
      "uri": "scene.bin"
    }
  ],
  "images": [
    {
      "uri": "textures/Shirt_baseColor.jpeg"
    },
    {
      "uri": "textures/Shirt_metallicRoughness.png"
    },
    {
      "uri": "textures/Shirt_normal.png"
    }
  ],
  "materials": [
    {
      "doubleSided": true,
      "name": "Shirt",
      "normalTexture": {
        "index": 2
      },
      "occlusionTexture": {
        "index": 1
      },
      "pbrMetallicRoughness": {
        "baseColorTexture": {
          "index": 0
        },
        "metallicRoughnessTexture": {
          "index": 1
        }
      }
    }
  ],
  "meshes": [
    {
      "name": "defaultMaterial",
      "primitives": [
        {
          "attributes": {
            "NORMAL": 1,
            "POSITION": 0,
            "TANGENT": 2,
            "TEXCOORD_0": 3
          },
          "indices": 4,
          "material": 0,
          "mode": 4
        }
      ]
    }
  ],
  "nodes": [
    {
      "children": [
        1
      ],
      "matrix": [
        1.0,
        0.0,
        0.0,
        0.0,
        0.0,
        2.220446049250313e-16,
        -1.0,
        0.0,
        0.0,
        1.0,
        2.220446049250313e-16,
        0.0,
        0.0,
        0.0,
        0.0,
        1.0
      ],
      "name": "Sketchfab_model"
    },
    {
      "children": [
        2
      ],
      "matrix": [
        1.0,
        0.0,
        0.0,
        0.0,
        0.0,
        -4.371139006309477e-08,
        0.999999999999999,
        0.0,
        0.0,
        -0.999999999999999,
        -4.371139006309477e-08,
        0.0,
        0.0,
        0.0,
        0.0,
        1.0
      ],
      "name": "Collada visual scene group"
    },
    {
      "children": [
        3
      ],
      "name": "Shirt_low"
    },
    {
      "mesh": 0,
      "name": "defaultMaterial"
    }
  ],
  "samplers": [
    {
      "magFilter": 9729,
      "minFilter": 9987,
      "wrapS": 10497,
      "wrapT": 10497
    }
  ],
  "scene": 0,
  "scenes": [
    {
      "name": "Sketchfab_Scene",
      "nodes": [
        0
      ]
    }
  ],
  "textures": [
    {
      "sampler": 0,
      "source": 0
    },
    {
      "sampler": 0,
      "source": 1
    },
    {
      "sampler": 0,
      "source": 2
    }
  ]
}
