{
  "accessors": [
    {
      "bufferView": 2,
      "componentType": 5126,
      "count": 60292,
      "max": [
        6.085812091827393,
        0.6710730195045471,
        -22.288646697998047
      ],
      "min": [
        -3.703437089920044,
        -3.78341007232666,
        -29.65494728088379
      ],
      "type": "VEC3"
    },
    {
      "bufferView": 2,
      "byteOffset": 723504,
      "componentType": 5126,
      "count": 60292,
      "max": [
        0.9999607801437378,
        0.9999805688858032,
        0.9999537467956543
      ],
      "min": [
        -0.999992847442627,
        -0.9999996423721313,
        -0.9996761083602905
      ],
      "type": "VEC3"
    },
    {
      "bufferView": 3,
      "componentType": 5126,
      "count": 60292,
      "max": [
        0.9999891519546509,
        0.9999678730964661,
        0.9999776482582092,
        1.0
      ],
      "min": [
        -0.9999836087226868,
        -0.9999971389770508,
        -0.9999560713768005,
        -1.0
      ],
      "type": "VEC4"
    },
    {
      "bufferView": 1,
      "componentType": 5126,
      "count": 60292,
      "max": [
        1.0,
        0.9997509717941284
      ],
      "min": [
        0.0,
        0.0
      ],
      "type": "VEC2"
    },
    {
      "bufferView": 0,
      "componentType": 5125,
      "count": 303090,
      "type": "SCALAR"
    }
  ],
  "asset": {
    "extras": {
      "author": "Lassi Kaukonen (https://sketchfab.com/thesidekick)",
      "license": "CC-BY-4.0 (http://creativecommons.org/licenses/by/4.0/)",
      "source": "https://sketchfab.com/3d-models/winter-shoe-710d062364b34ab38fce619b5daabfcb",
      "title": "Winter Shoe"
    },
    "generator": "Sketchfab-12.68.0",
    "version": "2.0"
  },
  "bufferViews": [
    {
      "buffer": 0,
      "byteLength": 1212360,
      "name": "floatBufferViews",
      "target": 34963
    },
    {
      "buffer": 0,
      "byteLength": 482336,
      "byteOffset": 1212360,
      "byteStride": 8,
      "name": "floatBufferViews",
      "target": 34962
    },
    {
      "buffer": 0,
      "byteLength": 1447008,
      "byteOffset": 1694696,
      "byteStride": 12,
      "name": "floatBufferViews",
      "target": 34962
    },
    {
      "buffer": 0,
      "byteLength": 964672,
      "byteOffset": 3141704,
      "byteStride": 16,
      "name": "floatBufferViews",
      "target": 34962
    }
  ],
  "buffers": [
    {
      "byteLength": 4106376,
      "uri": "scene.bin"
    }
  ],
  "images": [
    {
      "uri": "textures/Winter_shoe_size32_low_sculpted_baseColor.jpeg"
    },
    {
      "uri": "textures/Winter_shoe_size32_low_sculpted_metallicRoughness.png"
    },
    {
      "uri": "textures/Winter_shoe_size32_low_sculpted_normal.png"
    }
  ],
  "materials": [
    {
      "doubleSided": true,
      "emissiveFactor": [
        0.6231060606060606,
        0.6231060606060606,
        0.6231060606060606
      ],
      "emissiveTexture": {
        "index": 0
      },
      "name": "Winter_shoe_size32_low_sculpted",
      "normalTexture": {
        "index": 2
      },
      "occlusionTexture": {
        "index": 1
      },
      "pbrMetallicRoughness": {
        "baseColorTexture": {
          "index": 0
        },
        "metallicFactor": 0.0,
        "metallicRoughnessTexture": {
          "index": 1
        }
      }
    }
  ],
  "meshes": [
    {
      "name": "Winter_shoe_size32_low_sculpted_Winter_shoe_size32_low_sculpted_0",
      "primitives": [
        {
          "attributes": {
            "NORMAL": 1,
            "POSITION": 0,
            "TANGENT": 2,
            "TEXCOORD_0": 3
          },
          "indices": 4,
          "material": 0,
          "mode": 4
        }
      ]
    }
  ],
  "nodes": [
    {
      "children": [
        1
      ],
      "matrix": [
        1.0,
        0.0,
        0.0,
        0.0,
        0.0,
        2.220446049250313e-16,
        -1.0,
        0.0,
        0.0,
        1.0,
        2.220446049250313e-16,
        0.0,
        0.0,
        0.0,
        0.0,
        1.0
      ],
      "name": "Sketchfab_model"
    },
    {
      "children": [
        2
      ],
      "matrix": [
        1.0,
        0.0,
        0.0,
        0.0,
        0.0,
        0.0,
        1.0,
        0.0,
        0.0,
        -1.0,
        0.0,
        0.0,
        0.0,
        0.0,
        0.0,
        1.0
      ],
      "name": "Winter_shoe_size32.fbx"
    },
    {
      "children": [
        3
      ],
      "name": "RootNode"
    },
    {
      "children": [
        4
      ],
      "matrix": [
        8.335429709794006,
        -63.893386783441365,
        76.47323542844676,
        0.0,
        98.43691095173364,
        17.22659652145829,
        3.663394661554753,
        0.0,
        -15.514401451019644,
        74.97252525365377,
        64.33058218846497,
        0.0,
        -241.50393676757813,
        2250.672607421875,
        1622.041748046875,
        1.0
      ],
      "name": "Winter_shoe_size32_low_sculpted"
    },
    {
      "mesh": 0,
      "name": "Winter_shoe_size32_low_sculpted_Winter_shoe_size32_low_sculpted_0"
    }
  ],
  "samplers": [
    {
      "magFilter": 9729,
      "minFilter": 9987,
      "wrapS": 10497,
      "wrapT": 10497
    }
  ],
  "scene": 0,
  "scenes": [
    {
      "name": "Sketchfab_Scene",
      "nodes": [
        0
      ]
    }
  ],
  "textures": [
    {
      "sampler": 0,
      "source": 0
    },
    {
      "sampler": 0,
      "source": 1
    },
    {
      "sampler": 0,
      "source": 2
    }
  ]
}
