{
  "accessors": [
    {
      "bufferView": 2,
      "componentType": 5126,
      "count": 48,
      "max": [
        1.0,
        1.0,
        1.0
      ],
      "min": [
        -1.0,
        -1.0,
        -1.0
      ],
      "type": "VEC3"
    },
    {
      "bufferView": 2,
      "byteOffset": 576,
      "componentType": 5126,
      "count": 48,
      "max": [
        1.0,
        1.0,
        1.0
      ],
      "min": [
        -1.0,
        -1.0,
        -1.0
      ],
      "type": "VEC3"
    },
    {
      "bufferView": 1,
      "componentType": 5126,
      "count": 48,
      "max": [
        0.4432455897331238,
        0.5025215148925781
      ],
      "min": [
        0.4394633173942566,
        0.4974784851074219
      ],
      "type": "VEC2"
    },
    {
      "bufferView": 0,
      "componentType": 5125,
      "count": 84,
      "type": "SCALAR"
    },
    {
      "bufferView": 2,
      "byteOffset": 1152,
      "componentType": 5126,
      "count": 104,
      "max": [
        0.9436439871788025,
        0.9565024971961975,
        0.9486638307571411
      ],
      "min": [
        -0.9529232978820801,
        -0.947043240070343,
        -0.9479035139083862
      ],
      "type": "VEC3"
    },
    {
      "bufferView": 2,
      "byteOffset": 2400,
      "componentType": 5126,
      "count": 104,
      "max": [
        1.0,
        1.0,
        1.0
      ],
      "min": [
        -1.0,
        -1.0,
        -1.0
      ],
      "type": "VEC3"
    },
    {
      "bufferView": 1,
      "byteOffset": 384,
      "componentType": 5126,
      "count": 104,
      "max": [
        0.5417643189430237,
        0.5556857585906982
      ],
      "min": [
        0.4582356810569763,
        0.44431424140930176
      ],
      "type": "VEC2"
    },
    {
      "bufferView": 0,
      "byteOffset": 336,
      "componentType": 5125,
      "count": 168,
      "type": "SCALAR"
    },
    {
      "bufferView": 2,
      "byteOffset": 3648,
      "componentType": 5126,
      "count": 1567,
      "max": [
        1.9686579704284668,
        0.9183546304702759,
        -1.066884994506836
      ],
      "min": [
        -0.0313420295715332,
        -0.28618770837783813,
        -3.066884994506836
      ],
      "type": "VEC3"
    },
    {
      "bufferView": 2,
      "byteOffset": 22452,
      "componentType": 5126,
      "count": 1567,
      "max": [
        1.0,
        1.0,
        1.0
      ],
      "min": [
        -1.0,
        -1.0,
        -1.0
      ],
      "type": "VEC3"
    },
    {
      "bufferView": 1,
      "byteOffset": 1216,
      "componentType": 5126,
      "count": 1567,
      "max": [
        0.44196128845214844,
        0.5008090734481812
      ],
      "min": [
        0.44054538011550903,
        0.49919086694717407
      ],
      "type": "VEC2"
    },
    {
      "bufferView": 0,
      "byteOffset": 1008,
      "componentType": 5125,
      "count": 6039,
      "type": "SCALAR"
    },
    {
      "bufferView": 2,
      "byteOffset": 41256,
      "componentType": 5126,
      "count": 1583,
      "max": [
        1.9686579704284668,
        0.9183543920516968,
        -1.0668847560882568
      ],
      "min": [
        -0.0313420295715332,
        -0.28618794679641724,
        -3.066884756088257
      ],
      "type": "VEC3"
    },
    {
      "bufferView": 2,
      "byteOffset": 60252,
      "componentType": 5126,
      "count": 1583,
      "max": [
        1.0,
        1.0,
        1.0
      ],
      "min": [
        -1.0,
        -1.0,
        -1.0
      ],
      "type": "VEC3"
    },
    {
      "bufferView": 1,
      "byteOffset": 13752,
      "componentType": 5126,
      "count": 1583,
      "max": [
        0.44196128845214844,
        0.5008090734481812
      ],
      "min": [
        0.44054538011550903,
        0.49919086694717407
      ],
      "type": "VEC2"
    },
    {
      "bufferView": 0,
      "byteOffset": 25164,
      "componentType": 5125,
      "count": 6039,
      "type": "SCALAR"
    },
    {
      "bufferView": 2,
      "byteOffset": 79248,
      "componentType": 5126,
      "count": 205,
      "max": [
        1.0000009536743164,
        1.0000019073486328,
        25.766857147216797
      ],
      "min": [
        -0.9999989867210388,
        -0.9999980926513672,
        23.766855239868164
      ],
      "type": "VEC3"
    },
    {
      "bufferView": 2,
      "byteOffset": 81708,
      "componentType": 5126,
      "count": 205,
      "max": [
        0.9830623865127563,
        0.9830625057220459,
        0.9830631613731384
      ],
      "min": [
        -0.9830623865127563,
        -0.9830625057220459,
        -0.9830629229545593
      ],
      "type": "VEC3"
    },
    {
      "bufferView": 1,
      "byteOffset": 26416,
      "componentType": 5126,
      "count": 205,
      "max": [
        0.536091685295105,
        0.548122227191925
      ],
      "min": [
        0.4639083743095398,
        0.4518778324127197
      ],
      "type": "VEC2"
    },
    {
      "bufferView": 0,
      "byteOffset": 49320,
      "componentType": 5125,
      "count": 780,
      "type": "SCALAR"
    },
    {
      "bufferView": 2,
      "byteOffset": 84168,
      "componentType": 5126,
      "count": 384,
      "max": [
        1.0,
        1.0000019073486328,
        17.673877716064453
      ],
      "min": [
        -1.0,
        -0.9999980926513672,
        15.673877716064453
      ],
      "type": "VEC3"
    },
    {
      "bufferView": 2,
      "byteOffset": 88776,
      "componentType": 5126,
      "count": 384,
      "max": [
        1.0,
        1.0,
        1.0
      ],
      "min": [
        -1.0,
        -1.0,
        -1.0
      ],
      "type": "VEC3"
    },
    {
      "bufferView": 1,
      "byteOffset": 28056,
      "componentType": 5126,
      "count": 384,
      "max": [
        0.509615421295166,
        0.5128204822540283
      ],
      "min": [
        0.49038466811180115,
        0.4871795177459717
      ],
      "type": "VEC2"
    },
    {
      "bufferView": 0,
      "byteOffset": 52440,
      "componentType": 5125,
      "count": 564,
      "type": "SCALAR"
    },
    {
      "bufferView": 2,
      "byteOffset": 93384,
      "componentType": 5126,
      "count": 205,
      "max": [
        1.0000009536743164,
        1.0,
        25.766857147216797
      ],
      "min": [
        -0.9999989867210388,
        -1.0,
        23.766855239868164
      ],
      "type": "VEC3"
    },
    {
      "bufferView": 2,
      "byteOffset": 95844,
      "componentType": 5126,
      "count": 205,
      "max": [
        0.9830623865127563,
        0.9830625057220459,
        0.9830631613731384
      ],
      "min": [
        -0.9830623269081116,
        -0.9830625057220459,
        -0.9830629229545593
      ],
      "type": "VEC3"
    },
    {
      "bufferView": 1,
      "byteOffset": 31128,
      "componentType": 5126,
      "count": 205,
      "max": [
        0.536091685295105,
        0.548122227191925
      ],
      "min": [
        0.4639083743095398,
        0.4518778324127197
      ],
      "type": "VEC2"
    },
    {
      "bufferView": 0,
      "byteOffset": 54696,
      "componentType": 5125,
      "count": 780,
      "type": "SCALAR"
    },
    {
      "bufferView": 2,
      "byteOffset": 98304,
      "componentType": 5126,
      "count": 384,
      "max": [
        1.0,
        1.0,
        1.0
      ],
      "min": [
        -1.0,
        -1.0,
        -1.0
      ],
      "type": "VEC3"
    },
    {
      "bufferView": 2,
      "byteOffset": 102912,
      "componentType": 5126,
      "count": 384,
      "max": [
        1.0,
        1.0,
        1.0
      ],
      "min": [
        -1.0,
        -1.0,
        -1.0
      ],
      "type": "VEC3"
    },
    {
      "bufferView": 1,
      "byteOffset": 32768,
      "componentType": 5126,
      "count": 384,
      "max": [
        0.509615421295166,
        0.5128204822540283
      ],
      "min": [
        0.49038466811180115,
        0.4871795177459717
      ],
      "type": "VEC2"
    },
    {
      "bufferView": 0,
      "byteOffset": 57816,
      "componentType": 5125,
      "count": 564,
      "type": "SCALAR"
    },
    {
      "bufferView": 2,
      "byteOffset": 107520,
      "componentType": 5126,
      "count": 192,
      "max": [
        1.0,
        1.0,
        1.0
      ],
      "min": [
        -1.0,
        -1.0,
        -1.0
      ],
      "type": "VEC3"
    },
    {
      "bufferView": 2,
      "byteOffset": 109824,
      "componentType": 5126,
      "count": 192,
      "max": [
        0.9951847195625305,
        1.0,
        0.9951847195625305
      ],
      "min": [
        -0.9951847195625305,
        -1.0,
        -0.9951847195625305
      ],
      "type": "VEC3"
    },
    {
      "bufferView": 1,
      "byteOffset": 35840,
      "componentType": 5126,
      "count": 192,
      "max": [
        0.5664069056510925,
        0.5607428550720215
      ],
      "min": [
        0.4335930645465851,
        0.4292571544647217
      ],
      "type": "VEC2"
    },
    {
      "bufferView": 0,
      "byteOffset": 60072,
      "componentType": 5125,
      "count": 372,
      "type": "SCALAR"
    },
    {
      "bufferView": 2,
      "byteOffset": 112128,
      "componentType": 5126,
      "count": 192,
      "max": [
        1.0,
        1.0,
        1.0
      ],
      "min": [
        -1.0,
        -1.0,
        -1.0
      ],
      "type": "VEC3"
    },
    {
      "bufferView": 2,
      "byteOffset": 114432,
      "componentType": 5126,
      "count": 192,
      "max": [
        0.9951847195625305,
        1.0,
        0.9951847195625305
      ],
      "min": [
        -0.9951847195625305,
        -1.0,
        -0.9951847195625305
      ],
      "type": "VEC3"
    },
    {
      "bufferView": 1,
      "byteOffset": 37376,
      "componentType": 5126,
      "count": 192,
      "max": [
        0.5664069056510925,
        0.5607428550720215
      ],
      "min": [
        0.4335930645465851,
        0.4292571544647217
      ],
      "type": "VEC2"
    },
    {
      "bufferView": 0,
      "byteOffset": 61560,
      "componentType": 5125,
      "count": 372,
      "type": "SCALAR"
    }
  ],
  "asset": {
    "extras": {
      "author": "Kroko.blend (https://sketchfab.com/jaromir.ternavskiy)",
      "license": "CC-BY-4.0 (http://creativecommons.org/licenses/by/4.0/)",
      "source": "https://sketchfab.com/3d-models/fridge-c9b40de2e0154c8fb128e78c554ca48f",
      "title": "Fridge"
    },
    "generator": "Sketchfab-15.68.0",
    "version": "2.0"
  },
  "bufferViews": [
    {
      "buffer": 0,
      "byteLength": 63048,
      "name": "floatBufferViews",
      "target": 34963
    },
    {
      "buffer": 0,
      "byteLength": 38912,
      "byteOffset": 63048,
      "byteStride": 8,
      "name": "floatBufferViews",
      "target": 34962
    },
    {
      "buffer": 0,
      "byteLength": 116736,
      "byteOffset": 101960,
      "byteStride": 12,
      "name": "floatBufferViews",
      "target": 34962
    }
  ],
  "buffers": [
    {
      "byteLength": 218696,
      "uri": "scene.bin"
    }
  ],
  "images": [
    {
      "uri": "textures/Material_baseColor.jpeg"
    },
    {
      "uri": "textures/Material.001_baseColor.jpeg"
    },
    {
      "uri": "textures/Material.002_baseColor.jpeg"
    },
    {
      "uri": "textures/Material.003_baseColor.jpeg"
    }
  ],
  "materials": [
    {
      "doubleSided": true,
      "name": "Material",
      "pbrMetallicRoughness": {
        "baseColorTexture": {
          "index": 0
        },
        "metallicFactor": 0.300518,
        "roughnessFactor": 0.121762
      }
    },
    {
      "doubleSided": true,
      "name": "Material.001",
      "pbrMetallicRoughness": {
        "baseColorTexture": {
          "index": 1
        },
        "metallicFactor": 0.756477,
        "roughnessFactor": 0.5
      }
    },
    {
      "doubleSided": true,
      "name": "Material.002",
      "pbrMetallicRoughness": {
        "baseColorTexture": {
          "index": 2
        },
        "metallicFactor": 0.0,
        "roughnessFactor": 0.5
      }
    },
    {
      "doubleSided": true,
      "name": "Material.003",
      "pbrMetallicRoughness": {
        "baseColorTexture": {
          "index": 3
        },
        "roughnessFactor": 0.215026
      }
    }
  ],
  "meshes": [
    {
      "name": "Object_0",
      "primitives": [
        {
          "attributes": {
            "NORMAL": 1,
            "POSITION": 0,
            "TEXCOORD_0": 2
          },
          "indices": 3,
          "material": 0,
          "mode": 4
        }
      ]
    },
    {
      "name": "Object_1",
      "primitives": [
        {
          "attributes": {
            "NORMAL": 5,
            "POSITION": 4,
            "TEXCOORD_0": 6
          },
          "indices": 7,
          "material": 1,
          "mode": 4
        }
      ]
    },
    {
      "name": "Object_2",
      "primitives": [
        {
          "attributes": {
            "NORMAL": 9,
            "POSITION": 8,
            "TEXCOORD_0": 10
          },
          "indices": 11,
          "material": 0,
          "mode": 4
        }
      ]
    },
    {
      "name": "Object_3",
      "primitives": [
        {
          "attributes": {
            "NORMAL": 13,
            "POSITION": 12,
            "TEXCOORD_0": 14
          },
          "indices": 15,
          "material": 0,
          "mode": 4
        }
      ]
    },
    {
      "name": "Object_4",
      "primitives": [
        {
          "attributes": {
            "NORMAL": 17,
            "POSITION": 16,
            "TEXCOORD_0": 18
          },
          "indices": 19,
          "material": 1,
          "mode": 4
        }
      ]
    },
    {
      "name": "Object_5",
      "primitives": [
        {
          "attributes": {
            "NORMAL": 21,
            "POSITION": 20,
            "TEXCOORD_0": 22
          },
          "indices": 23,
          "material": 2,
          "mode": 4
        }
      ]
    },
    {
      "name": "Object_6",
      "primitives": [
        {
          "attributes": {
            "NORMAL": 25,
            "POSITION": 24,
            "TEXCOORD_0": 26
          },
          "indices": 27,
          "material": 1,
          "mode": 4
        }
      ]
    },
    {
      "name": "Object_7",
      "primitives": [
        {
          "attributes": {
            "NORMAL": 29,
            "POSITION": 28,
            "TEXCOORD_0": 30
          },
          "indices": 31,
          "material": 2,
          "mode": 4
        }
      ]
    },
    {
      "name": "Object_8",
      "primitives": [
        {
          "attributes": {
            "NORMAL": 33,
            "POSITION": 32,
            "TEXCOORD_0": 34
          },
          "indices": 35,
          "material": 3,
          "mode": 4
        }
      ]
    },
    {
      "name": "Object_9",
      "primitives": [
        {
          "attributes": {
            "NORMAL": 37,
            "POSITION": 36,
            "TEXCOORD_0": 38
          },
          "indices": 39,
          "material": 3,
          "mode": 4
        }
      ]
    }
  ],
  "nodes": [
    {
      "children": [
        1
      ],
      "matrix": [
        1.0,
        0.0,
        0.0,
        0.0,
        0.0,
        2.220446049250313e-16,
        -1.0,
        0.0,
        0.0,
        1.0,
        2.220446049250313e-16,
        0.0,
        0.0,
        0.0,
        0.0,
        1.0
      ],
      "name": "Sketchfab_model"
    },
    {
      "children": [
        2
      ],
      "name": "root"
    },
    {
      "children": [
        3,
        5,
        7,
        9,
        11,
        13,
        15,
        17,
        19,
        21
      ],
      "matrix": [
        1.0,
        0.0,
        0.0,
        0.0,
        0.0,
        2.220446049250313e-16,
        1.0,
        0.0,
        0.0,
        -1.0,
        2.220446049250313e-16,
        0.0,
        0.0,
        0.0,
        0.0,
        1.0
      ],
      "name": "GLTF_SceneRootNode"
    },
    {
      "children": [
        4
      ],
      "matrix": [
        1.3104074001312256,
        0.0,
        0.0,
        0.0,
        0.0,
        -2.865151882171598,
        -4.3262590781336085e-07,
        0.0,
        0.0,
        2.3743922402588864e-07,
        -1.5724889039993104,
        0.0,
        0.16255158185958862,
        2.9532053470611572,
        0.19178205728530884,
        1.0
      ],
      "name": "Cube_0"
    },
    {
      "mesh": 0,
      "name": "Object_4"
    },
    {
      "children": [
        6
      ],
      "matrix": [
        1.3104074001312256,
        0.0,
        0.0,
        0.0,
        0.0,
        -2.865151882171598,
        -4.3262590781336085e-07,
        0.0,
        0.0,
        2.3743922402588864e-07,
        -1.5724889039993104,
        0.0,
        0.08617032319307327,
        2.9532053470611572,
        0.19178205728530884,
        1.0
      ],
      "name": "Cube.001_1"
    },
    {
      "mesh": 1,
      "name": "Object_6"
    },
    {
      "children": [
        8
      ],
      "matrix": [
        -0.19642640650271323,
        0.0,
        6.400384937660908e-08,
        0.0,
        -0.0,
        2.519063711166382,
        0.0,
        0.0,
        -5.123819386094942e-07,
        0.0,
        -1.572488903999245,
        0.0,
        -1.1461492776870728,
        3.5117080211639404,
        -3.054936408996582,
        1.0
      ],
      "name": "Cube.002_2"
    },
    {
      "mesh": 2,
      "name": "Object_8"
    },
    {
      "children": [
        10
      ],
      "matrix": [
        -0.19642640650271323,
        0.0,
        6.400384937660908e-08,
        0.0,
        -0.0,
        2.2269797325134277,
        0.0,
        0.0,
        -5.123819386094942e-07,
        0.0,
        -1.572488903999245,
        0.0,
        -1.1461492776870728,
        0.7180001735687256,
        -3.054936408996582,
        1.0
      ],
      "name": "Cube.003_3"
    },
    {
      "mesh": 3,
      "name": "Object_10"
    },
    {
      "children": [
        12
      ],
      "matrix": [
        0.12194555997848511,
        0.0,
        0.0,
        0.0,
        0.0,
        0.27954500913619995,
        0.0,
        0.0,
        0.0,
        0.0,
        0.0658150315284729,
        0.0,
        -1.6211533546447754,
        4.156216144561768,
        -0.25842276215553284,
        1.0
      ],
      "name": "Cube.004_4"
    },
    {
      "mesh": 4,
      "name": "Object_12"
    },
    {
      "children": [
        14
      ],
      "matrix": [
        0.019988300278782845,
        0.0,
        0.0,
        0.0,
        0.0,
        0.3589227497577667,
        0.0,
        0.0,
        0.0,
        0.0,
        0.09775955229997635,
        0.0,
        -1.5242482423782349,
        4.156216144561768,
        -0.25842276215553284,
        1.0
      ],
      "name": "Cube.005_5"
    },
    {
      "mesh": 5,
      "name": "Object_14"
    },
    {
      "children": [
        16
      ],
      "matrix": [
        0.12194555997848511,
        0.0,
        0.0,
        0.0,
        0.0,
        0.27954500913619995,
        0.0,
        0.0,
        0.0,
        0.0,
        0.0658150315284729,
        0.0,
        -1.6211533546447754,
        1.46182382106781,
        -0.25842276215553284,
        1.0
      ],
      "name": "Cube.006_6"
    },
    {
      "mesh": 6,
      "name": "Object_16"
    },
    {
      "children": [
        18
      ],
      "matrix": [
        0.019988300278782845,
        0.0,
        0.0,
        0.0,
        0.0,
        0.3589227497577667,
        0.0,
        0.0,
        0.0,
        0.0,
        0.09775955229997635,
        0.0,
        -1.5242482423782349,
        1.46182382106781,
        1.3716082572937012,
        1.0
      ],
      "name": "Cube.007_7"
    },
    {
      "mesh": 7,
      "name": "Object_18"
    },
    {
      "children": [
        20
      ],
      "matrix": [
        0.05775148794054985,
        0.0,
        0.0,
        0.0,
        0.0,
        0.5516136884689331,
        0.0,
        0.0,
        0.0,
        0.0,
        0.05775148794054985,
        0.0,
        -1.1427167654037476,
        4.238537311553955,
        -1.335249423980713,
        1.0
      ],
      "name": "Cylinder_8"
    },
    {
      "mesh": 8,
      "name": "Object_20"
    },
    {
      "children": [
        22
      ],
      "matrix": [
        0.05775148794054985,
        0.0,
        0.0,
        0.0,
        0.0,
        0.5516136884689331,
        0.0,
        0.0,
        0.0,
        0.0,
        0.05775148794054985,
        0.0,
        -1.1427167654037476,
        1.4724836349487305,
        -1.335249423980713,
        1.0
      ],
      "name": "Cylinder.001_9"
    },
    {
      "mesh": 9,
      "name": "Object_22"
    }
  ],
  "samplers": [
    {
      "magFilter": 9729,
      "minFilter": 9987,
      "wrapS": 10497,
      "wrapT": 10497
    }
  ],
  "scene": 0,
  "scenes": [
    {
      "name": "Sketchfab_Scene",
      "nodes": [
        0
      ]
    }
  ],
  "textures": [
    {
      "sampler": 0,
      "source": 0
    },
    {
      "sampler": 0,
      "source": 1
    },
    {
      "sampler": 0,
      "source": 2
    },
    {
      "sampler": 0,
      "source": 3
    }
  ]
}
