<?xml version="1.0" encoding="UTF-8"?> <svg xmlns="http://www.w3.org/2000/svg" xmlns:cc="http://creativecommons.org/ns#" xmlns:dc="http://purl.org/dc/elements/1.1/" xmlns:rdf="http://www.w3.org/1999/02/22-rdf-syntax-ns#" viewBox="0 0 700 539.8" xml:space="preserve"><title>Engineers Doing Inspections of Construction Works</title><metadata></metadata><g transform="matrix(1.3333 0 0 -1.3333 0 539.8)"><g transform="scale(.055824)"><path d="m0 0h9404.5v7252.3h-9404.5z" fill="#fff"></path><g fill="#c8d8e5"><path d="m1654.4 4512.7h471.29v1639.6h-471.29zm551.29-80h-631.29v1799.6h631.29v-1799.6"></path><path d="m2106.9 4485.9c-5.46 0-11 1.23-16.22 3.84l-484.17 241.37 418.79 208.79-418.8 208.75 418.79 208.75-418.79 208.75 418.78 208.74-418.79 208.72 484.19 241.31c18.01 8.98 39.86 1.65 48.84-16.34 8.97-18.01 1.65-39.87-16.35-48.84l-353.4-176.13 418.8-208.72-418.8-208.74 418.79-208.75-418.8-208.75 418.79-208.75-418.8-208.79 353.43-176.19c17.99-8.97 25.31-30.84 16.34-48.84-6.37-12.78-19.25-20.18-32.62-20.18"></path><path d="m754.54 6246.3h3030.2v265.05h-3030.2zm3098.2-68.08h-3166.3v401.2h3166.3v-401.2"></path><path d="m1338 6191-206.65 260-206.66-260-234.05 294.47 54.805 43.56 179.24-225.53 206.66 260 206.64-259.99 206.62 260 206.64-260.01 206.66 260 206.63-260 206.66 260 206.66-260 206.68 260 206.69-260 206.68 260 206.7-260.01 206.71 260 234.13-294.46-54.8-43.56-179.33 225.54-206.71-260-206.7 260-206.68-260.01-206.69 260.01-206.68-260.01-206.66 260-206.66-260-206.63 260-206.66-260-206.64 260-206.61-260"></path><path d="m3187.5 4908.9h112.03v1268.4h-112.03zm182.03-70h-252.03v1408.4h252.03v-1408.4"></path><path d="m3278.1 3062.3h-70v1810h70v-1810"></path><path d="m1068.1 5122.3h-70.002v1090h70.002v-1090"></path><path d="m8628.1 3622.3v-520h-650v1210h-3120v-1210h-2650v1540h-1500v-1540h-390v-1620h8770v2140h-460"></path><path d="m755.5 4857.3h499.43v231.56h-499.43zm569.43-70h-639.43v371.56h639.43v-371.56"></path></g><g fill="#fff"><path d="m1109.9 4132.6h-194.99v194.99h194.99v-194.99"></path><path d="m1109.9 3771.4h-194.99v194.99h194.99v-194.99"></path><path d="m1109.9 3410.2h-194.99v194.99h194.99v-194.99"></path><path d="m7709.6 3929.1h-194.99v194.99h194.99v-194.99"></path><path d="m7709.6 3567.9h-194.99v194.99h194.99v-194.99"></path><path d="m7349.6 3929.1h-194.99v194.99h194.99v-194.99"></path><path d="m7349.6 3567.9h-194.99v194.99h194.99v-194.99"></path><path d="m7709.6 3206.7h-194.99v194.99h194.99v-194.99"></path></g><path d="m4793.2 694.14c-1267.6 0-2295.2 71.699-2295.2 160.14 0 73.278 705.53 135.06 1668.4 154.1-3.42-4-7.02-7.81-10.79-11.4-49.65-47.261-48.09-116.95 38.24-127.68h289.17s61.03 57.648 3.66 143.7c100.25 0.94 202.57 1.42 306.48 1.42 1267.6 0 2295.2-71.701 2295.2-160.14 0-88.441-1027.6-160.14-2295.2-160.14" fill="#dfd9d2"></path><path d="m3527.3 4565-139.39-833.97 135.07-171.05z" fill="#595d5e"></path><path d="m4436.1 1142.3h-1.82c-10.77 0-24.82-10.44-40.97-10.62-2.27 0-4.56-5.18-7.02-5.27-1.09 0-2.28-2.54-3.37-2.63-5.93-0.18-12.04-1.5-18.34-1.68-1.28 0-2.55-0.62-3.83-0.71-41.33-1-89.04-2.63-128.99-4-19.98-0.64-38.13-1.36-52.46-1.81l-11.01-0.18c-19.34-0.64-40.21-1.19-40.21-1.19v0.09l-90.52 894.55 4.14 1.64-12.39 126.35-62.75 587.49-18.56-606.15-30.15-975.88h-344.82l36.67 1096.5 7.02 210.02 17.33 515.98 1.83 50.96 0.73 33.96 0.09 3.2 2.92 123.34 1.46 63.41 1.55-4.92 645.23-22.43h1l7.3-160.2 0.18-2.79 1.37-31.26-1.95-55.37 22.32-534.38v-0.36l27.49-225.69 11.1-90.5 6.65-44.15 83.28-778.6 2.55-8.9s58.1-137.8-13.05-137.8" fill="#412216"></path><path d="m4527.6 4460c26.34 135.66-65.97 268.83-204.16 268.83l-532.31 1.45c-100.62 0-248.64-91.43-241.39-191.8l91.32-1300.8 0.02 0.95 1.55-4.38 645.24-21.94h3.26l236.47 1247.7" fill="#e4e8ed"></path><path d="m4293.9 3102.3-5.02 110 5.02-110m-656.01 0h-0.32l2.07 74.09 1.42 61.59v-0.02l-1.42-61.72-1.75-73.94m649.99 110-0.42 0.01h0.02l0.4-0.01" fill="#a5a5a4"></path><path d="m4304.1 2875.1-4.69 0.2-3.65 87.33 1.94 55.15 6.4-142.68m-672 31.56 5.45 195.59h0.32l-1.17-49.4-0.09-3.2-0.73-33.96-1.83-50.96-1.95-58.07m664.08 145.08-0.02 0.31-2.28 50.2 2.28-50.06 0.02-0.45" fill="#7d8994"></path><path d="m4299.4 2875.3-667.36 29.28 0.05 2.08 1.95 58.07 1.83 50.96 0.73 33.96 0.09 3.2 1.17 49.4 1.75 73.94 1.42 61.72 0.02-0.29 0.02 0.95 1.55-4.38 644.81-21.93 0.42-0.01h1l5.02-110 2.28-50.2 0.02-0.31 1.52-33.96-1.94-55.15 3.65-87.33" fill="#2a1913"></path><path d="m4287.5 3212.3h-0.02l-644.81 21.93-1.55 4.38-0.02-0.95-0.02 0.29v0.02l0.04 1.74 1.55-4.95 644.83-22.46" fill="#909497"></path><path d="m4571.2 4476.6-99.57-1536.1-347.54 11.99 94.59 1779.7h130.48c131.9 0 244.04-125.64 222.04-255.64" fill="#777d7c"></path><path d="m3818.4 4729.8 99.45-1754.8-384.57 26.23-9.72 1506c-8.75 119.32 85.24 221.15 204.87 221.97l89.97 0.62" fill="#777d7c"></path><path d="m3818.4 4730.4-141.49-433.17 83.92-172.17-65.53-197.24 147.03-757.79-23.93 1560.4" fill="#8f8f8f"></path><path d="m4218.6 4730-78.65-1521.8 179.99 726.34-74.27 185.2 86.75 207.84-113.82 402.38" fill="#8f8f8f"></path><path d="m3948.1 4732.3h230v170h-230z" fill="#e9856c"></path><path d="m3956.3 4790.8c-2.79 0-5.52 0.02-8.19 0.05v97.74c22.26-7.57 46.08-11.68 70.82-11.68h101.78c19.83 0 39.08 2.64 57.4 7.59v-35.21c-76.44-50.02-162.01-58.49-221.81-58.49" fill="#bb7261"></path><path d="m4018.9 4877h101.78c121.86 0 221.56 99.7 221.56 221.56v325.19c0 121.86-99.7 221.55-221.56 221.55h-101.78c-121.85 0-221.55-99.69-221.55-221.55v-325.19c0-121.86 99.7-221.56 221.55-221.56" fill="#e9856c"></path><path d="m4286.9 5275c0-48.46 31-87.75 69.23-87.75 38.24 0 69.24 39.29 69.24 87.75 0 48.47-31 87.75-69.24 87.75-38.23 0-69.23-39.28-69.23-87.75" fill="#e9856c"></path><path d="m4181.8 5351.7c0-32.49-12.7-58.83-28.36-58.83s-28.35 26.34-28.35 58.83 12.69 58.83 28.35 58.83 28.36-26.34 28.36-58.83" fill="#232e3e"></path><path d="m3932.4 5351.7c0-32.49-12.69-58.83-28.35-58.83s-28.36 26.34-28.36 58.83 12.7 58.83 28.36 58.83 28.35-26.34 28.35-58.83" fill="#232e3e"></path><path d="m4024 5144.3c-41.1 0-55.79 34.99-55.79 34.99h138.74c-35.24-26.25-62.4-35-82.95-34.99" fill="#7d5956"></path><path d="m4190 5433.4h-75.14c-9.89 0-17.9 8.01-17.9 17.89s8.01 17.89 17.9 17.89h75.14c9.88 0 17.89-8.01 17.89-17.89s-8.01-17.89-17.89-17.89" fill="#373946"></path><path d="m3943.1 5433.4h-78.73c-9.88 0-17.89 8.01-17.89 17.89s8.01 17.89 17.89 17.89h78.73c9.88 0 17.89-8.01 17.89-17.89s-8.01-17.89-17.89-17.89" fill="#373946"></path><g fill="#412216"><path d="m4342.1 5518.2v-397.93h-44.22v467.96l44.22-70.03"></path><path d="m3817.8 5590v-467.97l-30.02-9.92 1.39 439.11 28.63 38.78"></path><path d="m4342.3 5122.1h-553.89s-24.76-239.45 215.68-260.32c255.12-22.16 338.21 52.77 338.21 260.32"></path></g><path d="m4176.1 5089.9h-258.22s139.14-211.12 258.22 0" fill="#fff"></path><path d="m3860.8 1142.2-0.78-216.52-525.48 1.981c0.66 75.648 52.98 99.028 72.94 105.22l0.28 0.08 7.15 1.82 0.24 0.03 58.86 15.02 183.41 92.37h203.38" fill="#2a181e"></path><g fill="#1c1415"><path d="m3859.8 869.13-525.47 1.992 0.17 56.559 525.47-1.989-0.17-56.562"></path><path d="m3539 1012.6c-2.48-2.96-6.92-3.36-9.87-0.88l-32.24 26.97c-2.96 2.48-3.35 6.92-0.88 9.87 2.47 2.96 6.91 3.35 9.87 0.88l32.24-26.98c2.95-2.47 3.35-6.91 0.88-9.86"></path><path d="m3585.4 1032.8c-2.47-2.95-6.91-3.35-9.87-0.87l-32.24 26.98c-2.95 2.47-3.35 6.91-0.88 9.87 2.48 2.95 6.92 3.35 9.87 0.87l32.24-26.98c2.96-2.47 3.35-6.91 0.88-9.87"></path><path d="m3631.8 1053.1c-2.48-2.96-6.92-3.35-9.87-0.88l-32.24 26.98c-2.96 2.47-3.35 6.91-0.88 9.86 2.47 2.96 6.91 3.35 9.87 0.88l32.24-26.98c2.95-2.47 3.35-6.91 0.88-9.86"></path></g><path d="m4223.8 1130.5s-18.48-86.29-68.13-133.54c-49.65-47.261-48.09-116.95 38.24-127.68h289.17s63.54 60.031 0 149l-72.56 117.16-186.72-4.94" fill="#2a181d"></path><path d="m4440.5 1000.6c-38.7 14.19-76.53 18.92-109.79 18.92-66.49 0-114.66-18.92-114.66-18.92 45.16 62.57 85.14 83.42 118.39 83.42 66.5 0 106.06-83.42 106.06-83.42" fill="#432f38"></path><path d="m4511.3 857.39h-386.56v58.679h386.56v-58.679" fill="#1c1415"></path><path d="m3941 4561h156.21l6.9 168.84h-163.11v-168.84" fill="#327f8a"></path><path d="m4067.1 4561.5 9.84-1019.3-94.28-128.18-84.78 128.18 84.78 1022.7 84.44-3.43" fill="#327f8a"></path><path d="m3787.6 5519.8s-82.65 235.19 15.15 265.53c97.81 30.34-17.91 149.15 221.15 48.01 99.51-42.1 209.21-62.16 213.19-53.95 17.97 37.09 255.44-137.59 147.55-416.05l-60.52-6.72 16.1 145.33s-492.24-5.75-552.62 17.85" fill="#412216"></path><path d="m4340.3 5520.6s-135.88-23.64-243.34 49.79c-107.46 73.42-360.57 200.6-334.16 91.03s56.63-144.45 56.63-144.45 331.47-36.05 520.87 3.63" fill="#2e1b14"></path><path d="m2771.7 4230s484.44-708.48 670.6-696.04c0 0 143.89-15.65 69.77 154.83-74.11 170.47-628.42 672.67-628.42 672.67l-111.95-131.46" fill="#595d5e"></path><path d="m4728 3556.7c-72.43-19.98-147.42 22.53-167.4 95.05l-270.93 982.31c-8.03 28.92 4.83 86.11 33.75 94.14l73.43-1.37c22.81 0.46 47.44-2.28 70.89-8.48 48.62-13.14 92.5-41.78 106-90.68l176.34-639.39 72.88-264.19c19.98-72.43-22.53-147.41-94.96-167.39" fill="#777d7c"></path><path d="m2771.7 4230 49.91-70.85 122.02 147.09-59.98 55.22-111.95-131.46" fill="#fff"></path><path d="m4557.6 3847-5.1-167-7.4-239.2-19.37-390.8-1068.1 92.14 37.61 310.16 7.7 227.7 5.7 165.6c9.1 31 20.1 70.7 32.2 116.2 17.9 66.8 38.2 146 59 228.2 67.8 268.7 135.36 551.03 135.36 551.03l107.14 2.3s-2.9-343.33 198.5-340.93c201.3 2.4 195.03 337.55 195.03 337.55l113.12 0.05 127.75-550 56.4-239.1 24.5-103.9" fill="#efef2e"></path><path d="m4533.2 3952-992.3 11.47c17.9 66.8 38.2 148.78 59 228.78h876.9l56.4-240.25" fill="#a1a1a0"></path><path d="m4552.6 3682.3-7.4-240.35-1049.9 12.07 7.7 228.28h1049.6" fill="#a1a1a0"></path><path d="m5668.7 3671.9c-0.51-2.22-0.97-4.35-1.51-6.44-3.81-15.27-8.66-27.28-14.27-36.61-39.28-65.69-114.67 0.79-114.67 0.79-11.05 18.62-23.52 44.69-36.82 75.81-86.86 202.83-210.07 622.22-210.07 622.22l128.4 61.66s103.63-208.85 177.81-406.62c48.2-128.27 83.97-251.86 71.13-310.81" fill="#818283"></path><path d="m6145.8 4806.5 1.67-173.92-87.32-2.92c-35.56 3.47-68.82 7.86-99.15 12.63 18.91 53.38-0.67 118.57-7.37 137.9-264.49 116.06-195.5 528.16-195.5 528.16 28.87 281.44 501.84 23.22 501.84 23.22 44.69-321.11-36.06-462.69-114.17-525.07" fill="#612e1d"></path><path d="m6028 4842.9c-7.66-69.91-29.46-120.45-59.03-155.38 1.25 40.33-10.42 78.61-15.28 92.67-228.64 100.32-208.1 421.85-198.31 507.2 104.05-98.2 288.85-295.5 272.62-444.49" fill="#4f241a"></path><path d="m6147.5 4632.6-87.32-2.92-106.39-3.56c2.85 5.23 5.23 10.63 7.24 16.19 18.91 53.38-0.67 118.57-7.37 137.9-1.25 3.64-2.05 5.64-2.05 5.64l194.09 33.64 0.13-12.97 1.67-173.92" fill="#f8a79c"></path><path d="m5966.6 4726.2c-0.01 0.01-0.01 0.01-0.02 0.01-3.41 24.22-9.63 44.3-12.9 53.77 3.27-9.47 9.5-29.55 12.92-53.78" fill="#45261e"></path><path d="m6029 4713.6c-18.11 0-38.79 3.7-62.35 12.59-3.42 24.23-9.65 44.31-12.92 53.78l0.3 0.04c22.37-9.83 47.1-17.52 74.48-22.64 0 0 54.37 1.54 111.86 44.89l0.39-9.23c-11.2-25.74-42.83-79.43-111.76-79.43" fill="#cc908a"></path><path d="m6145.8 4806.5c-59.46-47.48-117.32-49.12-117.32-49.12-27.53 5.15-52.38 12.89-74.85 22.81-264.49 116.06-195.5 528.16-195.5 528.16 28.87 281.44 501.84 23.22 501.84 23.22 44.69-321.11-36.06-462.69-114.17-525.07" fill="#f8a79c"></path><path d="m5840.8 5162.1c0.23-35.62 14.33-64.4 31.5-64.29s30.9 29.07 30.67 64.69-14.33 64.4-31.5 64.29-30.9-29.07-30.67-64.69" fill="#232e3e"></path><path d="m6081.6 5167.5c0.22-34.26 13.79-61.95 30.3-61.85 16.52 0.11 29.73 27.97 29.51 62.23-0.22 34.27-13.79 61.96-30.31 61.85-16.51-0.11-29.72-27.97-29.5-62.23" fill="#232e3e"></path><path d="m5988.6 5023c-17.69 0-59.91 1.89-53.94 20.19 1.58 4.87 5.24 6.78 10.02 6.78 17.87 0 51.47-26.84 51.47-26.84s-2.94-0.13-7.55-0.13" fill="#6a5962"></path><path d="m5893.7 5042.9c0.15-22.59-18.05-41.03-40.64-41.17-22.59-0.15-41.03 18.05-41.17 40.64-0.15 22.59 18.05 41.02 40.64 41.17 22.59 0.14 41.03-18.05 41.17-40.64" fill="#f58580"></path><path d="m6169.8 5044.7c0.14-22.6-18.06-41.03-40.65-41.17-22.59-0.15-41.02 18.05-41.17 40.64-0.14 22.59 18.05 41.02 40.65 41.17 22.59 0.14 41.02-18.05 41.17-40.64" fill="#f58580"></path><path d="m5953.6 4780.2c-228.64 100.32-208.1 421.85-198.31 507.2 14.14 39.85-2.48 90.81-14.19 100.89-6.86 5.86-44.03-1.66-44.03-1.66s-43.06-715.34 59.44-751.69c51.67-18.33 114.42-17.79 166.89 13.72 11.92-2.18 24.47-4.31 37.57-6.36 5.19 14.6 7.49 30.04 7.91 45.23 1.25 40.33-10.42 78.61-15.28 92.67" fill="#53251a"></path><path d="m5798.2 5574.1c-167.03-1.08-39.5-218.31-39.5-218.31 131.86 167.77 351.16 56.83 351.16 56.83s-144.63 162.56-311.66 161.48" fill="#7f3b26"></path><path d="m6427.7 4641.3c-21.46-4.73-45.1-8.62-71.17-11.43-12.38-1.33-24.72-2.51-36.98-3.47-82.34-6.48-161.41-4.81-232.49 0.88-9.08 0.75-18.08 1.55-26.91 2.39l27.28 0.92 60.04 2-7.31 173.92c45.31 36.15 87.92 98.95 107.92 207.94v0.08c0 40.29 18.68 86.9 19.02 140.83-0.8 27.94-44.33 122.54-85.29 201.15-1.3 2.51-1.23 5.02-2.53 7.49-31.09 59.29-57.32 107.32-57.32 107.32-19 25.1-38.35 52.59-58.06 83.72-16.65 26.23-36.26 49.95-58.06 70.37 24.56-7.41 169.37-49.5 262.7-45.78 102.21 4.15 67.56-178.16 176.4-387.29 123.59-237.46 123.9-181.49 175.86-311.02 14.73-36.74 37.97-188.94-193.1-240.02" fill="#7f3b26"></path><path d="m6427.7 4641.3c-21.46-4.73-45.1-8.62-71.17-11.43-12.38-1.33-24.72-2.51-36.98-3.47-82.34-6.48-161.41-4.81-232.49 0.88 0.08 1.09 0.25 2.18 0.37 3.31l56.18 2-5.53 173.92v0.38c50 36.06 95.1 102.81 117.24 211.09l4.02 4.28h0.05l-11.31-7.73v-0.08c0-11.8-2.48-144.55 64.04-194.59 53.97-40.58 118.42-110.41 115.58-178.56" fill="#53251a"></path><path d="m5920.6 5252.7c-1.5 0-2.98 0.65-3.99 1.91-27.46 34.23-88.26 18.29-88.86 18.11-2.75-0.71-5.53 0.88-6.27 3.6-0.74 2.73 0.87 5.53 3.59 6.28 2.76 0.74 67.84 17.88 99.52-21.59 1.77-2.2 1.41-5.42-0.79-7.19-0.95-0.75-2.07-1.12-3.2-1.12" fill="#232e3e"></path><path d="m6166 5254.3c-1.5 0-2.99 0.66-4 1.92-27.51 34.29-88.24 18.28-88.85 18.11-2.73-0.74-5.53 0.87-6.28 3.59-0.73 2.73 0.87 5.54 3.6 6.28 2.75 0.74 67.84 17.88 99.51-21.59 1.77-2.2 1.42-5.42-0.79-7.19-0.94-0.75-2.07-1.12-3.19-1.12" fill="#232e3e"></path><path d="m5668.7 3671.9c12.84 58.95-22.93 182.54-71.13 310.81 20.5 55.52 33.81 89.7 33.81 89.7l152.29-108.19-116.48-298.76c0.54 2.09 1 4.22 1.51 6.44" fill="#6b6c6e"></path><path d="m5915.4 1056.2-16.16-66.931 0.67-103.85-36.54-0.242-0.67 103.85-65.26-94.429-253.96 8.808-0.27 41.782 142.21 46.847c70.21 47.472 88.98 203.21 88.98 203.21l114.9 0.74 26.1-139.79" fill="#172232"></path><path d="m6311 3649.7-15.01 235.91s13.67 21.73 19.27 118.96l62.9 99.11-66.1 530.5-114.9-0.74-2.4 0.12-357.55-13.16c-10.17-0.38-19.53-5.56-25.22-13.99-26.41-39.07-105.73-160.82-187.07-329.03-89.13-184.34 95.96-301.89 95.96-301.89l0.11-0.28 6.73-122.4c-2.11-71.78-12.9-176.01-45.8-315.93l115.93-3.02 531.97-34.15-18.82 149.99" fill="#777d7c"></path><path d="m5915.2 4624.8-17.94-459.75 268.59 468.15z" fill="#fff"></path><path d="m6305 4634.2s191.92 40.9 226.84-57.62l224.74-834.23s4.34-132.29-83.16-63.21c-87.49 69.08-254.93 656.46-254.93 656.46l-40.31-230.08-73.18 528.68" fill="#777d7c"></path><path d="m6067.6 3833.2c-142.67 0-329.11 38.98-346.69 142.75 0 0 109.51-33.89 237.27-33.89 141.15 0 304.58 41.33 367.43 215.37l35.91 68.39 7.04-50.85c-38.86-125.86-100.23-295.08-155.9-321.2-27.64-12.98-82.09-20.57-145.06-20.57" fill="#646c71"></path><path d="m6368.5 4175-7.04 50.85 46.65 88.83s-15.46-61.47-39.61-139.68" fill="#646c71"></path><path d="m6262 1058.4-24.71-66.978 0.67-103.85-18.27-0.121-0.67 103.85-65.27-94.429-253.95 8.808-0.27 41.781 141.64 46.848c70.2 47.461 88.4 203.19 88.4 203.19l114.9 0.74 17.53-139.84" fill="#172232"></path><path d="m5897.3 4163.3 228.52 200.86-11.92 73.5 82.5 11.43-1.19 184.37-29.34-0.19-268.57-469.97" fill="#d7d8d5"></path><path d="m5894.3 4622.4-82.5-166.5 52.5-40.86-51.83-62.72 84.78-188.5 21.21 461.17-24.16-2.59" fill="#d7d8d5"></path><path d="m5638.2 3703.1c7.6 74.5 9.3 143.3 7.7 204.9l-0.1 2c-0.2 7.4-0.4 14.7-0.7 21.9-0.1 3.6-0.3 7.1-0.5 10.6-0.2 4.1-0.4 8.2-0.6 12.2l-0.6 8.4c-0.2 3.4-0.4 6.7-0.7 10.1-0.4 7.3-1 14.4-1.6 21.4-16.2 38.5-32.4 76.9-48.6 115.4-0.6 1.5-1.3 3-1.9 4.5-1.9 4.5-3.8 9-5.7 13.5-15.2 36-13.1 77 5.6 111.2l127.7 233.5 138.4 152.3 51.2 4.7c-9.5-70-77.9-290.65 1.5-324.05 72.1-30.4 236.4 56.65 358.7 336.65h98.1c-15.98-70-34.18-166.14-30.69-277.82 3.1-99.47 22.64-185.12 32.64-249.98v-1.3l4.12-3.2 2.12-5.2 16.58-194.8-2.82-2v-0.3l25.42-204.8 2.82-2.9 21.2-200 1-3.5 18.46-181.5-896.28 35c14.7 43 29.46 92 42.56 146.6 0.3 1.1 0.54 2.2 0.84 3.4 3.1 13 6.01 26.4 8.91 40.1 0.3 1.5 0.61 3 0.91 4.6 5.4 26.6 10.5 54.4 14.8 83.3 2.8 18.1 5.21 36.7 7.41 55.5 0.3 2.7 0.6 5.9 1 8.8 0.2 1.4 0.3 2.8 0.4 4.2l0.2 1.8 0.2 1.7c0.1 1.1 0.2 2.1 0.3 3.1" fill="#efef2e"></path><path d="m6438.6 3502.3h-835.2c3.3 10 6.6 24.75 9.7 38.95 0.3 1.5 0.6 2.42 0.9 4.02 5.5 25.8 10.5 53.62 14.8 83.02 2.8 18.1 5.2 36.55 7.4 55.35 0.3 2.7 0.6 5.83 1 8.73 0.2 1.4 0.3 2.76 0.4 4.16l0.2 2.94c0.2 1.1 0.4 2.83 0.5 2.83h780.1l20.2-200" fill="#a1a1a0"></path><path d="m6396 3912.3h-750c-0.3 10-0.7 20.85-1.3 31.35-0.5 10.4-1.1 20.02-1.9 30.12-0.5 6.7-1 14.27-1.6 21.07-16.8 40-33.7 77.46-50.5 117.46h785.6l0.1-5.2 19.6-194.8" fill="#a1a1a0"></path><path d="m6683.9 3668.8-451.58 373.15 72.65 73.59s448.18-250.43 451.51-362.7c3.34-112.28 3.37-117.5-72.58-84.04" fill="#818283"></path><path d="m5287.2 4449.6 21.4 67.88-259.09 35.33 17.94-155.61 187.66-49.4 36.22-20.18 130.02 61.7-134.15 60.28" fill="#da8279"></path><path d="m5345.2 4352.7c-88.85 9.38-76.07 118.63-76.07 118.63-89.66 25.62-76.85 67.25-76.85 67.25l176.12-32.03 52.91-117.28-76.11-36.57" fill="#f8a79c"></path><g fill="#e34e50"><path d="m5895.2 4969 235.6 1.51-235.6-1.51c11.64-29.78 24.19-51.78 37.2-67.69l21.64 5.46s50.45-36.4 119.71 0.17l24 0.15c22.92 18.37 33.05 63.42 33.05 63.42-142.85-91.21-235.6-1.51-235.6-1.51"></path><path d="m5933.4 4900c8.69-10.38 17.58-18 26.55-23.35-9 5.55-17.91 13.22-26.55 23.35"></path><path d="m5964.9 4873.9c-1.12 0.6-2.25 1.2-3.38 1.86 1.13-0.63 2.25-1.29 3.38-1.86"></path></g><path d="m6130.8 4970.5-235.6-1.51s92.75-89.7 235.6 1.51" fill="#fff"></path><path d="m5954 4906.8-21.64-5.46-0.1-0.03 1.16-1.29c8.64-10.13 17.55-17.8 26.55-23.35l1.52-0.88c1.13-0.66 2.26-1.26 3.38-1.86 65.04-34.71 132.84 33.19 132.84 33.19l-24-0.15c-69.26-36.57-119.71-0.17-119.71-0.17" fill="#fff"></path><path d="m3733.5 5583.9 1.58-5.3 6.32-21.22 12.08-40.4c3.82-12.55 15.29-21.44 28.73-22.14l491.74-28.43c10.21-0.58 20.17 3.7 26.62 11.43l25.78 48.49 2.7 5.15-21.33 1.89-574.22 50.53" fill="#ae6c1e"></path><path d="m3612.3 5617.1c-0.48-13 17.52-25.96 49.86-37.95 20.8-7.72 47.67-15.06 79.26-21.77 3-0.72 6-1.33 9.22-1.95 81.53-16.61 192.77-28.97 315.56-33.47 86.83-3.19 168.08-2.04 237.46 2.68 7.74 0.53 15.28 1.06 22.71 1.69 40.1 3.27 75.54 7.72 105.08 13.4 58.55 10.97 93.65 26.02 94.3 43.86 0.13 3.42-1 6.79-3.28 10.1-12.48 18.22-59.54 35.79-129.26 50.25-72.92 15.28-170.81 27.15-279.99 32.87l-0.21 0.01c-8.96 0.43-18.13 0.87-27.3 1.2-4.59 0.27-9.17 0.44-13.76 0.61-53.89 1.97-105.66 2.26-153.71 1.1-62.37-1.55-118.68-5.54-165.35-11.59-5.66-0.7-11.22-1.51-16.47-2.22-64.01-9.36-107.3-22.8-120.11-39.08-2.52-3.14-3.89-6.41-4.01-9.74" fill="#ae6c1e"></path><path d="m3736.5 5753.8-4.29-116.84c99.19-23.99 210.44-46.35 349.54-49.97 124.45-3.23 229.38 9.76 320.01 25.41l4.29 116.83c0.28 7.52-2.69 13.87-3.08 21.26-0.58 9.49-3.54 19.68-5.21 28.85-19.78 108.76-117.18 193.19-236.12 197.56l-165.04 6.05c-136.69 5.02-255.25-96.98-260.1-229.15" fill="#f9a72c"></path><path d="m3613.1 5636.8c1.58 43.26 207.35 70.83 459.59 61.57 252.24-9.25 455.43-51.83 453.84-95.09-1.02-27.72-85.95-48.97-213.15-58.25l-20.78-43.57c-6.39-7.74-16.28-12-26.52-11.43l-479.2 26.7c-12.12 0.68-22.8 7.97-27.53 18.79l-18.25 41.79c-79.88 17.07-128.79 38.19-128 59.49" fill="#f9a72c"></path><path d="m4403.6 5661.7c-61.19 13.43-141.46 24.44-232.02 31.21 94.45 28.05 176.28 62.87 225.2 85.7 1.66-9.18 5.64-18.63 6.22-28.12 0.37-7.04 3.08-13.14 3.1-20.21 0-0.35-0.01-0.7-0.02-1.05l-2.48-67.53" fill="#be7f1e"></path><path d="m4120 5586.5c-12.53 0-25.27 0.16-38.21 0.5-139.1 3.62-250.35 25.98-349.54 49.97l1.36 36.95c49.76-18.95 105.12-26.7 162.43-26.7 92.09 0 189.12 20.02 275.55 45.7 90.56-6.77 170.83-17.78 232.02-31.21l-1.81-49.3c-81.2-14.02-173.88-25.91-281.8-25.91" fill="#be7f1e"></path><path d="m3952.1 5595.2v0.01l0.65-0.09z" fill="#ae6c1e"></path><path d="m4115.2 5998.7 21.37-20.94c-43.52-108.88-17.79-391.05-17.79-391.05-8.06-0.4-16.86-0.54-26.05-0.5-2.52 24.49-32.32 327.38 22.47 412.49" fill="#ae6c1e"></path><path d="m3944.7 5979.7c6.01 15.82 21.77 24.42 39.29 23.78l4.52-0.17 125.46-4.6 1.25-0.04c-54.9-88.05-24.99-388-22.47-412.49 0.1-1.03 0.18-1.75 0.18-1.75-40.31-0.44-79.18 4.01-109.44 7.14-11.75 1.2-22.03 2.45-30.75 3.59l-0.65 0.09c-17.31 2.29-27.81 4.14-27.81 4.14-21.75 232.24 3.45 335.94 20.42 380.31" fill="#e08e22"></path><path d="m5705.3 5401.5 1.71-5.25 6.86-20.97 13.1-39.92c4.14-12.4 15.53-20.87 28.54-21.07l475.98-10.39c9.87-0.2 19.35 4.44 25.3 12.4l23.19 49.41 2.42 5.24-20.67 1.11-556.43 29.44" fill="#ae6c1e"></path><path d="m5587 5430.2c0-13.01 17.85-25.3 49.51-36.09 20.36-6.96 46.57-13.31 77.33-18.86 2.92-0.6 5.85-1.1 8.97-1.61 79.35-13.61 187.22-21.88 305.99-21.88 83.99 0 162.43 4.14 229.27 11.4 7.46 0.8 14.72 1.61 21.88 2.52 38.61 4.73 72.69 10.48 101.02 17.24 56.16 13.1 89.53 29.44 89.53 47.28 0 3.43-1.21 6.76-3.53 9.98-12.7 17.75-58.78 33.58-126.63 45.47-70.98 12.61-165.95 20.87-271.61 22.59h-0.2c-8.68 0.1-17.55 0.2-26.42 0.2-4.44 0.1-8.87 0.1-13.31 0.1-52.12 0-102.13-1.61-148.51-4.54-60.19-3.83-114.43-9.88-159.3-17.64-5.44-0.91-10.78-1.92-15.82-2.83-61.51-11.69-102.84-26.71-114.64-43.45-2.32-3.22-3.53-6.55-3.53-9.88" fill="#ae6c1e"></path><path d="m5698.1 5571.4v-116.91c90-20.35 201.1-38.61 335.59-37.12 120.33 1.33 224.41 18.16 304.41 37.12v116.91c0 7.52 2.74 13.76 2.1 21.13-0.89 9.46-1.21 20.69-3.14 29.8-22.96 107.95-117.12 189.91-232.15 189.91h-159.63c-132.21 0-247.18-108.58-247.18-240.84" fill="#f9a72c"></path><path d="m5587.1 5450c0 43.29 197.78 78.39 441.74 78.39 243.97 0 441.75-35.1 441.75-78.39 0-27.74-81.29-52.09-203.82-66.02l-18.53-44.3c-5.9-7.98-15.3-12.6-25.21-12.4l-463.81 9.11c-11.73 0.23-22.31 7.12-27.26 17.76l-19.11 41.1c-77.76 14.13-125.75 33.44-125.75 54.75" fill="#f9a72c"></path><path d="m6338.1 5506c-59.08 10.28-134.37 17.64-218.43 20.76 90.19 31.46 168.05 69.16 214.4 93.71 1.93-9.1 5.24-18.41 6.13-27.87 0.06-0.74 0.09-1.48 0.09-2.21 0.02-6.44-2.19-12.16-2.19-18.92v-65.47" fill="#be7f1e"></path><path d="m6018.4 5417.3c-127.63 0-233.71 17.64-320.26 37.21v36.97c41.85-14.88 87.65-21.14 135.15-21.14 95.1 0 196.85 25.12 286.42 56.37 84.06-3.12 159.35-10.48 218.43-20.76v-51.44c-80-18.96-184.08-35.79-304.41-37.12-5.15-0.06-10.26-0.09-15.33-0.09" fill="#be7f1e"></path><path d="m5916 5420.8v0.01l0.63-0.06z" fill="#ae6c1e"></path><path d="m6059.3 5830 21.38-20.14c-38.18-110.41-3.33-391.44-3.33-391.44-7.77-0.69-16.26-1.16-25.14-1.45-3.3 24.38-42.82 325.98 7.09 413.03" fill="#ae6c1e"></path><path d="m5895.2 5805.9c5.25 16.03 20.17 26.35 37.11 26.35h126.93c-49.91-90-10.39-389.8-7.09-414.18 0.14-1.03 0.24-2.33 0.24-2.33-38.92-1.91-76.63 0.83-105.97 2.84-11.39 0.77-21.36 1.5-29.83 2.33l-0.63-0.01c-16.8 1.65-27.01 3.65-27.01 3.65-29.23 231.29-8.57 336.38 6.25 381.35" fill="#e08e22"></path><path d="m4245.6 3965 352.84-376.03c45.1-42.94 113.83-49.96 166.07-17.3 50.84 31.78 74.91 94.15 58.52 152.47-176.68 121.42-335.17 294.48-511.85 415.89l-65.58-175.03" fill="#929292"></path><path d="m2639.5 4702.8 1474-200.06 264.4-1113-1383 216.95-355.36 1096.1" fill="#dfe1e3"></path><path d="m4311.2 4140-132.94 108.55s-139.71 23.92-155.89-11.08c0 0-128.67-97.5 91.33-190l149.24-36.28 48.26 128.81" fill="#e9856c"></path><path d="m2771.7 4230-65.87 155.72c-14.24 33.67-3.46 73.03 26.49 94 32.11 22.49 70.89 42.81 87.15 24.33 30-34.11 87.79-134-47.77-274.05" fill="#e9856c"></path><path d="m5124.7 4021.9 552.85-59.23-36.75 774.76-568.94 33.42 52.84-748.95" fill="#dfe1e3"></path><g fill="#f8a79c"><path d="m5096 4527.2h-40.93c-8.89 0-16.15 7.27-16.15 16.15v1.7c0 8.88 7.26 16.15 16.15 16.15h40.93c8.89 0 16.15-7.27 16.15-16.15v-1.7c0-8.88-7.26-16.15-16.15-16.15"></path><path d="m5101.8 4483.7h-40.93c-8.88 0-16.15 7.27-16.15 16.16v1.69c0 8.89 7.27 16.16 16.15 16.16h40.93c8.89 0 16.16-7.27 16.16-16.16v-1.69c0-8.89-7.27-16.16-16.16-16.16"></path><path d="m5106.6 4438.7h-40.93c-8.88 0-16.15 7.26-16.15 16.15v1.69c0 8.89 7.27 16.16 16.15 16.16h40.93c8.89 0 16.15-7.27 16.15-16.16v-1.69c0-8.89-7.26-16.15-16.15-16.15"></path><path d="m5106.6 4385.4h-40.93c-8.88 0-16.15 7.27-16.15 16.15v1.7c0 8.88 7.27 16.15 16.15 16.15h40.93c8.89 0 16.15-7.27 16.15-16.15v-1.7c0-8.88-7.26-16.15-16.15-16.15"></path></g><path d="m6118.9 4202.8-41.83 79.72s4.89 28.96 39.92 0l35.03-28.96-33.12-50.76" fill="#ad5f5f"></path><path d="m6298.2 4332.3-281.44-76.95-6.54 23.92 281.44 76.95 6.54-23.92" fill="#232825"></path><path d="m6305 4115.5s-111.53 224.33-139.13 185.85c-6.32-8.81-11.91-25.13-17.57-43.84-8.08-26.74-16.29-58.37-26.94-80.01-14.65-29.77-4.09-65.79 24.28-82.99l86.71-52.6 72.65 73.59" fill="#f8a79c"></path><path d="m6176.6 4305.4-106.84 22.19s-14.48-38.77 37.37-50.12l79.07-20-9.6 47.93" fill="#f8a79c"></path><path d="m6010.3 4279.3-28.17-21.77 34.71-2.15z" fill="#5f6163"></path><path d="m6197.5 4332.2-2.71 9.63 57.67 16.23 19-17.35-6.74-7.38-14.89 13.59-52.33-14.72" fill="#232825"></path><path d="m6166 4267.3-41.46 5.77-9.81-122.19z" fill="#d07e77"></path><g fill="#f8a79c"><path d="m5774.4 1202.3s-22.51-158.27-92.72-205.73c0 0 77.46-57.879 135.68 16.881 58.23 74.75 89.53 90.32 89.53 90.32l-16.06 98.53h-116.43"></path><path d="m6016.9 2455.8-31.75 0.57-0.03-0.55z"></path><path d="m6037.1 995.3s77.3-56.102 135.52 18.649c58.23 74.75 84.43 87.17 84.43 87.17l-8.14 95.18-119.38 3.32c-4.46-27.16-29.42-161.73-92.43-204.32"></path></g><path d="m6457.2 3315-781.1 35.01-35-1283.9 133.22-863.85h141.78l37.48 773.85 31.48 480.21 0.03 0.26 31.67 483.52 7.61-815.07s141.44-705.94 91.73-925.04l13.4-0.39 119.38-3.32 13.02-0.37s87.53 597.39 14.2 824.05l181.1 1295" fill="#4f4f4e"></path><path d="m5465 4684.6-189.37 15.35-9.09 107.12 189.36-15.35 9.1-107.12" fill="#777d7c"></path></g></g></svg> 