<svg width="20" height="20" viewBox="0 0 20 20" fill="none" xmlns="http://www.w3.org/2000/svg">
<path opacity="0.3" d="M2.3335 9.07494V13.8166C2.3335 15.0145 2.80936 16.1633 3.6564 17.0104C4.50344 17.8574 5.65227 18.3333 6.85016 18.3333H13.1502C13.7433 18.3333 14.3306 18.2164 14.8786 17.9895C15.4266 17.7625 15.9245 17.4298 16.3439 17.0104C16.7633 16.591 17.096 16.093 17.323 15.5451C17.55 14.9971 17.6668 14.4097 17.6668 13.8166V9.07494C17.6668 8.8937 17.5948 8.7199 17.4667 8.59175C17.3385 8.4636 17.1647 8.3916 16.9835 8.3916H3.01683C2.8356 8.3916 2.66179 8.4636 2.53364 8.59175C2.40549 8.7199 2.3335 8.8937 2.3335 9.07494Z" fill="#FF9209"/>
<path d="M17.3753 6.3165C17.4141 6.42061 17.4273 6.53255 17.4137 6.64283C17.4001 6.75311 17.3601 6.85849 17.2971 6.95005C17.2342 7.04161 17.1501 7.11666 17.052 7.16885C16.9539 7.22103 16.8447 7.24881 16.7336 7.24984H3.40025C3.26443 7.2508 3.13044 7.21854 3.00994 7.15589C2.88943 7.09323 2.78607 7.00207 2.70885 6.89034C2.63162 6.77861 2.58288 6.6497 2.56685 6.51483C2.55083 6.37996 2.56802 6.24322 2.61692 6.1165C2.8697 5.51037 3.25094 4.96628 3.73433 4.52173C4.21773 4.07718 4.79178 3.74275 5.41692 3.5415V2.2415C5.41581 2.16639 5.42965 2.09181 5.45764 2.02209C5.48562 1.95237 5.52718 1.88892 5.57991 1.83541C5.63264 1.78191 5.69549 1.73942 5.76479 1.71042C5.83409 1.68142 5.90846 1.6665 5.98358 1.6665C6.13608 1.6665 6.28234 1.72708 6.39017 1.83492C6.498 1.94275 6.55858 2.089 6.55858 2.2415V3.33317C6.66692 3.33317 6.73358 3.33317 6.82525 3.33317H9.55025V2.2415C9.55025 2.089 9.61083 1.94275 9.71866 1.83492C9.8265 1.72708 9.97275 1.6665 10.1252 1.6665C10.2777 1.6665 10.424 1.72708 10.5318 1.83492C10.6397 1.94275 10.7002 2.089 10.7002 2.2415V3.33317H13.1169C13.2086 3.33317 13.2919 3.33317 13.3836 3.33317V2.2415C13.3825 2.16639 13.3963 2.09181 13.4243 2.02209C13.4523 1.95237 13.4938 1.88892 13.5466 1.83541C13.5993 1.78191 13.6622 1.73942 13.7315 1.71042C13.8008 1.68142 13.8751 1.6665 13.9502 1.6665C14.1027 1.6665 14.249 1.72708 14.3568 1.83492C14.4647 1.94275 14.5253 2.089 14.5253 2.2415V3.5415C15.1794 3.75805 15.7759 4.12034 16.2696 4.60106C16.7633 5.08177 17.1413 5.66834 17.3753 6.3165ZM7.27525 10.8332C7.13552 10.8348 6.9994 10.8778 6.88402 10.9566C6.76863 11.0354 6.67914 11.1466 6.62681 11.2762C6.57447 11.4057 6.56163 11.5479 6.58989 11.6847C6.61816 11.8216 6.68627 11.947 6.78565 12.0452C6.88504 12.1435 7.01126 12.2101 7.14843 12.2368C7.2856 12.2634 7.42759 12.2489 7.55654 12.1951C7.68549 12.1412 7.79562 12.0505 7.8731 11.9342C7.95057 11.8179 7.99191 11.6812 7.99192 11.5415C7.98972 11.3529 7.91325 11.1727 7.77909 11.0401C7.64492 10.9075 7.46389 10.8332 7.27525 10.8332ZM9.95025 10.8332C9.81052 10.8348 9.6744 10.8778 9.55902 10.9566C9.44363 11.0354 9.35414 11.1466 9.30181 11.2762C9.24947 11.4057 9.23663 11.5479 9.26489 11.6847C9.29316 11.8216 9.36127 11.947 9.46065 12.0452C9.56004 12.1435 9.68626 12.2101 9.82343 12.2368C9.9606 12.2634 10.1026 12.2489 10.2315 12.1951C10.3605 12.1412 10.4706 12.0505 10.5481 11.9342C10.6256 11.8179 10.6669 11.6812 10.6669 11.5415C10.6647 11.3529 10.5883 11.1727 10.4541 11.0401C10.3199 10.9075 10.1389 10.8332 9.95025 10.8332ZM12.6503 10.8332C12.5572 10.8332 12.4651 10.8515 12.3792 10.8871C12.2932 10.9227 12.2152 10.9749 12.1494 11.0406C12.0836 11.1064 12.0314 11.1845 11.9958 11.2704C11.9602 11.3564 11.9419 11.4485 11.9419 11.5415C11.9419 11.6345 11.9602 11.7266 11.9958 11.8126C12.0314 11.8985 12.0836 11.9766 12.1494 12.0424C12.2152 12.1081 12.2932 12.1603 12.3792 12.1959C12.4651 12.2315 12.5572 12.2498 12.6503 12.2498C12.7433 12.2498 12.8354 12.2315 12.9213 12.1959C13.0073 12.1603 13.0853 12.1081 13.1511 12.0424C13.2169 11.9766 13.2691 11.8985 13.3047 11.8126C13.3403 11.7266 13.3586 11.6345 13.3586 11.5415C13.3586 11.4485 13.3403 11.3564 13.3047 11.2704C13.2691 11.1845 13.2169 11.1064 13.1511 11.0406C13.0853 10.9749 13.0073 10.9227 12.9213 10.8871C12.8354 10.8515 12.7433 10.8332 12.6503 10.8332ZM7.26692 13.4998C7.12719 13.5015 6.99107 13.5444 6.87568 13.6232C6.7603 13.7021 6.67081 13.8133 6.61847 13.9428C6.56614 14.0724 6.55329 14.2145 6.58156 14.3514C6.60982 14.4882 6.67793 14.6137 6.77732 14.7119C6.87671 14.8101 7.00293 14.8768 7.1401 14.9034C7.27727 14.9301 7.41926 14.9156 7.54821 14.8618C7.67715 14.8079 7.78729 14.7171 7.86476 14.6008C7.94223 14.4845 7.98357 14.3479 7.98358 14.2082C7.98359 14.1144 7.965 14.0217 7.92888 13.9352C7.89276 13.8487 7.83984 13.7702 7.77318 13.7043C7.70652 13.6384 7.62745 13.5864 7.54054 13.5513C7.45364 13.5162 7.36064 13.4987 7.26692 13.4998ZM9.94192 13.4998C9.80219 13.5015 9.66607 13.5444 9.55068 13.6232C9.4353 13.7021 9.34581 13.8133 9.29347 13.9428C9.24114 14.0724 9.22829 14.2145 9.25656 14.3514C9.28482 14.4882 9.35293 14.6137 9.45232 14.7119C9.55171 14.8101 9.67793 14.8768 9.8151 14.9034C9.95227 14.9301 10.0943 14.9156 10.2232 14.8618C10.3522 14.8079 10.4623 14.7171 10.5398 14.6008C10.6172 14.4845 10.6586 14.3479 10.6586 14.2082C10.6586 14.1144 10.64 14.0217 10.6039 13.9352C10.5678 13.8487 10.5148 13.7702 10.4482 13.7043C10.3815 13.6384 10.3024 13.5864 10.2155 13.5513C10.1286 13.5162 10.0356 13.4987 9.94192 13.4998ZM12.6336 13.4998C12.4942 13.5031 12.359 13.5474 12.2447 13.6272C12.1304 13.707 12.0422 13.8188 11.9912 13.9485C11.9401 14.0781 11.9284 14.22 11.9576 14.3563C11.9868 14.4926 12.0555 14.6172 12.1552 14.7146C12.2549 14.812 12.3811 14.8779 12.5181 14.9039C12.655 14.9299 12.7966 14.9149 12.925 14.8608C13.0535 14.8068 13.1631 14.716 13.2403 14.5999C13.3174 14.4838 13.3585 14.3475 13.3586 14.2082C13.3575 14.1141 13.3379 14.0211 13.3009 13.9345C13.2638 13.848 13.2101 13.7696 13.1428 13.7038C13.0755 13.6381 12.9959 13.5862 12.9085 13.5512C12.8211 13.5162 12.7277 13.4987 12.6336 13.4998Z" fill="#FF9209"/>
</svg>
