<svg width="46" height="43" viewBox="0 0 46 43" fill="none" xmlns="http://www.w3.org/2000/svg">
<path d="M12.7387 4.63306L12.2821 5.99752L23.0704 9.59715C23.2186 9.64674 23.3788 9.64674 23.527 9.59715L34.3153 5.99752L33.8587 4.63306L23.2987 8.15305L12.7387 4.63306Z" fill="url(#paint0_linear_430_5204)" stroke="url(#paint1_linear_430_5204)" stroke-width="0.7"/>
<path d="M23.2402 1.00194C23.1823 1.00741 23.1252 1.01989 23.0703 1.0391L12.282 4.63342C12.138 4.68097 12.0127 4.7728 11.9241 4.8958C11.8354 5.0188 11.7879 5.16668 11.7883 5.31831V19.7009C11.7879 19.8525 11.8354 20.0004 11.9241 20.1234C12.0127 20.2464 12.138 20.3382 12.282 20.3858L23.0703 23.9801C23.2184 24.0297 23.3787 24.0297 23.5269 23.9801L34.3151 20.3858C34.4581 20.3373 34.5823 20.2451 34.6699 20.1222C34.7576 19.9993 34.8044 19.8519 34.8036 19.7009V5.31831C34.8044 5.16733 34.7576 5.01994 34.6699 4.89702C34.5823 4.7741 34.4581 4.68188 34.3151 4.63342L23.5269 1.0391C23.4348 1.00744 23.3373 0.994796 23.2402 1.00194ZM23.2986 2.47789L33.3648 5.8333V19.1806L23.2986 22.5413L13.227 19.1806V5.8333L23.2986 2.47789Z" fill="url(#paint2_linear_430_5204)" stroke="url(#paint3_linear_430_5204)" stroke-width="0.7"/>
<path d="M22.5766 8.9126V23.2952H24.0154V8.9126H22.5766Z" fill="url(#paint4_linear_430_5204)" stroke="url(#paint5_linear_430_5204)" stroke-width="0.7"/>
<path d="M23.527 22.6165L23.0704 23.9809L33.8587 27.5752C34.0068 27.6248 34.1671 27.6248 34.3153 27.5752L45.1035 23.9809L44.6469 22.6165L34.087 26.1364L23.527 22.6165Z" fill="url(#paint6_linear_430_5204)" stroke="url(#paint7_linear_430_5204)" stroke-width="0.7"/>
<path d="M34.3151 19.0166L33.8585 20.3864L44.1531 23.8161V37.1634L34.0868 40.5188L24.0153 37.1634V23.2958H22.5765V37.6837C22.5772 37.8344 22.6253 37.9811 22.7139 38.1031C22.8025 38.225 22.9271 38.316 23.0703 38.3633L33.8585 41.9629C34.0067 42.0125 34.167 42.0125 34.3151 41.9629L45.1034 38.3633C45.2455 38.3151 45.369 38.2237 45.4566 38.1019C45.5442 37.98 45.5915 37.8338 45.5918 37.6837V23.2958C45.5915 23.1457 45.5442 22.9995 45.4566 22.8777C45.369 22.7558 45.2455 22.6644 45.1034 22.6162L34.3151 19.0166Z" fill="url(#paint8_linear_430_5204)" stroke="url(#paint9_linear_430_5204)" stroke-width="0.7"/>
<path d="M33.3648 26.8945V41.2771H34.8036V26.8945H33.3648Z" fill="url(#paint10_linear_430_5204)" stroke="url(#paint11_linear_430_5204)" stroke-width="0.7"/>
<path d="M1.95045 22.6165L1.49387 23.9809L12.2821 27.5752C12.4303 27.6248 12.5906 27.6248 12.7387 27.5752L23.527 23.9809L23.0704 22.6165L12.5104 26.1364L1.95045 22.6165Z" fill="url(#paint12_linear_430_5204)" stroke="url(#paint13_linear_430_5204)" stroke-width="0.7"/>
<path d="M12.282 19.0166L1.49376 22.6162C1.35063 22.6635 1.22597 22.7545 1.13737 22.8765C1.04877 22.9984 1.00072 23.1451 1 23.2958V37.6837C1.00072 37.8344 1.04877 37.9811 1.13737 38.1031C1.22597 38.225 1.35063 38.316 1.49376 38.3633L12.282 41.9629C12.4302 42.0125 12.5905 42.0125 12.7386 41.9629L23.5269 38.3633L23.0703 36.9988L12.5103 40.5188L2.43879 37.1634V23.8161L12.7386 20.3864L12.282 19.0166Z" fill="url(#paint14_linear_430_5204)" stroke="url(#paint15_linear_430_5204)" stroke-width="0.7"/>
<path d="M11.7883 26.8945V41.2771H13.2271V26.8945H11.7883Z" fill="url(#paint16_linear_430_5204)" stroke="url(#paint17_linear_430_5204)" stroke-width="0.7"/>
<defs>
<linearGradient id="paint0_linear_430_5204" x1="31.0285" y1="4.99029" x2="20.9706" y2="18.9334" gradientUnits="userSpaceOnUse">
<stop stop-color="white"/>
<stop offset="1" stop-color="#E7E7E7" stop-opacity="0"/>
</linearGradient>
<linearGradient id="paint1_linear_430_5204" x1="31.0285" y1="4.99029" x2="20.9706" y2="18.9334" gradientUnits="userSpaceOnUse">
<stop stop-color="white"/>
<stop offset="1" stop-color="#E7E7E7" stop-opacity="0"/>
</linearGradient>
<linearGradient id="paint2_linear_430_5204" x1="31.3703" y1="2.64409" x2="3.43867" y2="11.4326" gradientUnits="userSpaceOnUse">
<stop stop-color="white"/>
<stop offset="1" stop-color="#E7E7E7" stop-opacity="0"/>
</linearGradient>
<linearGradient id="paint3_linear_430_5204" x1="31.3703" y1="2.64409" x2="3.43867" y2="11.4326" gradientUnits="userSpaceOnUse">
<stop stop-color="white"/>
<stop offset="1" stop-color="#E7E7E7" stop-opacity="0"/>
</linearGradient>
<linearGradient id="paint4_linear_430_5204" x1="23.8007" y1="9.93993" x2="21.8836" y2="10.0003" gradientUnits="userSpaceOnUse">
<stop stop-color="white"/>
<stop offset="1" stop-color="#E7E7E7" stop-opacity="0"/>
</linearGradient>
<linearGradient id="paint5_linear_430_5204" x1="23.8007" y1="9.93993" x2="21.8836" y2="10.0003" gradientUnits="userSpaceOnUse">
<stop stop-color="white"/>
<stop offset="1" stop-color="#E7E7E7" stop-opacity="0"/>
</linearGradient>
<linearGradient id="paint6_linear_430_5204" x1="41.8168" y1="22.9733" x2="31.7729" y2="36.9117" gradientUnits="userSpaceOnUse">
<stop stop-color="white"/>
<stop offset="1" stop-color="#E7E7E7" stop-opacity="0"/>
</linearGradient>
<linearGradient id="paint7_linear_430_5204" x1="41.8168" y1="22.9733" x2="31.7729" y2="36.9117" gradientUnits="userSpaceOnUse">
<stop stop-color="white"/>
<stop offset="1" stop-color="#E7E7E7" stop-opacity="0"/>
</linearGradient>
<linearGradient id="paint8_linear_430_5204" x1="42.1586" y1="20.6583" x2="14.2343" y2="29.4574" gradientUnits="userSpaceOnUse">
<stop stop-color="white"/>
<stop offset="1" stop-color="#E7E7E7" stop-opacity="0"/>
</linearGradient>
<linearGradient id="paint9_linear_430_5204" x1="42.1586" y1="20.6583" x2="14.2343" y2="29.4574" gradientUnits="userSpaceOnUse">
<stop stop-color="white"/>
<stop offset="1" stop-color="#E7E7E7" stop-opacity="0"/>
</linearGradient>
<linearGradient id="paint10_linear_430_5204" x1="34.589" y1="27.9219" x2="32.6719" y2="27.9822" gradientUnits="userSpaceOnUse">
<stop stop-color="white"/>
<stop offset="1" stop-color="#E7E7E7" stop-opacity="0"/>
</linearGradient>
<linearGradient id="paint11_linear_430_5204" x1="34.589" y1="27.9219" x2="32.6719" y2="27.9822" gradientUnits="userSpaceOnUse">
<stop stop-color="white"/>
<stop offset="1" stop-color="#E7E7E7" stop-opacity="0"/>
</linearGradient>
<linearGradient id="paint12_linear_430_5204" x1="20.2403" y1="22.9733" x2="10.1964" y2="36.9117" gradientUnits="userSpaceOnUse">
<stop stop-color="white"/>
<stop offset="1" stop-color="#E7E7E7" stop-opacity="0"/>
</linearGradient>
<linearGradient id="paint13_linear_430_5204" x1="20.2403" y1="22.9733" x2="10.1964" y2="36.9117" gradientUnits="userSpaceOnUse">
<stop stop-color="white"/>
<stop offset="1" stop-color="#E7E7E7" stop-opacity="0"/>
</linearGradient>
<linearGradient id="paint14_linear_430_5204" x1="20.1665" y1="20.6583" x2="-7.2692" y2="29.12" gradientUnits="userSpaceOnUse">
<stop stop-color="white"/>
<stop offset="1" stop-color="#E7E7E7" stop-opacity="0"/>
</linearGradient>
<linearGradient id="paint15_linear_430_5204" x1="20.1665" y1="20.6583" x2="-7.2692" y2="29.12" gradientUnits="userSpaceOnUse">
<stop stop-color="white"/>
<stop offset="1" stop-color="#E7E7E7" stop-opacity="0"/>
</linearGradient>
<linearGradient id="paint16_linear_430_5204" x1="13.0125" y1="27.9219" x2="11.0954" y2="27.9822" gradientUnits="userSpaceOnUse">
<stop stop-color="white"/>
<stop offset="1" stop-color="#E7E7E7" stop-opacity="0"/>
</linearGradient>
<linearGradient id="paint17_linear_430_5204" x1="13.0125" y1="27.9219" x2="11.0954" y2="27.9822" gradientUnits="userSpaceOnUse">
<stop stop-color="white"/>
<stop offset="1" stop-color="#E7E7E7" stop-opacity="0"/>
</linearGradient>
</defs>
</svg>
