<svg width="251" height="145" viewBox="0 0 251 145" fill="none" xmlns="http://www.w3.org/2000/svg">
<g clip-path="url(#clip0_430_3351)">
<rect width="251" height="145" rx="12" fill="url(#paint0_linear_430_3351)"/>
<g opacity="0.3" clip-path="url(#clip1_430_3351)">
<path d="M30.3956 59.4382L26.6082 67.8904L18.928 85.0842L30.3956 59.4382Z" stroke="#FF6C22" stroke-opacity="0.75" stroke-width="0.824252" stroke-miterlimit="10" stroke-linejoin="round"/>
<path d="M216.866 110.918L213.346 88.3902L212.349 85.0845L216.866 110.918Z" stroke="#FF6C22" stroke-opacity="0.75" stroke-width="0.824252" stroke-miterlimit="10" stroke-linejoin="round"/>
<path d="M212.349 85.0842L204.669 67.8904L200.881 59.4382L212.349 85.0842Z" stroke="#FF6C22" stroke-opacity="0.75" stroke-width="0.824252" stroke-miterlimit="10" stroke-linejoin="round"/>
<path d="M18.9287 85.0845L17.931 88.3902L14.4119 110.918L18.9287 85.0845Z" stroke="#FF6C22" stroke-opacity="0.75" stroke-width="0.824252" stroke-miterlimit="10" stroke-linejoin="round"/>
<path d="M13.4532 133.555L10.7651 146.602L11.1228 161.287L13.4532 133.555Z" stroke="#FF6C22" stroke-opacity="0.75" stroke-width="0.824252" stroke-miterlimit="10" stroke-linejoin="round"/>
<path d="M217.825 133.556L220.513 146.603L216.866 110.917L217.825 133.556Z" stroke="#FF6C22" stroke-opacity="0.75" stroke-width="0.824252" stroke-miterlimit="10" stroke-linejoin="round"/>
<path d="M13.4532 133.556L14.4123 110.917L10.7651 146.603L13.4532 133.556Z" stroke="#FF6C22" stroke-opacity="0.75" stroke-width="0.824252" stroke-miterlimit="10" stroke-linejoin="round"/>
<path d="M217.825 133.555L220.156 161.287L220.513 146.602L217.825 133.555Z" stroke="#FF6C22" stroke-opacity="0.75" stroke-width="0.824252" stroke-miterlimit="10" stroke-linejoin="round"/>
<path d="M12.1089 158.288L13.453 133.555L11.1226 161.287L12.1089 158.288Z" stroke="#FF6C22" stroke-opacity="0.75" stroke-width="0.824252" stroke-miterlimit="10" stroke-linejoin="round"/>
<path d="M219.169 158.288L220.156 161.287L217.825 133.555L219.169 158.288Z" stroke="#FF6C22" stroke-opacity="0.75" stroke-width="0.824252" stroke-miterlimit="10" stroke-linejoin="round"/>
<path d="M212.795 107.464L217.825 133.556L216.866 110.917L212.795 107.464Z" stroke="#FF6C22" stroke-opacity="0.75" stroke-width="0.824252" stroke-miterlimit="10" stroke-linejoin="round"/>
<path d="M13.4524 133.556L18.4821 107.464L14.4114 110.917L13.4524 133.556Z" stroke="#FF6C22" stroke-opacity="0.75" stroke-width="0.824252" stroke-miterlimit="10" stroke-linejoin="round"/>
<path d="M214.599 143.039L217.825 133.556L212.795 107.464L214.599 143.039Z" stroke="#FF6C22" stroke-opacity="0.75" stroke-width="0.824252" stroke-miterlimit="10" stroke-linejoin="round"/>
<path d="M18.4821 107.464L13.4524 133.556L16.6778 143.039L18.4821 107.464Z" stroke="#FF6C22" stroke-opacity="0.75" stroke-width="0.824252" stroke-miterlimit="10" stroke-linejoin="round"/>
<path d="M219.168 158.288L217.824 133.555L214.599 143.038L219.168 158.288Z" stroke="#FF6C22" stroke-opacity="0.75" stroke-width="0.824252" stroke-miterlimit="10" stroke-linejoin="round"/>
<path d="M16.6789 143.039L12.1093 158.289L12.7776 172.548L16.6789 143.039Z" stroke="#FF6C22" stroke-opacity="0.75" stroke-width="0.824252" stroke-miterlimit="10" stroke-linejoin="round"/>
<path d="M218.5 172.548L219.168 158.289L214.599 143.039L218.5 172.548Z" stroke="#FF6C22" stroke-opacity="0.75" stroke-width="0.824252" stroke-miterlimit="10" stroke-linejoin="round"/>
<path d="M12.1093 158.288L16.6789 143.038L13.4534 133.555L12.1093 158.288Z" stroke="#FF6C22" stroke-opacity="0.75" stroke-width="0.824252" stroke-miterlimit="10" stroke-linejoin="round"/>
<path d="M217.137 183.515L218.5 172.548L214.599 143.039L217.137 183.515Z" stroke="#FF6C22" stroke-opacity="0.75" stroke-width="0.824252" stroke-miterlimit="10" stroke-linejoin="round"/>
<path d="M14.1399 183.515L16.6783 143.039L12.7771 172.548L14.1399 183.515Z" stroke="#FF6C22" stroke-opacity="0.75" stroke-width="0.824252" stroke-miterlimit="10" stroke-linejoin="round"/>
<path d="M34.0888 59.6793L30.3956 59.4382L18.928 85.0842L34.0888 59.6793Z" stroke="#FF6C22" stroke-opacity="0.75" stroke-width="0.824252" stroke-miterlimit="10" stroke-linejoin="round"/>
<path d="M197.189 59.6793L212.349 85.0842L200.882 59.4382L197.189 59.6793Z" stroke="#FF6C22" stroke-opacity="0.75" stroke-width="0.824252" stroke-miterlimit="10" stroke-linejoin="round"/>
<path d="M34.0897 59.6794L49.819 43.0203L30.3964 59.4383L34.0897 59.6794Z" stroke="#FF6C22" stroke-opacity="0.75" stroke-width="0.824252" stroke-miterlimit="10" stroke-linejoin="round"/>
<path d="M181.459 43.0203L197.189 59.6794L200.882 59.4383L181.459 43.0203Z" stroke="#FF6C22" stroke-opacity="0.75" stroke-width="0.824252" stroke-miterlimit="10" stroke-linejoin="round"/>
<path d="M181.459 43.0208L200.882 59.4389L185.42 40.9766L181.459 43.0208Z" stroke="#FF6C22" stroke-opacity="0.75" stroke-width="0.824252" stroke-miterlimit="10" stroke-linejoin="round"/>
<path d="M49.819 43.0208L45.8584 40.9766L30.3964 59.4389L49.819 43.0208Z" stroke="#FF6C22" stroke-opacity="0.75" stroke-width="0.824252" stroke-miterlimit="10" stroke-linejoin="round"/>
<path d="M49.8189 43.0195L67.1558 32.7229L45.8583 40.9753L49.8189 43.0195Z" stroke="#FF6C22" stroke-opacity="0.75" stroke-width="0.824252" stroke-miterlimit="10" stroke-linejoin="round"/>
<path d="M164.121 32.7236L185.419 40.976L168.523 29.7153L164.121 32.7236Z" stroke="#FF6C22" stroke-opacity="0.75" stroke-width="0.824252" stroke-miterlimit="10" stroke-linejoin="round"/>
<path d="M67.1558 32.7236L62.7547 29.7153L45.8583 40.976L67.1558 32.7236Z" stroke="#FF6C22" stroke-opacity="0.75" stroke-width="0.824252" stroke-miterlimit="10" stroke-linejoin="round"/>
<path d="M164.121 32.7229L181.458 43.0195L185.419 40.9753L164.121 32.7229Z" stroke="#FF6C22" stroke-opacity="0.75" stroke-width="0.824252" stroke-miterlimit="10" stroke-linejoin="round"/>
<path d="M207.123 88.9507L212.796 107.464L216.867 110.917L207.123 88.9507Z" stroke="#FF6C22" stroke-opacity="0.75" stroke-width="0.824252" stroke-miterlimit="10" stroke-linejoin="round"/>
<path d="M207.123 88.9508L216.867 110.918L212.35 85.0845L207.123 88.9508Z" stroke="#FF6C22" stroke-opacity="0.75" stroke-width="0.824252" stroke-miterlimit="10" stroke-linejoin="round"/>
<path d="M24.1544 88.9507L34.0888 59.6794L18.928 85.0843L24.1544 88.9507Z" stroke="#FF6C22" stroke-opacity="0.75" stroke-width="0.824252" stroke-miterlimit="10" stroke-linejoin="round"/>
<path d="M18.4826 107.464L24.1551 88.9507L14.4119 110.917L18.4826 107.464Z" stroke="#FF6C22" stroke-opacity="0.75" stroke-width="0.824252" stroke-miterlimit="10" stroke-linejoin="round"/>
<path d="M24.1551 88.9508L18.9287 85.0845L14.4119 110.918L24.1551 88.9508Z" stroke="#FF6C22" stroke-opacity="0.75" stroke-width="0.824252" stroke-miterlimit="10" stroke-linejoin="round"/>
<path d="M197.189 59.6794L207.123 88.9507L212.349 85.0843L197.189 59.6794Z" stroke="#FF6C22" stroke-opacity="0.75" stroke-width="0.824252" stroke-miterlimit="10" stroke-linejoin="round"/>
<path d="M67.1551 32.7231L85.0153 26.0105L62.7541 29.7148L67.1551 32.7231Z" stroke="#FF6C22" stroke-opacity="0.75" stroke-width="0.824252" stroke-miterlimit="10" stroke-linejoin="round"/>
<path d="M85.0153 26.0108L80.4901 23.2925L62.7541 29.7152L85.0153 26.0108Z" stroke="#FF6C22" stroke-opacity="0.75" stroke-width="0.824252" stroke-miterlimit="10" stroke-linejoin="round"/>
<path d="M146.262 26.0105L164.122 32.7231L168.523 29.7148L146.262 26.0105Z" stroke="#FF6C22" stroke-opacity="0.75" stroke-width="0.824252" stroke-miterlimit="10" stroke-linejoin="round"/>
<path d="M146.262 26.0111L168.523 29.7154L142.457 21.4724L146.262 26.0111Z" stroke="#FF6C22" stroke-opacity="0.75" stroke-width="0.824252" stroke-miterlimit="10" stroke-linejoin="round"/>
<path d="M108.862 22.8182L142.457 21.4723L106.394 18.9331L108.862 22.8182Z" stroke="#FF6C22" stroke-opacity="0.75" stroke-width="0.824252" stroke-miterlimit="10" stroke-linejoin="round"/>
<path d="M85.0163 26.0116L108.862 22.8188L80.491 23.2933L85.0163 26.0116Z" stroke="#FF6C22" stroke-opacity="0.75" stroke-width="0.824252" stroke-miterlimit="10" stroke-linejoin="round"/>
<path d="M108.862 22.8182L106.395 18.9331L80.491 23.2926L108.862 22.8182Z" stroke="#FF6C22" stroke-opacity="0.75" stroke-width="0.824252" stroke-miterlimit="10" stroke-linejoin="round"/>
<path d="M108.862 22.8183L129.192 23.4358L142.457 21.4724L108.862 22.8183Z" stroke="#FF6C22" stroke-opacity="0.75" stroke-width="0.824252" stroke-miterlimit="10" stroke-linejoin="round"/>
<path d="M129.192 23.4358L146.261 26.011L142.457 21.4724L129.192 23.4358Z" stroke="#FF6C22" stroke-opacity="0.75" stroke-width="0.824252" stroke-miterlimit="10" stroke-linejoin="round"/>
<path d="M212.091 163.193L217.137 183.515L214.599 143.039L212.091 163.193Z" stroke="#FF6C22" stroke-opacity="0.75" stroke-width="0.824252" stroke-miterlimit="10" stroke-linejoin="round"/>
<path d="M14.14 183.515L19.1862 163.193L16.6784 143.039L14.14 183.515Z" stroke="#FF6C22" stroke-opacity="0.75" stroke-width="0.824252" stroke-miterlimit="10" stroke-linejoin="round"/>
<path d="M212.091 163.192L214.599 143.039L206.515 121.106L212.091 163.192Z" stroke="#FF6C22" stroke-opacity="0.75" stroke-width="0.824252" stroke-miterlimit="10" stroke-linejoin="round"/>
<path d="M206.515 121.107L212.794 107.464L207.122 88.9507L206.515 121.107Z" stroke="#FF6C22" stroke-opacity="0.75" stroke-width="0.824252" stroke-miterlimit="10" stroke-linejoin="round"/>
<path d="M206.515 121.106L214.599 143.039L212.794 107.464L206.515 121.106Z" stroke="#FF6C22" stroke-opacity="0.75" stroke-width="0.824252" stroke-miterlimit="10" stroke-linejoin="round"/>
<path d="M19.1859 163.192L24.7621 121.106L16.6781 143.039L19.1859 163.192Z" stroke="#FF6C22" stroke-opacity="0.75" stroke-width="0.824252" stroke-miterlimit="10" stroke-linejoin="round"/>
<path d="M16.6781 143.039L24.7621 121.106L18.4824 107.464L16.6781 143.039Z" stroke="#FF6C22" stroke-opacity="0.75" stroke-width="0.824252" stroke-miterlimit="10" stroke-linejoin="round"/>
<path d="M24.7625 121.107L24.1554 88.9507L18.4828 107.464L24.7625 121.107Z" stroke="#FF6C22" stroke-opacity="0.75" stroke-width="0.824252" stroke-miterlimit="10" stroke-linejoin="round"/>
<path d="M193.795 71.8285L197.189 59.6794L181.459 43.0203L193.795 71.8285Z" stroke="#FF6C22" stroke-opacity="0.75" stroke-width="0.824252" stroke-miterlimit="10" stroke-linejoin="round"/>
<path d="M178.424 51.0205L193.794 71.8285L181.459 43.0203L178.424 51.0205Z" stroke="#FF6C22" stroke-opacity="0.75" stroke-width="0.824252" stroke-miterlimit="10" stroke-linejoin="round"/>
<path d="M37.4839 71.8285L52.8536 51.0205L49.8192 43.0203L37.4839 71.8285Z" stroke="#FF6C22" stroke-opacity="0.75" stroke-width="0.824252" stroke-miterlimit="10" stroke-linejoin="round"/>
<path d="M37.4828 71.8286L34.0889 59.6794L24.1545 88.9507L37.4828 71.8286Z" stroke="#FF6C22" stroke-opacity="0.75" stroke-width="0.824252" stroke-miterlimit="10" stroke-linejoin="round"/>
<path d="M37.4833 71.8285L49.8187 43.0203L34.0894 59.6794L37.4833 71.8285Z" stroke="#FF6C22" stroke-opacity="0.75" stroke-width="0.824252" stroke-miterlimit="10" stroke-linejoin="round"/>
<path d="M193.794 71.8286L207.122 88.9507L197.188 59.6794L193.794 71.8286Z" stroke="#FF6C22" stroke-opacity="0.75" stroke-width="0.824252" stroke-miterlimit="10" stroke-linejoin="round"/>
<path d="M52.8529 51.021L69.9111 40.9766L49.8184 43.0208L52.8529 51.021Z" stroke="#FF6C22" stroke-opacity="0.75" stroke-width="0.824252" stroke-miterlimit="10" stroke-linejoin="round"/>
<path d="M69.9111 40.9753L67.1553 32.7229L49.8184 43.0195L69.9111 40.9753Z" stroke="#FF6C22" stroke-opacity="0.75" stroke-width="0.824252" stroke-miterlimit="10" stroke-linejoin="round"/>
<path d="M161.366 40.9766L178.425 51.021L181.459 43.0208L161.366 40.9766Z" stroke="#FF6C22" stroke-opacity="0.75" stroke-width="0.824252" stroke-miterlimit="10" stroke-linejoin="round"/>
<path d="M161.366 40.9753L181.459 43.0195L164.122 32.7229L161.366 40.9753Z" stroke="#FF6C22" stroke-opacity="0.75" stroke-width="0.824252" stroke-miterlimit="10" stroke-linejoin="round"/>
<path d="M87.9416 35.6482L85.0164 26.0105L67.1562 32.7231L87.9416 35.6482Z" stroke="#FF6C22" stroke-opacity="0.75" stroke-width="0.824252" stroke-miterlimit="10" stroke-linejoin="round"/>
<path d="M143.337 35.648L161.366 40.9753L164.122 32.7229L143.337 35.648Z" stroke="#FF6C22" stroke-opacity="0.75" stroke-width="0.824252" stroke-miterlimit="10" stroke-linejoin="round"/>
<path d="M143.337 35.6482L164.122 32.7231L146.262 26.0105L143.337 35.6482Z" stroke="#FF6C22" stroke-opacity="0.75" stroke-width="0.824252" stroke-miterlimit="10" stroke-linejoin="round"/>
<path d="M69.912 40.9753L87.9416 35.648L67.1562 32.7229L69.912 40.9753Z" stroke="#FF6C22" stroke-opacity="0.75" stroke-width="0.824252" stroke-miterlimit="10" stroke-linejoin="round"/>
<path d="M87.9411 35.6482L109.579 32.7173L85.0159 26.0105L87.9411 35.6482Z" stroke="#FF6C22" stroke-opacity="0.75" stroke-width="0.824252" stroke-miterlimit="10" stroke-linejoin="round"/>
<path d="M109.579 32.7184L129.192 23.4363L108.862 22.8188L109.579 32.7184Z" stroke="#FF6C22" stroke-opacity="0.75" stroke-width="0.824252" stroke-miterlimit="10" stroke-linejoin="round"/>
<path d="M109.579 32.7184L108.862 22.8188L85.0159 26.0116L109.579 32.7184Z" stroke="#FF6C22" stroke-opacity="0.75" stroke-width="0.824252" stroke-miterlimit="10" stroke-linejoin="round"/>
<path d="M109.579 32.7181L127.757 33.3675L129.192 23.436L109.579 32.7181Z" stroke="#FF6C22" stroke-opacity="0.75" stroke-width="0.824252" stroke-miterlimit="10" stroke-linejoin="round"/>
<path d="M127.758 33.3675L146.262 26.0113L129.192 23.436L127.758 33.3675Z" stroke="#FF6C22" stroke-opacity="0.75" stroke-width="0.824252" stroke-miterlimit="10" stroke-linejoin="round"/>
<path d="M127.758 33.3667L143.336 35.6482L146.262 26.0105L127.758 33.3667Z" stroke="#FF6C22" stroke-opacity="0.75" stroke-width="0.824252" stroke-miterlimit="10" stroke-linejoin="round"/>
<path d="M24.7616 121.107L30.5387 104.961L24.1545 88.9507L24.7616 121.107Z" stroke="#FF6C22" stroke-opacity="0.75" stroke-width="0.824252" stroke-miterlimit="10" stroke-linejoin="round"/>
<path d="M30.5387 104.961L37.4828 71.8289L24.1545 88.951L30.5387 104.961Z" stroke="#FF6C22" stroke-opacity="0.75" stroke-width="0.824252" stroke-miterlimit="10" stroke-linejoin="round"/>
<path d="M200.738 104.961L206.515 121.107L207.122 88.9507L200.738 104.961Z" stroke="#FF6C22" stroke-opacity="0.75" stroke-width="0.824252" stroke-miterlimit="10" stroke-linejoin="round"/>
<path d="M193.794 71.8289L200.738 104.961L207.122 88.951L193.794 71.8289Z" stroke="#FF6C22" stroke-opacity="0.75" stroke-width="0.824252" stroke-miterlimit="10" stroke-linejoin="round"/>
<path d="M19.1856 163.192L25.7209 148.272L24.7618 121.106L19.1856 163.192Z" stroke="#FF6C22" stroke-opacity="0.75" stroke-width="0.824252" stroke-miterlimit="10" stroke-linejoin="round"/>
<path d="M205.556 148.272L212.092 163.192L206.515 121.106L205.556 148.272Z" stroke="#FF6C22" stroke-opacity="0.75" stroke-width="0.824252" stroke-miterlimit="10" stroke-linejoin="round"/>
<path d="M177.366 61.8547L193.794 71.8278L178.424 51.0198L177.366 61.8547Z" stroke="#FF6C22" stroke-opacity="0.75" stroke-width="0.824252" stroke-miterlimit="10" stroke-linejoin="round"/>
<path d="M53.9116 61.8547L52.8537 51.0198L37.4839 71.8278L53.9116 61.8547Z" stroke="#FF6C22" stroke-opacity="0.75" stroke-width="0.824252" stroke-miterlimit="10" stroke-linejoin="round"/>
<path d="M160.39 52.384L178.424 51.021L161.365 40.9766L160.39 52.384Z" stroke="#FF6C22" stroke-opacity="0.75" stroke-width="0.824252" stroke-miterlimit="10" stroke-linejoin="round"/>
<path d="M160.391 52.3827L161.366 40.9753L143.337 35.6479L160.391 52.3827Z" stroke="#FF6C22" stroke-opacity="0.75" stroke-width="0.824252" stroke-miterlimit="10" stroke-linejoin="round"/>
<path d="M160.39 52.3827L177.366 61.8547L178.424 51.0198L160.39 52.3827Z" stroke="#FF6C22" stroke-opacity="0.75" stroke-width="0.824252" stroke-miterlimit="10" stroke-linejoin="round"/>
<path d="M70.8865 52.3827L87.941 35.6479L69.9114 40.9753L70.8865 52.3827Z" stroke="#FF6C22" stroke-opacity="0.75" stroke-width="0.824252" stroke-miterlimit="10" stroke-linejoin="round"/>
<path d="M53.9112 61.8547L70.8867 52.3827L52.8533 51.0198L53.9112 61.8547Z" stroke="#FF6C22" stroke-opacity="0.75" stroke-width="0.824252" stroke-miterlimit="10" stroke-linejoin="round"/>
<path d="M70.8867 52.384L69.9116 40.9766L52.8533 51.021L70.8867 52.384Z" stroke="#FF6C22" stroke-opacity="0.75" stroke-width="0.824252" stroke-miterlimit="10" stroke-linejoin="round"/>
<path d="M201.414 134.672L205.556 148.272L206.515 121.106L201.414 134.672Z" stroke="#FF6C22" stroke-opacity="0.75" stroke-width="0.824252" stroke-miterlimit="10" stroke-linejoin="round"/>
<path d="M25.7211 148.272L29.8633 134.672L24.762 121.106L25.7211 148.272Z" stroke="#FF6C22" stroke-opacity="0.75" stroke-width="0.824252" stroke-miterlimit="10" stroke-linejoin="round"/>
<path d="M96.3667 44.3336L109.579 32.7173L87.9411 35.6481L96.3667 44.3336Z" stroke="#FF6C22" stroke-opacity="0.75" stroke-width="0.824252" stroke-miterlimit="10" stroke-linejoin="round"/>
<path d="M134.911 44.3334L160.391 52.3827L143.336 35.6479L134.911 44.3334Z" stroke="#FF6C22" stroke-opacity="0.75" stroke-width="0.824252" stroke-miterlimit="10" stroke-linejoin="round"/>
<path d="M70.8873 52.3827L96.3674 44.3334L87.9418 35.6479L70.8873 52.3827Z" stroke="#FF6C22" stroke-opacity="0.75" stroke-width="0.824252" stroke-miterlimit="10" stroke-linejoin="round"/>
<path d="M134.911 44.3344L143.336 35.6489L127.758 33.3674L134.911 44.3344Z" stroke="#FF6C22" stroke-opacity="0.75" stroke-width="0.824252" stroke-miterlimit="10" stroke-linejoin="round"/>
<path d="M134.91 44.3336L127.757 33.3667L109.579 32.7173L134.91 44.3336Z" stroke="#FF6C22" stroke-opacity="0.75" stroke-width="0.824252" stroke-miterlimit="10" stroke-linejoin="round"/>
<path d="M115.638 41.0734L134.91 44.3336L109.579 32.7173L115.638 41.0734Z" stroke="#FF6C22" stroke-opacity="0.75" stroke-width="0.824252" stroke-miterlimit="10" stroke-linejoin="round"/>
<path d="M96.367 44.3336L115.639 41.0734L109.58 32.7173L96.367 44.3336Z" stroke="#FF6C22" stroke-opacity="0.75" stroke-width="0.824252" stroke-miterlimit="10" stroke-linejoin="round"/>
<path d="M40.8006 90.4382L53.9116 61.8557L37.4839 71.8289L40.8006 90.4382Z" stroke="#FF6C22" stroke-opacity="0.75" stroke-width="0.824252" stroke-miterlimit="10" stroke-linejoin="round"/>
<path d="M40.8 90.4382L37.4833 71.8289L30.5391 104.961L40.8 90.4382Z" stroke="#FF6C22" stroke-opacity="0.75" stroke-width="0.824252" stroke-miterlimit="10" stroke-linejoin="round"/>
<path d="M177.366 61.8557L190.477 90.4382L193.794 71.8289L177.366 61.8557Z" stroke="#FF6C22" stroke-opacity="0.75" stroke-width="0.824252" stroke-miterlimit="10" stroke-linejoin="round"/>
<path d="M190.477 90.4382L200.738 104.961L193.794 71.8289L190.477 90.4382Z" stroke="#FF6C22" stroke-opacity="0.75" stroke-width="0.824252" stroke-miterlimit="10" stroke-linejoin="round"/>
<path d="M194.352 120.879L206.515 121.107L200.738 104.96L194.352 120.879Z" stroke="#FF6C22" stroke-opacity="0.75" stroke-width="0.824252" stroke-miterlimit="10" stroke-linejoin="round"/>
<path d="M194.352 120.878L201.414 134.672L206.515 121.106L194.352 120.878Z" stroke="#FF6C22" stroke-opacity="0.75" stroke-width="0.824252" stroke-miterlimit="10" stroke-linejoin="round"/>
<path d="M29.8633 134.672L36.9251 120.878L24.762 121.106L29.8633 134.672Z" stroke="#FF6C22" stroke-opacity="0.75" stroke-width="0.824252" stroke-miterlimit="10" stroke-linejoin="round"/>
<path d="M36.9251 120.879L40.8 90.4373L30.5391 104.96L36.9251 120.879Z" stroke="#FF6C22" stroke-opacity="0.75" stroke-width="0.824252" stroke-miterlimit="10" stroke-linejoin="round"/>
<path d="M36.9251 120.879L30.5391 104.96L24.762 121.107L36.9251 120.879Z" stroke="#FF6C22" stroke-opacity="0.75" stroke-width="0.824252" stroke-miterlimit="10" stroke-linejoin="round"/>
<path d="M190.477 90.4373L194.352 120.879L200.738 104.96L190.477 90.4373Z" stroke="#FF6C22" stroke-opacity="0.75" stroke-width="0.824252" stroke-miterlimit="10" stroke-linejoin="round"/>
<path d="M197.936 142.259L203.199 159.811L205.555 148.273L197.936 142.259Z" stroke="#FF6C22" stroke-opacity="0.75" stroke-width="0.824252" stroke-miterlimit="10" stroke-linejoin="round"/>
<path d="M33.3403 142.258L29.8635 134.672L25.7213 148.273L33.3403 142.258Z" stroke="#FF6C22" stroke-opacity="0.75" stroke-width="0.824252" stroke-miterlimit="10" stroke-linejoin="round"/>
<path d="M197.936 142.258L205.555 148.273L201.413 134.672L197.936 142.258Z" stroke="#FF6C22" stroke-opacity="0.75" stroke-width="0.824252" stroke-miterlimit="10" stroke-linejoin="round"/>
<path d="M33.3403 142.259L25.7213 148.273L28.0771 159.811L33.3403 142.259Z" stroke="#FF6C22" stroke-opacity="0.75" stroke-width="0.824252" stroke-miterlimit="10" stroke-linejoin="round"/>
<path d="M176.085 79.3865L190.477 90.4382L177.367 61.8557L176.085 79.3865Z" stroke="#FF6C22" stroke-opacity="0.75" stroke-width="0.824252" stroke-miterlimit="10" stroke-linejoin="round"/>
<path d="M55.1932 79.3865L53.9113 61.8557L40.8004 90.4382L55.1932 79.3865Z" stroke="#FF6C22" stroke-opacity="0.75" stroke-width="0.824252" stroke-miterlimit="10" stroke-linejoin="round"/>
<path d="M55.1921 79.3865L70.8442 64.9544L53.9102 61.8557L55.1921 79.3865Z" stroke="#FF6C22" stroke-opacity="0.75" stroke-width="0.824252" stroke-miterlimit="10" stroke-linejoin="round"/>
<path d="M177.366 61.8557L160.39 52.3838L160.432 64.9544L177.366 61.8557Z" stroke="#FF6C22" stroke-opacity="0.75" stroke-width="0.824252" stroke-miterlimit="10" stroke-linejoin="round"/>
<path d="M160.432 64.9544L176.084 79.3865L177.366 61.8557L160.432 64.9544Z" stroke="#FF6C22" stroke-opacity="0.75" stroke-width="0.824252" stroke-miterlimit="10" stroke-linejoin="round"/>
<path d="M96.3662 44.334L70.886 52.3832L70.8446 64.9539L96.3662 44.334Z" stroke="#FF6C22" stroke-opacity="0.75" stroke-width="0.824252" stroke-miterlimit="10" stroke-linejoin="round"/>
<path d="M70.8442 64.9544L70.8857 52.3838L53.9102 61.8557L70.8442 64.9544Z" stroke="#FF6C22" stroke-opacity="0.75" stroke-width="0.824252" stroke-miterlimit="10" stroke-linejoin="round"/>
<path d="M160.432 64.9539L160.391 52.3832L134.911 44.334L160.432 64.9539Z" stroke="#FF6C22" stroke-opacity="0.75" stroke-width="0.824252" stroke-miterlimit="10" stroke-linejoin="round"/>
<path d="M96.1181 57.8582L115.639 41.0732L96.3667 44.3334L96.1181 57.8582Z" stroke="#FF6C22" stroke-opacity="0.75" stroke-width="0.824252" stroke-miterlimit="10" stroke-linejoin="round"/>
<path d="M135.159 57.8588L160.432 64.9539L134.911 44.334L135.159 57.8588Z" stroke="#FF6C22" stroke-opacity="0.75" stroke-width="0.824252" stroke-miterlimit="10" stroke-linejoin="round"/>
<path d="M135.159 57.8582L134.911 44.3334L115.639 41.0732L135.159 57.8582Z" stroke="#FF6C22" stroke-opacity="0.75" stroke-width="0.824252" stroke-miterlimit="10" stroke-linejoin="round"/>
<path d="M70.8446 64.9539L96.1177 57.8588L96.3662 44.334L70.8446 64.9539Z" stroke="#FF6C22" stroke-opacity="0.75" stroke-width="0.824252" stroke-miterlimit="10" stroke-linejoin="round"/>
<path d="M135.159 57.8582L115.639 41.0732V54.8787L135.159 57.8582Z" stroke="#FF6C22" stroke-opacity="0.75" stroke-width="0.824252" stroke-miterlimit="10" stroke-linejoin="round"/>
<path d="M96.1181 57.8582L115.639 54.8787V41.0732L96.1181 57.8582Z" stroke="#FF6C22" stroke-opacity="0.75" stroke-width="0.824252" stroke-miterlimit="10" stroke-linejoin="round"/>
<path d="M45.4096 105.675L40.7996 90.4373L36.9247 120.879L45.4096 105.675Z" stroke="#FF6C22" stroke-opacity="0.75" stroke-width="0.824252" stroke-miterlimit="10" stroke-linejoin="round"/>
<path d="M176.085 79.3865L185.867 105.676L190.477 90.4382L176.085 79.3865Z" stroke="#FF6C22" stroke-opacity="0.75" stroke-width="0.824252" stroke-miterlimit="10" stroke-linejoin="round"/>
<path d="M185.868 105.675L194.353 120.879L190.478 90.4373L185.868 105.675Z" stroke="#FF6C22" stroke-opacity="0.75" stroke-width="0.824252" stroke-miterlimit="10" stroke-linejoin="round"/>
<path d="M45.4104 105.676L55.1932 79.3865L40.8004 90.4382L45.4104 105.676Z" stroke="#FF6C22" stroke-opacity="0.75" stroke-width="0.824252" stroke-miterlimit="10" stroke-linejoin="round"/>
<path d="M37.2581 149.779L33.3408 142.259L28.0776 159.811L37.2581 149.779Z" stroke="#FF6C22" stroke-opacity="0.75" stroke-width="0.824252" stroke-miterlimit="10" stroke-linejoin="round"/>
<path d="M203.2 159.811L197.937 142.259L194.02 149.779L203.2 159.811Z" stroke="#FF6C22" stroke-opacity="0.75" stroke-width="0.824252" stroke-miterlimit="10" stroke-linejoin="round"/>
<path d="M159.736 77.8224L160.433 64.9544L135.16 57.8594L159.736 77.8224Z" stroke="#FF6C22" stroke-opacity="0.75" stroke-width="0.824252" stroke-miterlimit="10" stroke-linejoin="round"/>
<path d="M71.5411 77.8224L96.1177 57.8594L70.8446 64.9544L71.5411 77.8224Z" stroke="#FF6C22" stroke-opacity="0.75" stroke-width="0.824252" stroke-miterlimit="10" stroke-linejoin="round"/>
<path d="M71.5417 77.8211L70.8452 64.9531L55.1931 79.3852L71.5417 77.8211Z" stroke="#FF6C22" stroke-opacity="0.75" stroke-width="0.824252" stroke-miterlimit="10" stroke-linejoin="round"/>
<path d="M159.736 77.8211L176.084 79.3852L160.432 64.9531L159.736 77.8211Z" stroke="#FF6C22" stroke-opacity="0.75" stroke-width="0.824252" stroke-miterlimit="10" stroke-linejoin="round"/>
<path d="M187.439 137.3L197.936 142.258L201.413 134.672L187.439 137.3Z" stroke="#FF6C22" stroke-opacity="0.75" stroke-width="0.824252" stroke-miterlimit="10" stroke-linejoin="round"/>
<path d="M43.8375 137.301L33.3403 142.259L37.2576 149.779L43.8375 137.301Z" stroke="#FF6C22" stroke-opacity="0.75" stroke-width="0.824252" stroke-miterlimit="10" stroke-linejoin="round"/>
<path d="M33.3404 142.258L43.8375 137.3L29.8636 134.672L33.3404 142.258Z" stroke="#FF6C22" stroke-opacity="0.75" stroke-width="0.824252" stroke-miterlimit="10" stroke-linejoin="round"/>
<path d="M43.8375 137.299L36.9253 120.878L29.8636 134.672L43.8375 137.299Z" stroke="#FF6C22" stroke-opacity="0.75" stroke-width="0.824252" stroke-miterlimit="10" stroke-linejoin="round"/>
<path d="M194.019 149.779L197.936 142.259L187.439 137.301L194.019 149.779Z" stroke="#FF6C22" stroke-opacity="0.75" stroke-width="0.824252" stroke-miterlimit="10" stroke-linejoin="round"/>
<path d="M201.413 134.672L194.351 120.878L187.439 137.299L201.413 134.672Z" stroke="#FF6C22" stroke-opacity="0.75" stroke-width="0.824252" stroke-miterlimit="10" stroke-linejoin="round"/>
<path d="M71.5419 77.8224L88.2689 73.1653L96.1185 57.8594L71.5419 77.8224Z" stroke="#FF6C22" stroke-opacity="0.75" stroke-width="0.824252" stroke-miterlimit="10" stroke-linejoin="round"/>
<path d="M37.258 149.779L40.4731 158.514L43.8379 137.301L37.258 149.779Z" stroke="#FF6C22" stroke-opacity="0.75" stroke-width="0.824252" stroke-miterlimit="10" stroke-linejoin="round"/>
<path d="M190.804 158.514L194.019 149.779L187.439 137.301L190.804 158.514Z" stroke="#FF6C22" stroke-opacity="0.75" stroke-width="0.824252" stroke-miterlimit="10" stroke-linejoin="round"/>
<path d="M135.57 71.9261L135.159 57.8587L115.639 54.8792L135.57 71.9261Z" stroke="#FF6C22" stroke-opacity="0.75" stroke-width="0.824252" stroke-miterlimit="10" stroke-linejoin="round"/>
<path d="M135.57 71.9268L159.736 77.8224L135.16 57.8594L135.57 71.9268Z" stroke="#FF6C22" stroke-opacity="0.75" stroke-width="0.824252" stroke-miterlimit="10" stroke-linejoin="round"/>
<path d="M171.921 99.8784L185.867 105.676L176.084 79.3865L171.921 99.8784Z" stroke="#FF6C22" stroke-opacity="0.75" stroke-width="0.824252" stroke-miterlimit="10" stroke-linejoin="round"/>
<path d="M159.736 77.8218L171.921 99.8778L176.084 79.3859L159.736 77.8218Z" stroke="#FF6C22" stroke-opacity="0.75" stroke-width="0.824252" stroke-miterlimit="10" stroke-linejoin="round"/>
<path d="M59.356 99.8778L71.5417 77.8218L55.1931 79.3859L59.356 99.8778Z" stroke="#FF6C22" stroke-opacity="0.75" stroke-width="0.824252" stroke-miterlimit="10" stroke-linejoin="round"/>
<path d="M59.3556 99.8784L55.1927 79.3865L45.4099 105.676L59.3556 99.8784Z" stroke="#FF6C22" stroke-opacity="0.75" stroke-width="0.824252" stroke-miterlimit="10" stroke-linejoin="round"/>
<path d="M109.394 70.2413L135.57 71.9261L115.64 54.8792L109.394 70.2413Z" stroke="#FF6C22" stroke-opacity="0.75" stroke-width="0.824252" stroke-miterlimit="10" stroke-linejoin="round"/>
<path d="M88.2689 73.1653L109.393 70.2419L96.1184 57.8594L88.2689 73.1653Z" stroke="#FF6C22" stroke-opacity="0.75" stroke-width="0.824252" stroke-miterlimit="10" stroke-linejoin="round"/>
<path d="M109.393 70.2413L115.639 54.8792L96.1181 57.8587L109.393 70.2413Z" stroke="#FF6C22" stroke-opacity="0.75" stroke-width="0.824252" stroke-miterlimit="10" stroke-linejoin="round"/>
<path d="M178.961 124.502L187.44 137.299L194.352 120.878L178.961 124.502Z" stroke="#FF6C22" stroke-opacity="0.75" stroke-width="0.824252" stroke-miterlimit="10" stroke-linejoin="round"/>
<path d="M185.867 105.677L178.961 124.503L194.352 120.88L185.867 105.677Z" stroke="#FF6C22" stroke-opacity="0.75" stroke-width="0.824252" stroke-miterlimit="10" stroke-linejoin="round"/>
<path d="M171.921 99.8774L178.962 124.502L185.867 105.675L171.921 99.8774Z" stroke="#FF6C22" stroke-opacity="0.75" stroke-width="0.824252" stroke-miterlimit="10" stroke-linejoin="round"/>
<path d="M59.3556 99.8774L45.4099 105.675L52.3155 124.502L59.3556 99.8774Z" stroke="#FF6C22" stroke-opacity="0.75" stroke-width="0.824252" stroke-miterlimit="10" stroke-linejoin="round"/>
<path d="M52.3152 124.502L36.9247 120.878L43.8369 137.299L52.3152 124.502Z" stroke="#FF6C22" stroke-opacity="0.75" stroke-width="0.824252" stroke-miterlimit="10" stroke-linejoin="round"/>
<path d="M52.3152 124.503L45.4096 105.677L36.9247 120.88L52.3152 124.503Z" stroke="#FF6C22" stroke-opacity="0.75" stroke-width="0.824252" stroke-miterlimit="10" stroke-linejoin="round"/>
<path d="M73.1947 92.8489L71.542 77.8218L59.3563 99.8778L73.1947 92.8489Z" stroke="#FF6C22" stroke-opacity="0.75" stroke-width="0.824252" stroke-miterlimit="10" stroke-linejoin="round"/>
<path d="M171.921 99.8778L159.735 77.8218L158.082 92.8489L171.921 99.8778Z" stroke="#FF6C22" stroke-opacity="0.75" stroke-width="0.824252" stroke-miterlimit="10" stroke-linejoin="round"/>
<path d="M88.2689 73.1643L71.5419 77.8213L73.1946 92.8485L88.2689 73.1643Z" stroke="#FF6C22" stroke-opacity="0.75" stroke-width="0.824252" stroke-miterlimit="10" stroke-linejoin="round"/>
<path d="M158.083 92.8493L159.736 77.8221L135.57 71.9265L158.083 92.8493Z" stroke="#FF6C22" stroke-opacity="0.75" stroke-width="0.824252" stroke-miterlimit="10" stroke-linejoin="round"/>
<path d="M40.4726 158.514L46.5752 153.036L43.8373 137.301L40.4726 158.514Z" stroke="#FF6C22" stroke-opacity="0.75" stroke-width="0.824252" stroke-miterlimit="10" stroke-linejoin="round"/>
<path d="M184.702 153.036L190.805 158.514L187.44 137.301L184.702 153.036Z" stroke="#FF6C22" stroke-opacity="0.75" stroke-width="0.824252" stroke-miterlimit="10" stroke-linejoin="round"/>
<path d="M73.1943 92.8485L88.549 89.3756L88.2686 73.1643L73.1943 92.8485Z" stroke="#FF6C22" stroke-opacity="0.75" stroke-width="0.824252" stroke-miterlimit="10" stroke-linejoin="round"/>
<path d="M109.393 70.2412L88.2689 73.1646L88.5493 89.3759L109.393 70.2412Z" stroke="#FF6C22" stroke-opacity="0.75" stroke-width="0.824252" stroke-miterlimit="10" stroke-linejoin="round"/>
<path d="M142.728 89.3763L158.083 92.8493L135.57 71.9265L142.728 89.3763Z" stroke="#FF6C22" stroke-opacity="0.75" stroke-width="0.824252" stroke-miterlimit="10" stroke-linejoin="round"/>
<path d="M128.319 87.8345L142.729 89.3763L135.57 71.9265L128.319 87.8345Z" stroke="#FF6C22" stroke-opacity="0.75" stroke-width="0.824252" stroke-miterlimit="10" stroke-linejoin="round"/>
<path d="M128.319 87.834L135.57 71.926L109.394 70.2412L128.319 87.834Z" stroke="#FF6C22" stroke-opacity="0.75" stroke-width="0.824252" stroke-miterlimit="10" stroke-linejoin="round"/>
<path d="M88.5495 89.3759L109.299 87.5893L109.393 70.2412L88.5495 89.3759Z" stroke="#FF6C22" stroke-opacity="0.75" stroke-width="0.824252" stroke-miterlimit="10" stroke-linejoin="round"/>
<path d="M128.319 87.834L109.393 70.2412L109.299 87.5893L128.319 87.834Z" stroke="#FF6C22" stroke-opacity="0.75" stroke-width="0.824252" stroke-miterlimit="10" stroke-linejoin="round"/>
<path d="M171.921 99.8774L166.4 121.064L178.961 124.502L171.921 99.8774Z" stroke="#FF6C22" stroke-opacity="0.75" stroke-width="0.824252" stroke-miterlimit="10" stroke-linejoin="round"/>
<path d="M64.8763 121.064L59.3552 99.8774L52.315 124.502L64.8763 121.064Z" stroke="#FF6C22" stroke-opacity="0.75" stroke-width="0.824252" stroke-miterlimit="10" stroke-linejoin="round"/>
<path d="M175.06 143.123L184.702 153.036L187.44 137.301L175.06 143.123Z" stroke="#FF6C22" stroke-opacity="0.75" stroke-width="0.824252" stroke-miterlimit="10" stroke-linejoin="round"/>
<path d="M175.06 143.122L187.44 137.299L178.962 124.502L175.06 143.122Z" stroke="#FF6C22" stroke-opacity="0.75" stroke-width="0.824252" stroke-miterlimit="10" stroke-linejoin="round"/>
<path d="M46.5754 153.036L56.2171 143.123L43.8374 137.301L46.5754 153.036Z" stroke="#FF6C22" stroke-opacity="0.75" stroke-width="0.824252" stroke-miterlimit="10" stroke-linejoin="round"/>
<path d="M56.2171 143.122L52.3158 124.502L43.8374 137.299L56.2171 143.122Z" stroke="#FF6C22" stroke-opacity="0.75" stroke-width="0.824252" stroke-miterlimit="10" stroke-linejoin="round"/>
<path d="M56.8966 155.27L56.217 143.123L46.5754 153.035L56.8966 155.27Z" stroke="#FF6C22" stroke-opacity="0.75" stroke-width="0.824252" stroke-miterlimit="10" stroke-linejoin="round"/>
<path d="M184.702 153.035L175.06 143.123L174.381 155.27L184.702 153.035Z" stroke="#FF6C22" stroke-opacity="0.75" stroke-width="0.824252" stroke-miterlimit="10" stroke-linejoin="round"/>
<path d="M88.549 89.376L73.1943 92.8489L77.1718 115.64L88.549 89.376Z" stroke="#FF6C22" stroke-opacity="0.75" stroke-width="0.824252" stroke-miterlimit="10" stroke-linejoin="round"/>
<path d="M154.105 115.64L158.083 92.8489L142.728 89.376L154.105 115.64Z" stroke="#FF6C22" stroke-opacity="0.75" stroke-width="0.824252" stroke-miterlimit="10" stroke-linejoin="round"/>
<path d="M154.106 115.64L166.401 121.064L171.922 99.8774L154.106 115.64Z" stroke="#FF6C22" stroke-opacity="0.75" stroke-width="0.824252" stroke-miterlimit="10" stroke-linejoin="round"/>
<path d="M158.083 92.8494L154.106 115.641L171.922 99.8782L158.083 92.8494Z" stroke="#FF6C22" stroke-opacity="0.75" stroke-width="0.824252" stroke-miterlimit="10" stroke-linejoin="round"/>
<path d="M77.1722 115.64L59.3563 99.8774L64.8773 121.064L77.1722 115.64Z" stroke="#FF6C22" stroke-opacity="0.75" stroke-width="0.824252" stroke-miterlimit="10" stroke-linejoin="round"/>
<path d="M77.1722 115.641L73.1947 92.8494L59.3563 99.8782L77.1722 115.641Z" stroke="#FF6C22" stroke-opacity="0.75" stroke-width="0.824252" stroke-miterlimit="10" stroke-linejoin="round"/>
<path d="M89.3475 105.337L88.5493 89.376L77.1721 115.64L89.3475 105.337Z" stroke="#FF6C22" stroke-opacity="0.75" stroke-width="0.824252" stroke-miterlimit="10" stroke-linejoin="round"/>
<path d="M89.3477 105.337L109.299 87.5898L88.5495 89.3764L89.3477 105.337Z" stroke="#FF6C22" stroke-opacity="0.75" stroke-width="0.824252" stroke-miterlimit="10" stroke-linejoin="round"/>
<path d="M141.93 105.337L154.105 115.64L142.728 89.376L141.93 105.337Z" stroke="#FF6C22" stroke-opacity="0.75" stroke-width="0.824252" stroke-miterlimit="10" stroke-linejoin="round"/>
<path d="M141.93 105.337L142.729 89.3763L128.319 87.8345L141.93 105.337Z" stroke="#FF6C22" stroke-opacity="0.75" stroke-width="0.824252" stroke-miterlimit="10" stroke-linejoin="round"/>
<path d="M127.936 103.971L141.93 105.337L128.318 87.8345L127.936 103.971Z" stroke="#FF6C22" stroke-opacity="0.75" stroke-width="0.824252" stroke-miterlimit="10" stroke-linejoin="round"/>
<path d="M127.937 103.971L128.319 87.8345L109.299 87.5898L127.937 103.971Z" stroke="#FF6C22" stroke-opacity="0.75" stroke-width="0.824252" stroke-miterlimit="10" stroke-linejoin="round"/>
<path d="M109.49 103.699L127.937 103.971L109.299 87.5898L109.49 103.699Z" stroke="#FF6C22" stroke-opacity="0.75" stroke-width="0.824252" stroke-miterlimit="10" stroke-linejoin="round"/>
<path d="M89.3467 105.337L109.489 103.699L109.298 87.5898L89.3467 105.337Z" stroke="#FF6C22" stroke-opacity="0.75" stroke-width="0.824252" stroke-miterlimit="10" stroke-linejoin="round"/>
<path d="M67.9483 140.265L56.2173 143.123L56.8968 155.27L67.9483 140.265Z" stroke="#FF6C22" stroke-opacity="0.75" stroke-width="0.824252" stroke-miterlimit="10" stroke-linejoin="round"/>
<path d="M67.9474 140.265L64.8763 121.065L52.315 124.503L67.9474 140.265Z" stroke="#FF6C22" stroke-opacity="0.75" stroke-width="0.824252" stroke-miterlimit="10" stroke-linejoin="round"/>
<path d="M174.381 155.27L175.061 143.123L163.33 140.265L174.381 155.27Z" stroke="#FF6C22" stroke-opacity="0.75" stroke-width="0.824252" stroke-miterlimit="10" stroke-linejoin="round"/>
<path d="M166.401 121.065L163.33 140.265L178.962 124.503L166.401 121.065Z" stroke="#FF6C22" stroke-opacity="0.75" stroke-width="0.824252" stroke-miterlimit="10" stroke-linejoin="round"/>
<path d="M163.33 140.264L175.061 143.122L178.962 124.502L163.33 140.264Z" stroke="#FF6C22" stroke-opacity="0.75" stroke-width="0.824252" stroke-miterlimit="10" stroke-linejoin="round"/>
<path d="M56.2163 143.122L67.9474 140.264L52.315 124.502L56.2163 143.122Z" stroke="#FF6C22" stroke-opacity="0.75" stroke-width="0.824252" stroke-miterlimit="10" stroke-linejoin="round"/>
<path d="M56.8959 155.27L68.1564 150.852L67.9475 140.265L56.8959 155.27Z" stroke="#FF6C22" stroke-opacity="0.75" stroke-width="0.824252" stroke-miterlimit="10" stroke-linejoin="round"/>
<path d="M141.931 105.337L139.589 120.902L154.106 115.64L141.931 105.337Z" stroke="#FF6C22" stroke-opacity="0.75" stroke-width="0.824252" stroke-miterlimit="10" stroke-linejoin="round"/>
<path d="M91.6892 120.902L89.3475 105.337L77.1721 115.64L91.6892 120.902Z" stroke="#FF6C22" stroke-opacity="0.75" stroke-width="0.824252" stroke-miterlimit="10" stroke-linejoin="round"/>
<path d="M127.064 119.814L139.589 120.902L141.931 105.337L127.064 119.814Z" stroke="#FF6C22" stroke-opacity="0.75" stroke-width="0.824252" stroke-miterlimit="10" stroke-linejoin="round"/>
<path d="M127.064 119.815L141.931 105.337L127.937 103.97L127.064 119.815Z" stroke="#FF6C22" stroke-opacity="0.75" stroke-width="0.824252" stroke-miterlimit="10" stroke-linejoin="round"/>
<path d="M109.927 119.541L127.937 103.97L109.49 103.698L109.927 119.541Z" stroke="#FF6C22" stroke-opacity="0.75" stroke-width="0.824252" stroke-miterlimit="10" stroke-linejoin="round"/>
<path d="M109.927 119.542L127.063 119.815L127.936 103.97L109.927 119.542Z" stroke="#FF6C22" stroke-opacity="0.75" stroke-width="0.824252" stroke-miterlimit="10" stroke-linejoin="round"/>
<path d="M109.926 119.541L109.489 103.698L89.3467 105.336L109.926 119.541Z" stroke="#FF6C22" stroke-opacity="0.75" stroke-width="0.824252" stroke-miterlimit="10" stroke-linejoin="round"/>
<path d="M89.3467 105.337L91.6884 120.902L109.926 119.541L89.3467 105.337Z" stroke="#FF6C22" stroke-opacity="0.75" stroke-width="0.824252" stroke-miterlimit="10" stroke-linejoin="round"/>
<path d="M174.381 155.27L163.33 140.265L157.152 150.662L174.381 155.27Z" stroke="#FF6C22" stroke-opacity="0.75" stroke-width="0.824252" stroke-miterlimit="10" stroke-linejoin="round"/>
<path d="M79.9481 138.721L64.8767 121.065L67.9478 140.265L79.9481 138.721Z" stroke="#FF6C22" stroke-opacity="0.75" stroke-width="0.824252" stroke-miterlimit="10" stroke-linejoin="round"/>
<path d="M151.329 138.721L163.329 140.265L166.4 121.065L151.329 138.721Z" stroke="#FF6C22" stroke-opacity="0.75" stroke-width="0.824252" stroke-miterlimit="10" stroke-linejoin="round"/>
<path d="M154.105 115.641L151.329 138.722L166.4 121.065L154.105 115.641Z" stroke="#FF6C22" stroke-opacity="0.75" stroke-width="0.824252" stroke-miterlimit="10" stroke-linejoin="round"/>
<path d="M79.9481 138.722L77.1715 115.641L64.8767 121.065L79.9481 138.722Z" stroke="#FF6C22" stroke-opacity="0.75" stroke-width="0.824252" stroke-miterlimit="10" stroke-linejoin="round"/>
<path d="M151.329 138.72L157.151 150.661L163.329 140.264L151.329 138.72Z" stroke="#FF6C22" stroke-opacity="0.75" stroke-width="0.824252" stroke-miterlimit="10" stroke-linejoin="round"/>
<path d="M79.9481 138.72L67.9479 140.264L68.1568 150.851L79.9481 138.72Z" stroke="#FF6C22" stroke-opacity="0.75" stroke-width="0.824252" stroke-miterlimit="10" stroke-linejoin="round"/>
<path d="M86.6028 151.257L79.9485 138.72L68.1572 150.851L86.6028 151.257Z" stroke="#FF6C22" stroke-opacity="0.75" stroke-width="0.824252" stroke-miterlimit="10" stroke-linejoin="round"/>
<path d="M139.589 120.903L138.182 137.724L154.106 115.641L139.589 120.903Z" stroke="#FF6C22" stroke-opacity="0.75" stroke-width="0.824252" stroke-miterlimit="10" stroke-linejoin="round"/>
<path d="M138.182 137.724L151.329 138.722L154.106 115.641L138.182 137.724Z" stroke="#FF6C22" stroke-opacity="0.75" stroke-width="0.824252" stroke-miterlimit="10" stroke-linejoin="round"/>
<path d="M86.6037 151.258L93.0961 137.724L79.9494 138.721L86.6037 151.258Z" stroke="#FF6C22" stroke-opacity="0.75" stroke-width="0.824252" stroke-miterlimit="10" stroke-linejoin="round"/>
<path d="M93.0954 137.724L91.6892 120.903L77.1721 115.641L93.0954 137.724Z" stroke="#FF6C22" stroke-opacity="0.75" stroke-width="0.824252" stroke-miterlimit="10" stroke-linejoin="round"/>
<path d="M93.0954 137.724L77.1721 115.641L79.9487 138.722L93.0954 137.724Z" stroke="#FF6C22" stroke-opacity="0.75" stroke-width="0.824252" stroke-miterlimit="10" stroke-linejoin="round"/>
<path d="M126.077 137.161L139.589 120.903L127.063 119.815L126.077 137.161Z" stroke="#FF6C22" stroke-opacity="0.75" stroke-width="0.824252" stroke-miterlimit="10" stroke-linejoin="round"/>
<path d="M126.077 137.161L138.183 137.723L139.589 120.902L126.077 137.161Z" stroke="#FF6C22" stroke-opacity="0.75" stroke-width="0.824252" stroke-miterlimit="10" stroke-linejoin="round"/>
<path d="M127.063 119.815L109.927 119.542L110.42 137.028L127.063 119.815Z" stroke="#FF6C22" stroke-opacity="0.75" stroke-width="0.824252" stroke-miterlimit="10" stroke-linejoin="round"/>
<path d="M110.419 137.028L91.6885 120.902L93.0947 137.723L110.419 137.028Z" stroke="#FF6C22" stroke-opacity="0.75" stroke-width="0.824252" stroke-miterlimit="10" stroke-linejoin="round"/>
<path d="M126.077 137.161L127.063 119.815L110.42 137.028L126.077 137.161Z" stroke="#FF6C22" stroke-opacity="0.75" stroke-width="0.824252" stroke-miterlimit="10" stroke-linejoin="round"/>
<path d="M110.419 137.028L109.926 119.542L91.6885 120.903L110.419 137.028Z" stroke="#FF6C22" stroke-opacity="0.75" stroke-width="0.824252" stroke-miterlimit="10" stroke-linejoin="round"/>
<path d="M110.419 137.029L93.0948 137.724L86.6024 151.259L110.419 137.029Z" stroke="#FF6C22" stroke-opacity="0.75" stroke-width="0.824252" stroke-miterlimit="10" stroke-linejoin="round"/>
<path d="M138.182 137.724L131.92 151.032L151.329 138.721L138.182 137.724Z" stroke="#FF6C22" stroke-opacity="0.75" stroke-width="0.824252" stroke-miterlimit="10" stroke-linejoin="round"/>
<path d="M126.077 137.161L131.92 151.033L138.183 137.724L126.077 137.161Z" stroke="#FF6C22" stroke-opacity="0.75" stroke-width="0.824252" stroke-miterlimit="10" stroke-linejoin="round"/>
<path d="M131.92 151.031L157.151 150.661L151.329 138.72L131.92 151.031Z" stroke="#FF6C22" stroke-opacity="0.75" stroke-width="0.824252" stroke-miterlimit="10" stroke-linejoin="round"/>
<path d="M126.077 137.161L110.42 137.029L131.92 151.033L126.077 137.161Z" stroke="#FF6C22" stroke-opacity="0.75" stroke-width="0.824252" stroke-miterlimit="10" stroke-linejoin="round"/>
<path d="M110.42 137.029L110.622 149.945L131.92 151.033L110.42 137.029Z" stroke="#FF6C22" stroke-opacity="0.75" stroke-width="0.824252" stroke-miterlimit="10" stroke-linejoin="round"/>
<path d="M110.622 149.945L110.419 137.029L86.6024 151.259L110.622 149.945Z" stroke="#FF6C22" stroke-opacity="0.75" stroke-width="0.824252" stroke-miterlimit="10" stroke-linejoin="round"/>
</g>
</g>
<defs>
<linearGradient id="paint0_linear_430_3351" x1="0" y1="0" x2="267.883" y2="99.5842" gradientUnits="userSpaceOnUse">
<stop stop-color="#FF9209"/>
<stop offset="1" stop-color="#CFA06A"/>
</linearGradient>
<clipPath id="clip0_430_3351">
<rect width="251" height="145" rx="12" fill="white"/>
</clipPath>
<clipPath id="clip1_430_3351">
<rect width="247.276" height="342.404" fill="white" transform="translate(-8 18.9321)"/>
</clipPath>
</defs>
</svg>
