{
  "accessors": [
    {
      "bufferView": 2,
      "componentType": 5126,
      "count": 65532,
      "max": [
        54.71758270263672,
        27.780853271484375,
        110.07171630859375
      ],
      "min": [
        -55.12297058105469,
        -26.026268005371094,
        -11.472707748413086
      ],
      "type": "VEC3"
    },
    {
      "bufferView": 2,
      "byteOffset": 786384,
      "componentType": 5126,
      "count": 65532,
      "max": [
        0.9999988675117493,
        0.999998927116394,
        0.9999842643737793
      ],
      "min": [
        -0.9999869465827942,
        -0.9999985694885254,
        -0.9995933771133423
      ],
      "type": "VEC3"
    },
    {
      "bufferView": 1,
      "componentType": 5126,
      "count": 65532,
      "max": [
        0.997786819934845,
        0.9975683689117432
      ],
      "min": [
        0.002198681700974703,
        0.0593949556350708
      ],
      "type": "VEC2"
    },
    {
      "bufferView": 0,
      "componentType": 5125,
      "count": 363099,
      "type": "SCALAR"
    },
    {
      "bufferView": 2,
      "byteOffset": 1572768,
      "componentType": 5126,
      "count": 47670,
      "max": [
        54.92556381225586,
        27.764421463012695,
        111.10961151123047
      ],
      "min": [
        -55.11198425292969,
        -25.976696014404297,
        -11.484207153320313
      ],
      "type": "VEC3"
    },
    {
      "bufferView": 2,
      "byteOffset": 2144808,
      "componentType": 5126,
      "count": 47670,
      "max": [
        0.9998962879180908,
        0.9999890327453613,
        0.9997680187225342
      ],
      "min": [
        -0.9999527931213379,
        -0.9999977946281433,
        -0.9999690651893616
      ],
      "type": "VEC3"
    },
    {
      "bufferView": 1,
      "byteOffset": 524256,
      "componentType": 5126,
      "count": 47670,
      "max": [
        0.9851261377334595,
        0.9973634481430054
      ],
      "min": [
        0.0031993682496249676,
        0.014407157897949219
      ],
      "type": "VEC2"
    },
    {
      "bufferView": 0,
      "byteOffset": 1452396,
      "componentType": 5125,
      "count": 256389,
      "type": "SCALAR"
    }
  ],
  "asset": {
    "extras": {
      "author": "KRM260 (https://sketchfab.com/KRM260)",
      "license": "CC-BY-4.0 (http://creativecommons.org/licenses/by/4.0/)",
      "source": "https://sketchfab.com/3d-models/shirt-cfcfa84fa9d441c59e8047ffe3d539f4",
      "title": "SHIRT"
    },
    "generator": "Sketchfab-12.66.0",
    "version": "2.0"
  },
  "bufferViews": [
    {
      "buffer": 0,
      "byteLength": 2477952,
      "name": "floatBufferViews",
      "target": 34963
    },
    {
      "buffer": 0,
      "byteLength": 905616,
      "byteOffset": 2477952,
      "byteStride": 8,
      "name": "floatBufferViews",
      "target": 34962
    },
    {
      "buffer": 0,
      "byteLength": 2716848,
      "byteOffset": 3383568,
      "byteStride": 12,
      "name": "floatBufferViews",
      "target": 34962
    }
  ],
  "buffers": [
    {
      "byteLength": 6100416,
      "uri": "scene.bin"
    }
  ],
  "images": [
    {
      "uri": "textures/material_baseColor.jpeg"
    }
  ],
  "materials": [
    {
      "doubleSided": true,
      "name": "material",
      "pbrMetallicRoughness": {
        "baseColorTexture": {
          "index": 0
        },
        "metallicFactor": 0.0,
        "roughnessFactor": 0.7340852052
      }
    }
  ],
  "meshes": [
    {
      "name": "Object_0",
      "primitives": [
        {
          "attributes": {
            "NORMAL": 1,
            "POSITION": 0,
            "TEXCOORD_0": 2
          },
          "indices": 3,
          "material": 0,
          "mode": 4
        }
      ]
    },
    {
      "name": "Object_1",
      "primitives": [
        {
          "attributes": {
            "NORMAL": 5,
            "POSITION": 4,
            "TEXCOORD_0": 6
          },
          "indices": 7,
          "material": 0,
          "mode": 4
        }
      ]
    }
  ],
  "nodes": [
    {
      "children": [
        1
      ],
      "matrix": [
        -1.0,
        0.0,
        0.0,
        0.0,
        0.0,
        -2.220446049250313e-16,
        1.0,
        0.0,
        0.0,
        1.0,
        2.220446049250313e-16,
        0.0,
        -0.19763565063476563,
        3.8956612255177693e-16,
        -1.7544498443603516,
        1.0
      ],
      "name": "Sketchfab_model"
    },
    {
      "children": [
        2,
        3
      ],
      "name": "SHIRT.obj.cleaner.materialmerger.gles"
    },
    {
      "mesh": 0,
      "name": "Object_2"
    },
    {
      "mesh": 1,
      "name": "Object_3"
    }
  ],
  "samplers": [
    {
      "magFilter": 9729,
      "minFilter": 9987,
      "wrapS": 10497,
      "wrapT": 10497
    }
  ],
  "scene": 0,
  "scenes": [
    {
      "name": "Sketchfab_Scene",
      "nodes": [
        0
      ]
    }
  ],
  "textures": [
    {
      "sampler": 0,
      "source": 0
    }
  ]
}
