{
  "accessors": [
    {
      "bufferView": 2,
      "componentType": 5126,
      "count": 65532,
      "max": [
        2.6755189895629883,
        1.342689037322998,
        7.898458003997803
      ],
      "min": [
        -3.893709897994995,
        -1.3483480215072632,
        0.07524900138378143
      ],
      "type": "VEC3"
    },
    {
      "bufferView": 2,
      "byteOffset": 786384,
      "componentType": 5126,
      "count": 65532,
      "max": [
        0.9982584714889526,
        1.0,
        0.9999986886978149
      ],
      "min": [
        -0.9999977350234985,
        -0.9999939203262329,
        -0.9999830722808838
      ],
      "type": "VEC3"
    },
    {
      "bufferView": 3,
      "componentType": 5126,
      "count": 65532,
      "max": [
        0.9019889831542969,
        0.9731835722923279,
        0.9894729256629944,
        1.0
      ],
      "min": [
        -0.9999958276748657,
        -0.9952500462532043,
        -0.9997937083244324,
        1.0
      ],
      "type": "VEC4"
    },
    {
      "bufferView": 1,
      "componentType": 5126,
      "count": 65532,
      "max": [
        0.9961519837379456,
        0.9533420205116272
      ],
      "min": [
        0.029090000316500664,
        6.000000212225132e-06
      ],
      "type": "VEC2"
    },
    {
      "bufferView": 0,
      "componentType": 5125,
      "count": 363213,
      "type": "SCALAR"
    },
    {
      "bufferView": 2,
      "byteOffset": 1572768,
      "componentType": 5126,
      "count": 65532,
      "max": [
        3.932887077331543,
        1.3545910120010376,
        7.895772933959961
      ],
      "min": [
        -3.886523962020874,
        -1.3670790195465088,
        0.07524900138378143
      ],
      "type": "VEC3"
    },
    {
      "bufferView": 2,
      "byteOffset": 2359152,
      "componentType": 5126,
      "count": 65532,
      "max": [
        0.9999982118606567,
        0.9999991655349731,
        0.9999997615814209
      ],
      "min": [
        -0.9999905824661255,
        -0.9999994039535522,
        -0.9999969005584717
      ],
      "type": "VEC3"
    },
    {
      "bufferView": 3,
      "byteOffset": 1048512,
      "componentType": 5126,
      "count": 65532,
      "max": [
        0.9833955764770508,
        0.9998457431793213,
        0.9996631145477295,
        1.0
      ],
      "min": [
        -0.9999945759773254,
        -0.9983522295951843,
        -0.9999994039535522,
        1.0
      ],
      "type": "VEC4"
    },
    {
      "bufferView": 1,
      "byteOffset": 524256,
      "componentType": 5126,
      "count": 65532,
      "max": [
        0.9909300208091736,
        0.9466120004653931
      ],
      "min": [
        0.10232699662446976,
        0.0015790000325068831
      ],
      "type": "VEC2"
    },
    {
      "bufferView": 0,
      "byteOffset": 1452852,
      "componentType": 5125,
      "count": 338463,
      "type": "SCALAR"
    },
    {
      "bufferView": 2,
      "byteOffset": 3145536,
      "componentType": 5126,
      "count": 65532,
      "max": [
        3.9283649921417236,
        1.347674012184143,
        7.8906569480896
      ],
      "min": [
        -3.809997081756592,
        -1.374961018562317,
        0.09029100090265274
      ],
      "type": "VEC3"
    },
    {
      "bufferView": 2,
      "byteOffset": 3931920,
      "componentType": 5126,
      "count": 65532,
      "max": [
        0.9999819993972778,
        0.9999994039535522,
        0.9999942779541016
      ],
      "min": [
        -0.999994158744812,
        -0.9999998807907104,
        -0.999985933303833
      ],
      "type": "VEC3"
    },
    {
      "bufferView": 3,
      "byteOffset": 2097024,
      "componentType": 5126,
      "count": 65532,
      "max": [
        0.9999538064002991,
        0.9997771382331848,
        0.9999978542327881,
        1.0
      ],
      "min": [
        -0.999997079372406,
        -0.9999952912330627,
        -0.9998982548713684,
        1.0
      ],
      "type": "VEC4"
    },
    {
      "bufferView": 1,
      "byteOffset": 1048512,
      "componentType": 5126,
      "count": 65532,
      "max": [
        0.9956340193748474,
        0.9999539852142334
      ],
      "min": [
        5.999999848427251e-05,
        2.300000051036477e-05
      ],
      "type": "VEC2"
    },
    {
      "bufferView": 0,
      "byteOffset": 2806704,
      "componentType": 5125,
      "count": 346908,
      "type": "SCALAR"
    },
    {
      "bufferView": 2,
      "byteOffset": 4718304,
      "componentType": 5126,
      "count": 41844,
      "max": [
        3.932887077331543,
        1.3516939878463745,
        7.884430885314941
      ],
      "min": [
        -3.6842100620269775,
        -1.3750289678573608,
        0.12102899700403214
      ],
      "type": "VEC3"
    },
    {
      "bufferView": 2,
      "byteOffset": 5220432,
      "componentType": 5126,
      "count": 41844,
      "max": [
        0.9999982118606567,
        0.9999997615814209,
        0.9999544620513916
      ],
      "min": [
        -0.9999920129776001,
        -0.9999997615814209,
        -0.9999743700027466
      ],
      "type": "VEC3"
    },
    {
      "bufferView": 3,
      "byteOffset": 3145536,
      "componentType": 5126,
      "count": 41844,
      "max": [
        0.9997589588165283,
        0.9999402165412903,
        0.9997467398643494,
        1.0
      ],
      "min": [
        -0.9999933242797852,
        -0.9999921917915344,
        -0.9999924302101135,
        1.0
      ],
      "type": "VEC4"
    },
    {
      "bufferView": 1,
      "byteOffset": 1572768,
      "componentType": 5126,
      "count": 41844,
      "max": [
        0.9959329962730408,
        0.9934620261192322
      ],
      "min": [
        0.0007960000075399876,
        0.000666000007186085
      ],
      "type": "VEC2"
    },
    {
      "bufferView": 0,
      "byteOffset": 4194336,
      "componentType": 5125,
      "count": 173463,
      "type": "SCALAR"
    }
  ],
  "asset": {
    "extras": {
      "author": "Lassi Kaukonen (https://sketchfab.com/thesidekick)",
      "license": "CC-BY-4.0 (http://creativecommons.org/licenses/by/4.0/)",
      "source": "https://sketchfab.com/3d-models/tyre-with-a-toyota-rim-6ede0a7944284350b536d656fcb50991",
      "title": "Tyre with a Toyota rim"
    },
    "generator": "Sketchfab-12.68.0",
    "version": "2.0"
  },
  "bufferViews": [
    {
      "buffer": 0,
      "byteLength": 4888188,
      "name": "floatBufferViews",
      "target": 34963
    },
    {
      "buffer": 0,
      "byteLength": 1907520,
      "byteOffset": 4888188,
      "byteStride": 8,
      "name": "floatBufferViews",
      "target": 34962
    },
    {
      "buffer": 0,
      "byteLength": 5722560,
      "byteOffset": 6795708,
      "byteStride": 12,
      "name": "floatBufferViews",
      "target": 34962
    },
    {
      "buffer": 0,
      "byteLength": 3815040,
      "byteOffset": 12518268,
      "byteStride": 16,
      "name": "floatBufferViews",
      "target": 34962
    }
  ],
  "buffers": [
    {
      "byteLength": 16333308,
      "uri": "scene.bin"
    }
  ],
  "images": [
    {
      "uri": "textures/Tyre_with_a_Toyota_rim_baseColor.jpeg"
    },
    {
      "uri": "textures/Tyre_with_a_Toyota_rim_metallicRoughness.png"
    },
    {
      "uri": "textures/Tyre_with_a_Toyota_rim_normal.png"
    }
  ],
  "materials": [
    {
      "doubleSided": true,
      "name": "Tyre_with_a_Toyota_rim",
      "normalTexture": {
        "index": 2,
        "scale": 0.4820671770206918
      },
      "occlusionTexture": {
        "index": 1
      },
      "pbrMetallicRoughness": {
        "baseColorTexture": {
          "index": 0
        },
        "metallicFactor": 0.0,
        "metallicRoughnessTexture": {
          "index": 1
        }
      }
    }
  ],
  "meshes": [
    {
      "name": "Object_0",
      "primitives": [
        {
          "attributes": {
            "NORMAL": 1,
            "POSITION": 0,
            "TANGENT": 2,
            "TEXCOORD_0": 3
          },
          "indices": 4,
          "material": 0,
          "mode": 4
        }
      ]
    },
    {
      "name": "Object_1",
      "primitives": [
        {
          "attributes": {
            "NORMAL": 6,
            "POSITION": 5,
            "TANGENT": 7,
            "TEXCOORD_0": 8
          },
          "indices": 9,
          "material": 0,
          "mode": 4
        }
      ]
    },
    {
      "name": "Object_2",
      "primitives": [
        {
          "attributes": {
            "NORMAL": 11,
            "POSITION": 10,
            "TANGENT": 12,
            "TEXCOORD_0": 13
          },
          "indices": 14,
          "material": 0,
          "mode": 4
        }
      ]
    },
    {
      "name": "Object_3",
      "primitives": [
        {
          "attributes": {
            "NORMAL": 16,
            "POSITION": 15,
            "TANGENT": 17,
            "TEXCOORD_0": 18
          },
          "indices": 19,
          "material": 0,
          "mode": 4
        }
      ]
    }
  ],
  "nodes": [
    {
      "children": [
        1
      ],
      "matrix": [
        1.0,
        0.0,
        0.0,
        0.0,
        0.0,
        2.220446049250313e-16,
        -1.0,
        0.0,
        0.0,
        1.0,
        2.220446049250313e-16,
        0.0,
        0.0,
        0.0,
        0.0,
        1.0
      ],
      "name": "Sketchfab_model"
    },
    {
      "children": [
        2,
        3,
        4,
        5
      ],
      "name": "Tyre_with_a_Toyota_rim_SF.obj.cleaner.materialmerger.gles"
    },
    {
      "mesh": 0,
      "name": "Object_2"
    },
    {
      "mesh": 1,
      "name": "Object_3"
    },
    {
      "mesh": 2,
      "name": "Object_4"
    },
    {
      "mesh": 3,
      "name": "Object_5"
    }
  ],
  "samplers": [
    {
      "magFilter": 9729,
      "minFilter": 9987,
      "wrapS": 10497,
      "wrapT": 10497
    }
  ],
  "scene": 0,
  "scenes": [
    {
      "name": "Sketchfab_Scene",
      "nodes": [
        0
      ]
    }
  ],
  "textures": [
    {
      "sampler": 0,
      "source": 0
    },
    {
      "sampler": 0,
      "source": 1
    },
    {
      "sampler": 0,
      "source": 2
    }
  ]
}
