{
  "accessors": [
    {
      "bufferView": 2,
      "componentType": 5126,
      "count": 7500,
      "max": [
        -0.10124800354242325,
        -41.41805648803711,
        -0.3271079957485199
      ],
      "min": [
        -0.44478100538253784,
        -41.673187255859375,
        -0.6140710115432739
      ],
      "type": "VEC3"
    },
    {
      "bufferView": 2,
      "byteOffset": 90000,
      "componentType": 5126,
      "count": 7500,
      "max": [
        0.9956690073013306,
        0.9997404217720032,
        0.9970681667327881
      ],
      "min": [
        -0.9956825375556946,
        -0.9999500513076782,
        -0.9988101124763489
      ],
      "type": "VEC3"
    },
    {
      "bufferView": 1,
      "componentType": 5126,
      "count": 7500,
      "max": [
        0.940759003162384,
        0.9999600052833557
      ],
      "min": [
        1.1000000085914508e-05,
        4.099999932805076e-05
      ],
      "type": "VEC2"
    },
    {
      "bufferView": 0,
      "componentType": 5125,
      "count": 28344,
      "type": "SCALAR"
    }
  ],
  "asset": {
    "extras": {
      "author": "kassel.bouchra (https://sketchfab.com/kassel.bouchra)",
      "license": "CC-BY-4.0 (http://creativecommons.org/licenses/by/4.0/)",
      "source": "https://sketchfab.com/3d-models/books-9e125bb976694c5f9d58ffb658dabc4e",
      "title": "BOOKS"
    },
    "generator": "Sketchfab-12.67.0",
    "version": "2.0"
  },
  "bufferViews": [
    {
      "buffer": 0,
      "byteLength": 113376,
      "name": "floatBufferViews",
      "target": 34963
    },
    {
      "buffer": 0,
      "byteLength": 60000,
      "byteOffset": 113376,
      "byteStride": 8,
      "name": "floatBufferViews",
      "target": 34962
    },
    {
      "buffer": 0,
      "byteLength": 180000,
      "byteOffset": 173376,
      "byteStride": 12,
      "name": "floatBufferViews",
      "target": 34962
    }
  ],
  "buffers": [
    {
      "byteLength": 353376,
      "uri": "scene.bin"
    }
  ],
  "images": [
    {
      "uri": "textures/WILI_baseColor.jpeg"
    }
  ],
  "materials": [
    {
      "doubleSided": true,
      "name": "WILI",
      "pbrMetallicRoughness": {
        "baseColorTexture": {
          "index": 0
        },
        "metallicFactor": 0.0,
        "roughnessFactor": 0.6
      }
    }
  ],
  "meshes": [
    {
      "name": "Object_0",
      "primitives": [
        {
          "attributes": {
            "NORMAL": 1,
            "POSITION": 0,
            "TEXCOORD_0": 2
          },
          "indices": 3,
          "material": 0,
          "mode": 4
        }
      ]
    }
  ],
  "nodes": [
    {
      "children": [
        1
      ],
      "matrix": [
        0.2734912931919098,
        0.8069530725479127,
        -0.523478031158447,
        0.0,
        -0.3522327244281769,
        -0.4224037826061247,
        -0.8351689577102662,
        0.0,
        -0.8950612545013428,
        0.4127975404262542,
        0.16871149837970742,
        0.0,
        -15.263644218444824,
        -17.572383880615234,
        6.787066936492916,
        1.0
      ],
      "name": "Sketchfab_model"
    },
    {
      "children": [
        2
      ],
      "name": "WILI.obj.cleaner.materialmerger.gles"
    },
    {
      "mesh": 0,
      "name": "Object_2"
    }
  ],
  "samplers": [
    {
      "magFilter": 9729,
      "minFilter": 9987,
      "wrapS": 10497,
      "wrapT": 10497
    }
  ],
  "scene": 0,
  "scenes": [
    {
      "name": "Sketchfab_Scene",
      "nodes": [
        0
      ]
    }
  ],
  "textures": [
    {
      "sampler": 0,
      "source": 0
    }
  ]
}
