{
  "accessors": [
    {
      "bufferView": 2,
      "componentType": 5126,
      "count": 2366,
      "max": [
        0.4521760046482086,
        1.0,
        0.24473799765110016
      ],
      "min": [
        -0.4521760046482086,
        -1.0,
        -0.24473799765110016
      ],
      "type": "VEC3"
    },
    {
      "bufferView": 2,
      "byteOffset": 28392,
      "componentType": 5126,
      "count": 2366,
      "max": [
        0.9999690055847168,
        0.9994432330131531,
        0.9997590184211731
      ],
      "min": [
        -0.9997975826263428,
        -0.9987203478813171,
        -0.9999112486839294
      ],
      "type": "VEC3"
    },
    {
      "bufferView": 3,
      "componentType": 5126,
      "count": 2366,
      "max": [
        0.9999926686286926,
        0.8353810906410217,
        0.9973664879798889,
        -1.0
      ],
      "min": [
        -0.9999653697013855,
        -0.8037083745002747,
        -0.9991392493247986,
        -1.0
      ],
      "type": "VEC4"
    },
    {
      "bufferView": 1,
      "componentType": 5126,
      "count": 2366,
      "max": [
        0.843861997127533,
        0.9783700108528137
      ],
      "min": [
        0.16698899865150452,
        0.017737599089741707
      ],
      "type": "VEC2"
    },
    {
      "bufferView": 0,
      "componentType": 5125,
      "count": 12885,
      "type": "SCALAR"
    }
  ],
  "asset": {
    "extras": {
      "author": "Pabooklas (https://sketchfab.com/Pabooklas)",
      "license": "CC-BY-4.0 (http://creativecommons.org/licenses/by/4.0/)",
      "source": "https://sketchfab.com/3d-models/poor-mans-pants-f0b032268e4e472aac0eb0636c580ba3",
      "title": "Poor Mans Pants"
    },
    "generator": "Sketchfab-12.67.0",
    "version": "2.0"
  },
  "bufferViews": [
    {
      "buffer": 0,
      "byteLength": 51540,
      "name": "floatBufferViews",
      "target": 34963
    },
    {
      "buffer": 0,
      "byteLength": 18928,
      "byteOffset": 51540,
      "byteStride": 8,
      "name": "floatBufferViews",
      "target": 34962
    },
    {
      "buffer": 0,
      "byteLength": 56784,
      "byteOffset": 70468,
      "byteStride": 12,
      "name": "floatBufferViews",
      "target": 34962
    },
    {
      "buffer": 0,
      "byteLength": 37856,
      "byteOffset": 127252,
      "byteStride": 16,
      "name": "floatBufferViews",
      "target": 34962
    }
  ],
  "buffers": [
    {
      "byteLength": 165108,
      "uri": "scene.bin"
    }
  ],
  "images": [
    {
      "uri": "textures/PantsLow_baseColor.jpeg"
    },
    {
      "uri": "textures/PantsLow_metallicRoughness.png"
    },
    {
      "uri": "textures/PantsLow_normal.png"
    }
  ],
  "materials": [
    {
      "doubleSided": true,
      "name": "PantsLow",
      "normalTexture": {
        "index": 2
      },
      "occlusionTexture": {
        "index": 1
      },
      "pbrMetallicRoughness": {
        "baseColorTexture": {
          "index": 0
        },
        "metallicRoughnessTexture": {
          "index": 1
        }
      }
    }
  ],
  "meshes": [
    {
      "name": "defaultMaterial",
      "primitives": [
        {
          "attributes": {
            "NORMAL": 1,
            "POSITION": 0,
            "TANGENT": 2,
            "TEXCOORD_0": 3
          },
          "indices": 4,
          "material": 0,
          "mode": 4
        }
      ]
    }
  ],
  "nodes": [
    {
      "children": [
        1
      ],
      "matrix": [
        1.0,
        0.0,
        0.0,
        0.0,
        0.0,
        2.220446049250313e-16,
        -1.0,
        0.0,
        0.0,
        1.0,
        2.220446049250313e-16,
        0.0,
        0.0,
        0.0,
        0.0,
        1.0
      ],
      "name": "Sketchfab_model"
    },
    {
      "children": [
        2
      ],
      "matrix": [
        1.0,
        0.0,
        0.0,
        0.0,
        0.0,
        -4.371139006309477e-08,
        0.999999999999999,
        0.0,
        0.0,
        -0.999999999999999,
        -4.371139006309477e-08,
        0.0,
        0.0,
        0.0,
        0.0,
        1.0
      ],
      "name": "Collada visual scene group"
    },
    {
      "children": [
        3
      ],
      "name": "PantsLow"
    },
    {
      "mesh": 0,
      "name": "defaultMaterial"
    }
  ],
  "samplers": [
    {
      "magFilter": 9729,
      "minFilter": 9987,
      "wrapS": 10497,
      "wrapT": 10497
    }
  ],
  "scene": 0,
  "scenes": [
    {
      "name": "Sketchfab_Scene",
      "nodes": [
        0
      ]
    }
  ],
  "textures": [
    {
      "sampler": 0,
      "source": 0
    },
    {
      "sampler": 0,
      "source": 1
    },
    {
      "sampler": 0,
      "source": 2
    }
  ]
}
