{
  "accessors": [
    {
      "bufferView": 2,
      "componentType": 5126,
      "count": 65532,
      "max": [
        3.272660255432129,
        1.1764259338378906,
        1.5198781490325928
      ],
      "min": [
        0.061812400817871094,
        0.0,
        0.00020498037338256836
      ],
      "type": "VEC3"
    },
    {
      "bufferView": 2,
      "byteOffset": 786384,
      "componentType": 5126,
      "count": 65532,
      "max": [
        0.9999184012413025,
        0.999930739402771,
        0.9997205138206482
      ],
      "min": [
        -0.9993953108787537,
        -0.99998539686203,
        -0.9999988675117493
      ],
      "type": "VEC3"
    },
    {
      "bufferView": 1,
      "componentType": 5126,
      "count": 65532,
      "max": [
        0.9941984415054321,
        0.9943317770957947
      ],
      "min": [
        0.007997254841029644,
        0.0037407735362648964
      ],
      "type": "VEC2"
    },
    {
      "bufferView": 0,
      "componentType": 5125,
      "count": 334713,
      "type": "SCALAR"
    },
    {
      "bufferView": 2,
      "byteOffset": 1572768,
      "componentType": 5126,
      "count": 65532,
      "max": [
        3.271635055541992,
        1.1765193939208984,
        1.511233925819397
      ],
      "min": [
        0.00526738166809082,
        0.02564716339111328,
        0.027930140495300293
      ],
      "type": "VEC3"
    },
    {
      "bufferView": 2,
      "byteOffset": 2359152,
      "componentType": 5126,
      "count": 65532,
      "max": [
        0.9999731183052063,
        0.9999932050704956,
        0.9998572468757629
      ],
      "min": [
        -0.9997812509536743,
        -0.9999604225158691,
        -0.9999458193778992
      ],
      "type": "VEC3"
    },
    {
      "bufferView": 1,
      "byteOffset": 524256,
      "componentType": 5126,
      "count": 65532,
      "max": [
        0.9941898584365845,
        0.9936195611953735
      ],
      "min": [
        0.004641700070351362,
        0.007343015633523464
      ],
      "type": "VEC2"
    },
    {
      "bufferView": 0,
      "byteOffset": 1338852,
      "componentType": 5125,
      "count": 340962,
      "type": "SCALAR"
    },
    {
      "bufferView": 2,
      "byteOffset": 3145536,
      "componentType": 5126,
      "count": 65532,
      "max": [
        3.272000551223755,
        1.1710681915283203,
        1.5182678699493408
      ],
      "min": [
        0.0059642791748046875,
        0.03076457977294922,
        0.06823715567588806
      ],
      "type": "VEC3"
    },
    {
      "bufferView": 2,
      "byteOffset": 3931920,
      "componentType": 5126,
      "count": 65532,
      "max": [
        0.9999505877494812,
        0.9999784231185913,
        0.9999362230300903
      ],
      "min": [
        -0.9999927282333374,
        -0.9999921321868896,
        -0.9999788403511047
      ],
      "type": "VEC3"
    },
    {
      "bufferView": 1,
      "byteOffset": 1048512,
      "componentType": 5126,
      "count": 65532,
      "max": [
        0.993176281452179,
        0.9960203766822815
      ],
      "min": [
        0.005905105732381344,
        0.012113949283957481
      ],
      "type": "VEC2"
    },
    {
      "bufferView": 0,
      "byteOffset": 2702700,
      "componentType": 5125,
      "count": 328614,
      "type": "SCALAR"
    },
    {
      "bufferView": 2,
      "byteOffset": 4718304,
      "componentType": 5126,
      "count": 65532,
      "max": [
        3.272660255432129,
        1.1957902908325195,
        1.5133423805236816
      ],
      "min": [
        0.0,
        0.008684158325195313,
        0.03586563467979431
      ],
      "type": "VEC3"
    },
    {
      "bufferView": 2,
      "byteOffset": 5504688,
      "componentType": 5126,
      "count": 65532,
      "max": [
        0.9996514320373535,
        0.9999964237213135,
        0.9999667406082153
      ],
      "min": [
        -0.9999837279319763,
        -0.9999899864196777,
        -0.9999821186065674
      ],
      "type": "VEC3"
    },
    {
      "bufferView": 1,
      "byteOffset": 1572768,
      "componentType": 5126,
      "count": 65532,
      "max": [
        0.9944121837615967,
        0.9977304935455322
      ],
      "min": [
        0.0063964491710066795,
        0.004521098453551531
      ],
      "type": "VEC2"
    },
    {
      "bufferView": 0,
      "byteOffset": 4017156,
      "componentType": 5125,
      "count": 319740,
      "type": "SCALAR"
    },
    {
      "bufferView": 2,
      "byteOffset": 6291072,
      "componentType": 5126,
      "count": 65532,
      "max": [
        3.273285150527954,
        1.187748908996582,
        1.5204322338104248
      ],
      "min": [
        0.00526738166809082,
        0.000980377197265625,
        0.0
      ],
      "type": "VEC3"
    },
    {
      "bufferView": 2,
      "byteOffset": 7077456,
      "componentType": 5126,
      "count": 65532,
      "max": [
        0.9999929070472717,
        0.9999870657920837,
        0.9999434947967529
      ],
      "min": [
        -0.9999927282333374,
        -0.9999942183494568,
        -0.9999998807907104
      ],
      "type": "VEC3"
    },
    {
      "bufferView": 1,
      "byteOffset": 2097024,
      "componentType": 5126,
      "count": 65532,
      "max": [
        0.9940792322158813,
        0.9997597932815552
      ],
      "min": [
        0.005747681483626366,
        0.003956634551286697
      ],
      "type": "VEC2"
    },
    {
      "bufferView": 0,
      "byteOffset": 5296116,
      "componentType": 5125,
      "count": 286809,
      "type": "SCALAR"
    },
    {
      "bufferView": 2,
      "byteOffset": 7863840,
      "componentType": 5126,
      "count": 65532,
      "max": [
        3.27247953414917,
        1.1956610679626465,
        1.5202786922454834
      ],
      "min": [
        0.0,
        0.0017824172973632813,
        0.0017108917236328125
      ],
      "type": "VEC3"
    },
    {
      "bufferView": 2,
      "byteOffset": 8650224,
      "componentType": 5126,
      "count": 65532,
      "max": [
        0.9999929070472717,
        0.9999964237213135,
        0.9999945163726807
      ],
      "min": [
        -0.9997473955154419,
        -0.9999812245368958,
        -0.9999944567680359
      ],
      "type": "VEC3"
    },
    {
      "bufferView": 1,
      "byteOffset": 2621280,
      "componentType": 5126,
      "count": 65532,
      "max": [
        0.9941681623458862,
        1.0001665353775024
      ],
      "min": [
        0.005509530194103718,
        0.00395394628867507
      ],
      "type": "VEC2"
    },
    {
      "bufferView": 0,
      "byteOffset": 6443352,
      "componentType": 5125,
      "count": 169458,
      "type": "SCALAR"
    },
    {
      "bufferView": 2,
      "byteOffset": 9436608,
      "componentType": 5126,
      "count": 16298,
      "max": [
        3.2723917961120605,
        1.1899843215942383,
        1.5123348236083984
      ],
      "min": [
        0.003361225128173828,
        0.0024003982543945313,
        0.0003172755241394043
      ],
      "type": "VEC3"
    },
    {
      "bufferView": 2,
      "byteOffset": 9632184,
      "componentType": 5126,
      "count": 16298,
      "max": [
        0.9998219609260559,
        0.9999932050704956,
        0.9997902512550354
      ],
      "min": [
        -0.9997183680534363,
        -0.9999738931655884,
        -0.9997923970222473
      ],
      "type": "VEC3"
    },
    {
      "bufferView": 1,
      "byteOffset": 3145536,
      "componentType": 5126,
      "count": 16298,
      "max": [
        0.9936299324035645,
        0.9997214078903198
      ],
      "min": [
        0.006579284556210041,
        0.004085890483111143
      ],
      "type": "VEC2"
    },
    {
      "bufferView": 0,
      "byteOffset": 7121184,
      "componentType": 5125,
      "count": 19950,
      "type": "SCALAR"
    }
  ],
  "asset": {
    "extras": {
      "author": "Nevena Knežević (https://sketchfab.com/gavez)",
      "license": "CC-BY-4.0 (http://creativecommons.org/licenses/by/4.0/)",
      "source": "https://sketchfab.com/3d-models/brothers-shoe-4268eb4870a045478cce51461f31a413",
      "title": "Brothers shoe"
    },
    "generator": "Sketchfab-12.66.0",
    "version": "2.0"
  },
  "bufferViews": [
    {
      "buffer": 0,
      "byteLength": 7200984,
      "name": "floatBufferViews",
      "target": 34963
    },
    {
      "buffer": 0,
      "byteLength": 3275920,
      "byteOffset": 7200984,
      "byteStride": 8,
      "name": "floatBufferViews",
      "target": 34962
    },
    {
      "buffer": 0,
      "byteLength": 9827760,
      "byteOffset": 10476904,
      "byteStride": 12,
      "name": "floatBufferViews",
      "target": 34962
    }
  ],
  "buffers": [
    {
      "byteLength": 20304664,
      "uri": "scene.bin"
    }
  ],
  "extensionsUsed": [
    "KHR_materials_unlit"
  ],
  "images": [
    {
      "uri": "textures/material_0_baseColor.jpeg"
    }
  ],
  "materials": [
    {
      "doubleSided": true,
      "extensions": {
        "KHR_materials_unlit": {}
      },
      "name": "material_0",
      "pbrMetallicRoughness": {
        "baseColorTexture": {
          "index": 0
        },
        "metallicFactor": 0.0
      }
    }
  ],
  "meshes": [
    {
      "name": "Object_0",
      "primitives": [
        {
          "attributes": {
            "NORMAL": 1,
            "POSITION": 0,
            "TEXCOORD_0": 2
          },
          "indices": 3,
          "material": 0,
          "mode": 4
        }
      ]
    },
    {
      "name": "Object_1",
      "primitives": [
        {
          "attributes": {
            "NORMAL": 5,
            "POSITION": 4,
            "TEXCOORD_0": 6
          },
          "indices": 7,
          "material": 0,
          "mode": 4
        }
      ]
    },
    {
      "name": "Object_2",
      "primitives": [
        {
          "attributes": {
            "NORMAL": 9,
            "POSITION": 8,
            "TEXCOORD_0": 10
          },
          "indices": 11,
          "material": 0,
          "mode": 4
        }
      ]
    },
    {
      "name": "Object_3",
      "primitives": [
        {
          "attributes": {
            "NORMAL": 13,
            "POSITION": 12,
            "TEXCOORD_0": 14
          },
          "indices": 15,
          "material": 0,
          "mode": 4
        }
      ]
    },
    {
      "name": "Object_4",
      "primitives": [
        {
          "attributes": {
            "NORMAL": 17,
            "POSITION": 16,
            "TEXCOORD_0": 18
          },
          "indices": 19,
          "material": 0,
          "mode": 4
        }
      ]
    },
    {
      "name": "Object_5",
      "primitives": [
        {
          "attributes": {
            "NORMAL": 21,
            "POSITION": 20,
            "TEXCOORD_0": 22
          },
          "indices": 23,
          "material": 0,
          "mode": 4
        }
      ]
    },
    {
      "name": "Object_6",
      "primitives": [
        {
          "attributes": {
            "NORMAL": 25,
            "POSITION": 24,
            "TEXCOORD_0": 26
          },
          "indices": 27,
          "material": 0,
          "mode": 4
        }
      ]
    }
  ],
  "nodes": [
    {
      "children": [
        1
      ],
      "matrix": [
        -1.0,
        -3.0531133177191795e-16,
        -3.8285688045569407e-16,
        0.0,
        3.82856880455694e-16,
        3.347676701362948e-17,
        -1.0,
        0.0,
        3.0531133177191805e-16,
        -1.0,
        -3.347676701362948e-17,
        0.0,
        -0.852176308631897,
        0.45068445801734924,
        1.0007205242631417e-16,
        1.0
      ],
      "name": "Sketchfab_model"
    },
    {
      "children": [
        2,
        3,
        4,
        5,
        6,
        7,
        8
      ],
      "matrix": [
        1.0,
        0.0,
        0.0,
        0.0,
        0.0,
        1.0,
        0.0,
        0.0,
        0.0,
        0.0,
        1.0,
        0.0,
        -2.0627264976501465,
        -8.313251495361328,
        -0.534873366355896,
        1.0
      ],
      "name": "cipela za upload.OBJ.cleaner.gles"
    },
    {
      "mesh": 0,
      "name": "Object_2"
    },
    {
      "mesh": 1,
      "name": "Object_3"
    },
    {
      "mesh": 2,
      "name": "Object_4"
    },
    {
      "mesh": 3,
      "name": "Object_5"
    },
    {
      "mesh": 4,
      "name": "Object_6"
    },
    {
      "mesh": 5,
      "name": "Object_7"
    },
    {
      "mesh": 6,
      "name": "Object_8"
    }
  ],
  "samplers": [
    {
      "magFilter": 9729,
      "minFilter": 9987,
      "wrapS": 10497,
      "wrapT": 10497
    }
  ],
  "scene": 0,
  "scenes": [
    {
      "name": "Sketchfab_Scene",
      "nodes": [
        0
      ]
    }
  ],
  "textures": [
    {
      "sampler": 0,
      "source": 0
    }
  ]
}
