{
  "accessors": [
    {
      "bufferView": 2,
      "componentType": 5126,
      "count": 8148,
      "max": [
        1.0836836099624634,
        1.0934059619903564,
        3.1118109226226807
      ],
      "min": [
        -1.083683967590332,
        -1.1600669622421265,
        -3.0580437183380127
      ],
      "type": "VEC3"
    },
    {
      "bufferView": 2,
      "byteOffset": 97776,
      "componentType": 5126,
      "count": 8148,
      "max": [
        1.0,
        1.0,
        1.0
      ],
      "min": [
        -1.0,
        -1.0,
        -1.0
      ],
      "type": "VEC3"
    },
    {
      "bufferView": 3,
      "componentType": 5126,
      "count": 8148,
      "max": [
        1.0,
        1.0,
        1.0,
        1.0
      ],
      "min": [
        -1.0,
        -1.0,
        -1.0,
        1.0
      ],
      "type": "VEC4"
    },
    {
      "bufferView": 1,
      "componentType": 5126,
      "count": 8148,
      "max": [
        0.998690664768219,
        0.9986887574195862
      ],
      "min": [
        0.0013093407033011317,
        0.0013112702872604132
      ],
      "type": "VEC2"
    },
    {
      "bufferView": 0,
      "componentType": 5125,
      "count": 12312,
      "type": "SCALAR"
    },
    {
      "bufferView": 2,
      "byteOffset": 195552,
      "componentType": 5126,
      "count": 1076,
      "max": [
        0.09906814247369766,
        0.5735975503921509,
        3.05322003364563
      ],
      "min": [
        -2.059191942214966,
        -0.20754659175872803,
        -3.05322003364563
      ],
      "type": "VEC3"
    },
    {
      "bufferView": 2,
      "byteOffset": 208464,
      "componentType": 5126,
      "count": 1076,
      "max": [
        1.0,
        1.0,
        1.0
      ],
      "min": [
        -1.0,
        -1.0,
        -1.0
      ],
      "type": "VEC3"
    },
    {
      "bufferView": 3,
      "byteOffset": 130368,
      "componentType": 5126,
      "count": 1076,
      "max": [
        1.0,
        1.0,
        1.0,
        1.0
      ],
      "min": [
        -1.0,
        -1.0,
        -1.0,
        1.0
      ],
      "type": "VEC4"
    },
    {
      "bufferView": 1,
      "byteOffset": 65184,
      "componentType": 5126,
      "count": 1076,
      "max": [
        0.9981597661972046,
        0.9979987740516663
      ],
      "min": [
        0.0018402216956019402,
        0.0020011798478662968
      ],
      "type": "VEC2"
    },
    {
      "bufferView": 0,
      "byteOffset": 49248,
      "componentType": 5125,
      "count": 1626,
      "type": "SCALAR"
    }
  ],
  "asset": {
    "extras": {
      "author": "Michalina \"Miszla\" Gąsienica-Laskowy (https://sketchfab.com/Miszla)",
      "license": "CC-BY-NC-SA-4.0 (http://creativecommons.org/licenses/by-nc-sa/4.0/)",
      "source": "https://sketchfab.com/3d-models/minsk-fridge-55325e3b09ac48b2ae3803bccf804741",
      "title": "\"Mińsk\" Fridge"
    },
    "generator": "Sketchfab-12.65.0",
    "version": "2.0"
  },
  "bufferViews": [
    {
      "buffer": 0,
      "byteLength": 55752,
      "name": "floatBufferViews",
      "target": 34963
    },
    {
      "buffer": 0,
      "byteLength": 73792,
      "byteOffset": 55752,
      "byteStride": 8,
      "name": "floatBufferViews",
      "target": 34962
    },
    {
      "buffer": 0,
      "byteLength": 221376,
      "byteOffset": 129544,
      "byteStride": 12,
      "name": "floatBufferViews",
      "target": 34962
    },
    {
      "buffer": 0,
      "byteLength": 147584,
      "byteOffset": 350920,
      "byteStride": 16,
      "name": "floatBufferViews",
      "target": 34962
    }
  ],
  "buffers": [
    {
      "byteLength": 498504,
      "uri": "scene.bin"
    }
  ],
  "images": [
    {
      "uri": "textures/Fridge_baseColor.jpeg"
    },
    {
      "uri": "textures/Fridge_metallicRoughness.png"
    },
    {
      "uri": "textures/Fridge_emissive.jpeg"
    },
    {
      "uri": "textures/Fridge_normal.png"
    },
    {
      "uri": "textures/Doors_baseColor.jpeg"
    },
    {
      "uri": "textures/Doors_metallicRoughness.png"
    },
    {
      "uri": "textures/Doors_normal.png"
    }
  ],
  "materials": [
    {
      "doubleSided": true,
      "emissiveFactor": [
        1.0,
        1.0,
        1.0
      ],
      "emissiveTexture": {
        "index": 2
      },
      "name": "Fridge",
      "normalTexture": {
        "index": 3
      },
      "occlusionTexture": {
        "index": 1
      },
      "pbrMetallicRoughness": {
        "baseColorTexture": {
          "index": 0
        },
        "metallicRoughnessTexture": {
          "index": 1
        }
      }
    },
    {
      "doubleSided": true,
      "name": "Doors",
      "normalTexture": {
        "index": 6
      },
      "occlusionTexture": {
        "index": 5
      },
      "pbrMetallicRoughness": {
        "baseColorTexture": {
          "index": 4
        },
        "metallicRoughnessTexture": {
          "index": 5
        }
      }
    }
  ],
  "meshes": [
    {
      "name": "Fridge_low_Fridge_0",
      "primitives": [
        {
          "attributes": {
            "NORMAL": 1,
            "POSITION": 0,
            "TANGENT": 2,
            "TEXCOORD_0": 3
          },
          "indices": 4,
          "material": 0,
          "mode": 4
        }
      ]
    },
    {
      "name": "Door_low_Doors_0",
      "primitives": [
        {
          "attributes": {
            "NORMAL": 6,
            "POSITION": 5,
            "TANGENT": 7,
            "TEXCOORD_0": 8
          },
          "indices": 9,
          "material": 1,
          "mode": 4
        }
      ]
    }
  ],
  "nodes": [
    {
      "children": [
        1
      ],
      "matrix": [
        0.0024808188900351524,
        0.0,
        0.0,
        0.0,
        0.0,
        5.508524503284101e-19,
        -0.0024808188900351524,
        0.0,
        0.0,
        0.0024808188900351524,
        5.508524503284101e-19,
        0.0,
        0.0,
        0.0,
        0.0,
        1.0
      ],
      "name": "Sketchfab_model"
    },
    {
      "children": [
        2
      ],
      "matrix": [
        1.0,
        0.0,
        0.0,
        0.0,
        0.0,
        0.0,
        1.0,
        0.0,
        0.0,
        -1.0,
        0.0,
        0.0,
        0.0,
        0.0,
        0.0,
        1.0
      ],
      "name": "Open_sketchfab.fbx"
    },
    {
      "children": [
        3,
        5
      ],
      "name": "RootNode"
    },
    {
      "children": [
        4
      ],
      "matrix": [
        100.0,
        0.0,
        0.0,
        0.0,
        0.0,
        -1.629206793918314e-05,
        -99.99999999999868,
        0.0,
        0.0,
        99.99999999999868,
        -1.629206793918314e-05,
        0.0,
        0.0,
        301.47998046875,
        0.0,
        1.0
      ],
      "name": "Fridge_low"
    },
    {
      "mesh": 0,
      "name": "Fridge_low_Fridge_0"
    },
    {
      "children": [
        6
      ],
      "matrix": [
        -17.57758570405081,
        0.0,
        -98.44302149373895,
        0.0,
        -98.4430214937341,
        3.139164788112936e-05,
        17.577585704049948,
        0.0,
        3.0902886671846375e-05,
        99.99999999999507,
        -5.517893808537622e-06,
        0.0,
        98.67101287841797,
        301.47998046875,
        115.0609359741211,
        1.0
      ],
      "name": "Door_low"
    },
    {
      "mesh": 1,
      "name": "Door_low_Doors_0"
    }
  ],
  "samplers": [
    {
      "magFilter": 9729,
      "minFilter": 9987,
      "wrapS": 10497,
      "wrapT": 10497
    }
  ],
  "scene": 0,
  "scenes": [
    {
      "name": "Sketchfab_Scene",
      "nodes": [
        0
      ]
    }
  ],
  "textures": [
    {
      "sampler": 0,
      "source": 0
    },
    {
      "sampler": 0,
      "source": 1
    },
    {
      "sampler": 0,
      "source": 2
    },
    {
      "sampler": 0,
      "source": 3
    },
    {
      "sampler": 0,
      "source": 4
    },
    {
      "sampler": 0,
      "source": 5
    },
    {
      "sampler": 0,
      "source": 6
    }
  ]
}
